<ttFont>
    <TTGlyph name=".notdef" xMin="193" yMin="0" xMax="1034" yMax="1462">
      <contour>
        <pt x="193" y="1462" on="1"/>
        <pt x="1034" y="1462" on="1"/>
        <pt x="1034" y="0" on="1"/>
        <pt x="193" y="0" on="1"/>
      </contour>
      <contour>
        <pt x="297" y="104" on="1"/>
        <pt x="930" y="104" on="1"/>
        <pt x="930" y="1358" on="1"/>
        <pt x="297" y="1358" on="1"/>
      </contour>
    </TTGlyph>
    <TTGlyph name="A" xMin="-117" yMin="0" xMax="1051" yMax="1462">
      <contour>
        <pt x="815" y="455" on="1"/>
        <pt x="322" y="455" on="1"/>
        <pt x="84" y="0" on="1"/>
        <pt x="-117" y="0" on="1"/>
        <pt x="678" y="1462" on="1"/>
        <pt x="870" y="1462" on="1"/>
        <pt x="1051" y="0" on="1"/>
        <pt x="870" y="0" on="1"/>
      </contour>
      <contour>
        <pt x="797" y="618" on="1"/>
        <pt x="764" y="924" on="1"/>
        <pt x="737" y="1151" on="0"/>
        <pt x="737" y="1268" on="1"/>
        <pt x="705" y="1191" on="0"/>
        <pt x="629" y="1036" on="0"/>
        <pt x="410" y="618" on="1"/>
      </contour>
    </TTGlyph>
    <TTGlyph name="AE" xMin="-119" yMin="0" xMax="1769" yMax="1462">
      <contour>
        <pt x="1460" y="0" on="1"/>
        <pt x="717" y="0" on="1"/>
        <pt x="813" y="455" on="1"/>
        <pt x="375" y="455" on="1"/>
        <pt x="90" y="0" on="1"/>
        <pt x="-119" y="0" on="1"/>
        <pt x="817" y="1462" on="1"/>
        <pt x="1769" y="1462" on="1"/>
        <pt x="1737" y="1300" on="1"/>
        <pt x="1176" y="1300" on="1"/>
        <pt x="1077" y="844" on="1"/>
        <pt x="1602" y="844" on="1"/>
        <pt x="1571" y="684" on="1"/>
        <pt x="1047" y="684" on="1"/>
        <pt x="936" y="162" on="1"/>
        <pt x="1495" y="162" on="1"/>
      </contour>
      <contour>
        <pt x="846" y="618" on="1"/>
        <pt x="991" y="1300" on="1"/>
        <pt x="907" y="1300" on="1"/>
        <pt x="479" y="618" on="1"/>
      </contour>
    </TTGlyph>
    <TTGlyph name="AEacute" xMin="-119" yMin="0" xMax="1769" yMax="1907">
      <component glyphName="AE" x="0" y="0" flags="0x204"/>
      <component glyphName="acute" x="600" y="338" flags="0x4"/>
    </TTGlyph>
    <TTGlyph name="Aacute" xMin="-117" yMin="0" xMax="1121" yMax="1907">
      <component glyphName="A" x="0" y="0" flags="0x204"/>
      <component glyphName="acute" x="158" y="338" flags="0x4"/>
    </TTGlyph>
    <TTGlyph name="Abreve" xMin="-117" yMin="0" xMax="1114" yMax="1854">
      <component glyphName="A" x="0" y="0" flags="0x204"/>
      <component glyphName="breve" x="55" y="338" flags="0x4"/>
    </TTGlyph>
    <TTGlyph name="Acircumflex" xMin="-117" yMin="0" xMax="1094" yMax="1907">
      <component glyphName="A" x="0" y="0" flags="0x204"/>
      <component glyphName="circumflex" x="70" y="338" flags="0x4"/>
    </TTGlyph>
    <TTGlyph name="Adieresis" xMin="-117" yMin="0" xMax="1080" yMax="1833">
      <component glyphName="A" x="0" y="0" flags="0x204"/>
      <component glyphName="dieresis" x="70" y="338" flags="0x4"/>
    </TTGlyph>
    <TTGlyph name="Agrave" xMin="-117" yMin="0" xMax="1051" yMax="1907">
      <component glyphName="A" x="0" y="0" flags="0x204"/>
      <component glyphName="grave" x="-34" y="338" flags="0x4"/>
    </TTGlyph>
    <TTGlyph name="Alpha" xMin="-117" yMin="0" xMax="1051" yMax="1462">
      <component glyphName="A" x="0" y="0" flags="0x204"/>
    </TTGlyph>
    <TTGlyph name="Alphatonos" xMin="-117" yMin="0" xMax="1051" yMax="1546">
      <component glyphName="A" x="0" y="0" flags="0x204"/>
      <component glyphName="tonos" x="-484" y="-105" flags="0x4"/>
    </TTGlyph>
    <TTGlyph name="Amacron" xMin="-117" yMin="0" xMax="1087" yMax="1724">
      <component glyphName="A" x="0" y="0" flags="0x204"/>
      <component glyphName="uni02C9" x="102" y="338" flags="0x4"/>
    </TTGlyph>
    <TTGlyph name="Aogonek" xMin="-117" yMin="-444" xMax="1051" yMax="1462">
      <component glyphName="A" x="0" y="0" flags="0x204"/>
      <component glyphName="ogonek" x="813" y="0" flags="0x4"/>
    </TTGlyph>
    <TTGlyph name="Aring" xMin="-117" yMin="0" xMax="1051" yMax="1794">
      <contour>
        <pt x="999" y="1583" on="1"/>
        <pt x="999" y="1509" on="0"/>
        <pt x="934" y="1409" on="0"/>
        <pt x="879" y="1386" on="1"/>
        <pt x="1051" y="0" on="1"/>
        <pt x="870" y="0" on="1"/>
        <pt x="815" y="455" on="1"/>
        <pt x="322" y="455" on="1"/>
        <pt x="84" y="0" on="1"/>
        <pt x="-117" y="0" on="1"/>
        <pt x="643" y="1401" on="1"/>
        <pt x="555" y="1455" on="0"/>
        <pt x="555" y="1581" on="1"/>
        <pt x="555" y="1678" on="0"/>
        <pt x="680" y="1794" on="0"/>
        <pt x="776" y="1794" on="1"/>
        <pt x="876" y="1794" on="0"/>
        <pt x="999" y="1680" on="0"/>
      </contour>
      <contour>
        <pt x="797" y="618" on="1"/>
        <pt x="747" y="1079" on="0"/>
        <pt x="737" y="1213" on="0"/>
        <pt x="737" y="1268" on="1"/>
        <pt x="705" y="1191" on="0"/>
        <pt x="629" y="1036" on="0"/>
        <pt x="410" y="618" on="1"/>
      </contour>
      <contour>
        <pt x="891" y="1581" on="1"/>
        <pt x="891" y="1634" on="0"/>
        <pt x="827" y="1694" on="0"/>
        <pt x="776" y="1694" on="1"/>
        <pt x="728" y="1694" on="0"/>
        <pt x="664" y="1634" on="0"/>
        <pt x="664" y="1581" on="1"/>
        <pt x="664" y="1528" on="0"/>
        <pt x="722" y="1468" on="0"/>
        <pt x="776" y="1468" on="1"/>
        <pt x="827" y="1468" on="0"/>
        <pt x="891" y="1528" on="0"/>
      </contour>
    </TTGlyph>
    <TTGlyph name="Aringacute" xMin="-117" yMin="0" xMax="1141" yMax="1962">
      <contour>
        <pt x="985" y="1434" on="1"/>
        <pt x="985" y="1318" on="0"/>
        <pt x="895" y="1253" on="1"/>
        <pt x="1051" y="0" on="1"/>
        <pt x="872" y="0" on="1"/>
        <pt x="819" y="455" on="1"/>
        <pt x="324" y="455" on="1"/>
        <pt x="84" y="0" on="1"/>
        <pt x="-117" y="0" on="1"/>
        <pt x="582" y="1292" on="1"/>
        <pt x="539" y="1344" on="0"/>
        <pt x="539" y="1432" on="1"/>
        <pt x="539" y="1526" on="0"/>
        <pt x="661" y="1647" on="0"/>
        <pt x="760" y="1647" on="1"/>
        <pt x="862" y="1647" on="0"/>
        <pt x="985" y="1532" on="0"/>
      </contour>
      <contour>
        <pt x="690" y="1718" on="1"/>
        <pt x="781" y="1799" on="0"/>
        <pt x="915" y="1962" on="1"/>
        <pt x="1141" y="1962" on="1"/>
        <pt x="1141" y="1944" on="1"/>
        <pt x="1091" y="1894" on="0"/>
        <pt x="880" y="1736" on="0"/>
        <pt x="817" y="1698" on="1"/>
        <pt x="690" y="1698" on="1"/>
      </contour>
      <contour>
        <pt x="874" y="1432" on="1"/>
        <pt x="874" y="1486" on="0"/>
        <pt x="811" y="1546" on="0"/>
        <pt x="760" y="1546" on="1"/>
        <pt x="712" y="1546" on="0"/>
        <pt x="647" y="1486" on="0"/>
        <pt x="647" y="1432" on="1"/>
        <pt x="647" y="1379" on="0"/>
        <pt x="706" y="1319" on="0"/>
        <pt x="760" y="1319" on="1"/>
        <pt x="811" y="1319" on="0"/>
        <pt x="874" y="1379" on="0"/>
      </contour>
      <contour>
        <pt x="713" y="1202" on="1"/>
        <pt x="669" y="1110" on="0"/>
        <pt x="619" y="1010" on="0"/>
        <pt x="412" y="618" on="1"/>
        <pt x="799" y="618" on="1"/>
        <pt x="766" y="907" on="1"/>
        <pt x="739" y="1202" on="1"/>
      </contour>
      <contour>
        <pt x="447" y="1462" on="1"/>
      </contour>
    </TTGlyph>
    <TTGlyph name="Atilde" xMin="-117" yMin="0" xMax="1179" yMax="1843">
      <component glyphName="A" x="0" y="0" flags="0x204"/>
      <component glyphName="tilde" x="100" y="338" flags="0x4"/>
    </TTGlyph>
    <TTGlyph name="B" xMin="84" yMin="0" xMax="1206" yMax="1462">
      <contour>
        <pt x="772" y="1462" on="1"/>
        <pt x="987" y="1462" on="0"/>
        <pt x="1206" y="1292" on="0"/>
        <pt x="1206" y="1126" on="1"/>
        <pt x="1206" y="985" on="0"/>
        <pt x="1035" y="792" on="0"/>
        <pt x="877" y="762" on="1"/>
        <pt x="877" y="752" on="1"/>
        <pt x="991" y="720" on="0"/>
        <pt x="1112" y="565" on="0"/>
        <pt x="1112" y="455" on="1"/>
        <pt x="1112" y="244" on="0"/>
        <pt x="812" y="0" on="0"/>
        <pt x="551" y="0" on="1"/>
        <pt x="84" y="0" on="1"/>
        <pt x="393" y="1462" on="1"/>
      </contour>
      <contour>
        <pt x="444" y="840" on="1"/>
        <pt x="684" y="840" on="1"/>
        <pt x="836" y="840" on="0"/>
        <pt x="1016" y="981" on="0"/>
        <pt x="1016" y="1104" on="1"/>
        <pt x="1016" y="1201" on="0"/>
        <pt x="892" y="1305" on="0"/>
        <pt x="750" y="1305" on="1"/>
        <pt x="543" y="1305" on="1"/>
      </contour>
      <contour>
        <pt x="299" y="156" on="1"/>
        <pt x="557" y="156" on="1"/>
        <pt x="731" y="156" on="0"/>
        <pt x="920" y="311" on="0"/>
        <pt x="920" y="455" on="1"/>
        <pt x="920" y="568" on="0"/>
        <pt x="777" y="688" on="0"/>
        <pt x="641" y="688" on="1"/>
        <pt x="412" y="688" on="1"/>
      </contour>
    </TTGlyph>
    <TTGlyph name="Beta" xMin="84" yMin="0" xMax="1206" yMax="1462">
      <component glyphName="B" x="0" y="0" flags="0x204"/>
    </TTGlyph>
    <TTGlyph name="C" xMin="147" yMin="-20" xMax="1294" yMax="1483">
      <contour>
        <pt x="938" y="1321" on="1"/>
        <pt x="763" y="1321" on="0"/>
        <pt x="495" y="1123" on="0"/>
        <pt x="342" y="756" on="0"/>
        <pt x="342" y="543" on="1"/>
        <pt x="342" y="356" on="0"/>
        <pt x="532" y="141" on="0"/>
        <pt x="700" y="141" on="1"/>
        <pt x="844" y="141" on="0"/>
        <pt x="1024" y="201" on="1"/>
        <pt x="1024" y="41" on="1"/>
        <pt x="861" y="-20" on="0"/>
        <pt x="668" y="-20" on="1"/>
        <pt x="423" y="-20" on="0"/>
        <pt x="147" y="279" on="0"/>
        <pt x="147" y="539" on="1"/>
        <pt x="147" y="796" on="0"/>
        <pt x="355" y="1245" on="0"/>
        <pt x="713" y="1483" on="0"/>
        <pt x="938" y="1483" on="1"/>
        <pt x="1144" y="1483" on="0"/>
        <pt x="1294" y="1401" on="1"/>
        <pt x="1221" y="1249" on="1"/>
        <pt x="1082" y="1321" on="0"/>
      </contour>
    </TTGlyph>
    <TTGlyph name="Cacute" xMin="147" yMin="-20" xMax="1294" yMax="1907">
      <component glyphName="C" x="0" y="0" flags="0x204"/>
      <component glyphName="acute" x="307" y="338" flags="0x4"/>
    </TTGlyph>
    <TTGlyph name="Ccaron" xMin="147" yMin="-20" xMax="1294" yMax="1907">
      <component glyphName="C" x="0" y="0" flags="0x204"/>
      <component glyphName="caron" x="164" y="338" flags="0x4"/>
    </TTGlyph>
    <TTGlyph name="Ccedilla" xMin="147" yMin="-492" xMax="1294" yMax="1483">
      <component glyphName="C" x="0" y="0" flags="0x204"/>
      <component glyphName="cedilla" x="549" y="0" flags="0x4"/>
    </TTGlyph>
    <TTGlyph name="Ccircumflex" xMin="147" yMin="-20" xMax="1294" yMax="1907">
      <component glyphName="C" x="0" y="0" flags="0x204"/>
      <component glyphName="circumflex" x="209" y="338" flags="0x4"/>
    </TTGlyph>
    <TTGlyph name="Cdotaccent" xMin="147" yMin="-20" xMax="1294" yMax="1845">
      <component glyphName="C" x="0" y="0" flags="0x204"/>
      <component glyphName="dotaccent" x="494" y="338" flags="0x4"/>
    </TTGlyph>
    <TTGlyph name="Chi" xMin="-106" yMin="0" xMax="1247" yMax="1462">
      <component glyphName="X" x="0" y="0" flags="0x204"/>
    </TTGlyph>
    <TTGlyph name="D" xMin="84" yMin="0" xMax="1303" yMax="1462">
      <contour>
        <pt x="1303" y="879" on="1"/>
        <pt x="1303" y="617" on="0"/>
        <pt x="1095" y="216" on="0"/>
        <pt x="704" y="0" on="0"/>
        <pt x="444" y="0" on="1"/>
        <pt x="84" y="0" on="1"/>
        <pt x="393" y="1462" on="1"/>
        <pt x="739" y="1462" on="1"/>
        <pt x="1015" y="1462" on="0"/>
        <pt x="1303" y="1164" on="0"/>
      </contour>
      <contour>
        <pt x="455" y="158" on="1"/>
        <pt x="653" y="158" on="0"/>
        <pt x="951" y="339" on="0"/>
        <pt x="1110" y="668" on="0"/>
        <pt x="1110" y="881" on="1"/>
        <pt x="1110" y="1090" on="0"/>
        <pt x="910" y="1305" on="0"/>
        <pt x="717" y="1305" on="1"/>
        <pt x="543" y="1305" on="1"/>
        <pt x="299" y="158" on="1"/>
      </contour>
    </TTGlyph>
    <TTGlyph name="Dcaron" xMin="84" yMin="0" xMax="1303" yMax="1907">
      <component glyphName="D" x="0" y="0" flags="0x204"/>
      <component glyphName="caron" x="94" y="338" flags="0x4"/>
    </TTGlyph>
    <TTGlyph name="Dcroat" xMin="68" yMin="0" xMax="1303" yMax="1462">
      <component glyphName="Eth" x="0" y="0" flags="0x204"/>
    </TTGlyph>
    <TTGlyph name="Delta" xMin="-55" yMin="0" xMax="1018" yMax="1460">
      <component glyphName="uni2206" x="0" y="0" flags="0x204"/>
    </TTGlyph>
    <TTGlyph name="E" xMin="84" yMin="0" xMax="1135" yMax="1462">
      <contour>
        <pt x="825" y="0" on="1"/>
        <pt x="84" y="0" on="1"/>
        <pt x="393" y="1462" on="1"/>
        <pt x="1135" y="1462" on="1"/>
        <pt x="1100" y="1300" on="1"/>
        <pt x="541" y="1300" on="1"/>
        <pt x="444" y="844" on="1"/>
        <pt x="967" y="844" on="1"/>
        <pt x="936" y="684" on="1"/>
        <pt x="412" y="684" on="1"/>
        <pt x="299" y="162" on="1"/>
        <pt x="860" y="162" on="1"/>
      </contour>
    </TTGlyph>
    <TTGlyph name="Eacute" xMin="84" yMin="0" xMax="1135" yMax="1907">
      <component glyphName="E" x="0" y="0" flags="0x204"/>
      <component glyphName="acute" x="125" y="338" flags="0x4"/>
    </TTGlyph>
    <TTGlyph name="Ebreve" xMin="84" yMin="0" xMax="1135" yMax="1854">
      <component glyphName="E" x="0" y="0" flags="0x204"/>
      <component glyphName="breve" x="59" y="338" flags="0x4"/>
    </TTGlyph>
    <TTGlyph name="Ecaron" xMin="84" yMin="0" xMax="1139" yMax="1907">
      <component glyphName="E" x="0" y="0" flags="0x204"/>
      <component glyphName="caron" x="47" y="338" flags="0x4"/>
    </TTGlyph>
    <TTGlyph name="Ecircumflex" xMin="84" yMin="0" xMax="1135" yMax="1907">
      <component glyphName="E" x="0" y="0" flags="0x204"/>
      <component glyphName="circumflex" x="68" y="338" flags="0x4"/>
    </TTGlyph>
    <TTGlyph name="Edieresis" xMin="84" yMin="0" xMax="1135" yMax="1833">
      <component glyphName="E" x="0" y="0" flags="0x204"/>
      <component glyphName="dieresis" x="63" y="338" flags="0x4"/>
    </TTGlyph>
    <TTGlyph name="Edotaccent" xMin="84" yMin="0" xMax="1135" yMax="1816">
      <component glyphName="E" x="0" y="0" flags="0x204"/>
      <component glyphName="dotaccent" x="344" y="309" flags="0x4"/>
    </TTGlyph>
    <TTGlyph name="Egrave" xMin="84" yMin="0" xMax="1135" yMax="1907">
      <component glyphName="E" x="0" y="0" flags="0x204"/>
      <component glyphName="grave" x="-7" y="338" flags="0x4"/>
    </TTGlyph>
    <TTGlyph name="Emacron" xMin="84" yMin="0" xMax="1135" yMax="1724">
      <component glyphName="E" x="0" y="0" flags="0x204"/>
      <component glyphName="uni02C9" x="90" y="338" flags="0x4"/>
    </TTGlyph>
    <TTGlyph name="Eng" xMin="82" yMin="-387" xMax="1458" yMax="1462">
      <contour>
        <pt x="717" y="-387" on="1"/>
        <pt x="611" y="-387" on="0"/>
        <pt x="561" y="-362" on="1"/>
        <pt x="567" y="-205" on="1"/>
        <pt x="636" y="-225" on="0"/>
        <pt x="715" y="-225" on="1"/>
        <pt x="817" y="-225" on="0"/>
        <pt x="947" y="-109" on="0"/>
        <pt x="969" y="0" on="1"/>
        <pt x="502" y="1212" on="1"/>
        <pt x="494" y="1212" on="1"/>
        <pt x="481" y="1125" on="1"/>
        <pt x="458" y="961" on="0"/>
        <pt x="422" y="795" on="1"/>
        <pt x="254" y="0" on="1"/>
        <pt x="82" y="0" on="1"/>
        <pt x="391" y="1462" on="1"/>
        <pt x="586" y="1462" on="1"/>
        <pt x="1034" y="268" on="1"/>
        <pt x="1040" y="268" on="1"/>
        <pt x="1061" y="396" on="0"/>
        <pt x="1105" y="639" on="0"/>
        <pt x="1282" y="1462" on="1"/>
        <pt x="1458" y="1462" on="1"/>
        <pt x="1149" y="0" on="1"/>
        <pt x="1111" y="-188" on="0"/>
        <pt x="896" y="-387" on="0"/>
      </contour>
    </TTGlyph>
    <TTGlyph name="Eogonek" xMin="84" yMin="-444" xMax="1135" yMax="1462">
      <component glyphName="E" x="0" y="0" flags="0x204"/>
      <component glyphName="ogonek" x="582" y="0" flags="0x4"/>
    </TTGlyph>
    <TTGlyph name="Epsilon" xMin="84" yMin="0" xMax="1135" yMax="1462">
      <component glyphName="E" x="0" y="0" flags="0x204"/>
    </TTGlyph>
    <TTGlyph name="Epsilontonos" xMin="66" yMin="0" xMax="1256" yMax="1546">
      <component glyphName="E" x="121" y="0" flags="0x4"/>
      <component glyphName="tonos" x="-550" y="-105" flags="0x4"/>
    </TTGlyph>
    <TTGlyph name="Eta" xMin="86" yMin="0" xMax="1401" yMax="1462">
      <component glyphName="H" x="0" y="0" flags="0x204"/>
    </TTGlyph>
    <TTGlyph name="Etatonos" xMin="66" yMin="0" xMax="1608" yMax="1546">
      <component glyphName="H" x="207" y="0" flags="0x4"/>
      <component glyphName="tonos" x="-550" y="-105" flags="0x4"/>
    </TTGlyph>
    <TTGlyph name="Eth" xMin="68" yMin="0" xMax="1303" yMax="1462">
      <contour>
        <pt x="1303" y="879" on="1"/>
        <pt x="1303" y="617" on="0"/>
        <pt x="1095" y="216" on="0"/>
        <pt x="704" y="0" on="0"/>
        <pt x="444" y="0" on="1"/>
        <pt x="84" y="0" on="1"/>
        <pt x="217" y="645" on="1"/>
        <pt x="68" y="645" on="1"/>
        <pt x="102" y="803" on="1"/>
        <pt x="252" y="803" on="1"/>
        <pt x="393" y="1462" on="1"/>
        <pt x="739" y="1462" on="1"/>
        <pt x="1015" y="1462" on="0"/>
        <pt x="1303" y="1164" on="0"/>
      </contour>
      <contour>
        <pt x="455" y="158" on="1"/>
        <pt x="653" y="158" on="0"/>
        <pt x="951" y="339" on="0"/>
        <pt x="1110" y="668" on="0"/>
        <pt x="1110" y="881" on="1"/>
        <pt x="1110" y="1090" on="0"/>
        <pt x="910" y="1305" on="0"/>
        <pt x="717" y="1305" on="1"/>
        <pt x="543" y="1305" on="1"/>
        <pt x="436" y="803" on="1"/>
        <pt x="758" y="803" on="1"/>
        <pt x="723" y="645" on="1"/>
        <pt x="401" y="645" on="1"/>
        <pt x="299" y="158" on="1"/>
      </contour>
    </TTGlyph>
    <TTGlyph name="Euro" xMin="61" yMin="-20" xMax="1239" yMax="1481">
      <contour>
        <pt x="926" y="1321" on="1"/>
        <pt x="789" y="1321" on="0"/>
        <pt x="567" y="1127" on="0"/>
        <pt x="496" y="934" on="1"/>
        <pt x="913" y="934" on="1"/>
        <pt x="887" y="797" on="1"/>
        <pt x="453" y="797" on="1"/>
        <pt x="431" y="726" on="0"/>
        <pt x="420" y="637" on="1"/>
        <pt x="795" y="637" on="1"/>
        <pt x="764" y="502" on="1"/>
        <pt x="412" y="502" on="1"/>
        <pt x="412" y="322" on="0"/>
        <pt x="552" y="141" on="0"/>
        <pt x="698" y="141" on="1"/>
        <pt x="824" y="141" on="0"/>
        <pt x="958" y="197" on="1"/>
        <pt x="958" y="39" on="1"/>
        <pt x="828" y="-20" on="0"/>
        <pt x="674" y="-20" on="1"/>
        <pt x="459" y="-20" on="0"/>
        <pt x="229" y="252" on="0"/>
        <pt x="229" y="502" on="1"/>
        <pt x="61" y="502" on="1"/>
        <pt x="88" y="637" on="1"/>
        <pt x="240" y="637" on="1"/>
        <pt x="248" y="713" on="0"/>
        <pt x="270" y="797" on="1"/>
        <pt x="121" y="797" on="1"/>
        <pt x="150" y="934" on="1"/>
        <pt x="307" y="934" on="1"/>
        <pt x="405" y="1204" on="0"/>
        <pt x="730" y="1481" on="0"/>
        <pt x="934" y="1481" on="1"/>
        <pt x="1021" y="1481" on="0"/>
        <pt x="1165" y="1440" on="0"/>
        <pt x="1239" y="1389" on="1"/>
        <pt x="1155" y="1243" on="1"/>
        <pt x="1109" y="1274" on="0"/>
        <pt x="998" y="1321" on="0"/>
      </contour>
    </TTGlyph>
    <TTGlyph name="F" xMin="84" yMin="0" xMax="1135" yMax="1462">
      <contour>
        <pt x="266" y="0" on="1"/>
        <pt x="84" y="0" on="1"/>
        <pt x="393" y="1462" on="1"/>
        <pt x="1135" y="1462" on="1"/>
        <pt x="1102" y="1300" on="1"/>
        <pt x="541" y="1300" on="1"/>
        <pt x="432" y="780" on="1"/>
        <pt x="956" y="780" on="1"/>
        <pt x="922" y="618" on="1"/>
        <pt x="397" y="618" on="1"/>
      </contour>
    </TTGlyph>
    <TTGlyph name="G" xMin="147" yMin="-20" xMax="1360" yMax="1483">
      <contour>
        <pt x="815" y="770" on="1"/>
        <pt x="1284" y="770" on="1"/>
        <pt x="1128" y="55" on="1"/>
        <pt x="1007" y="13" on="0"/>
        <pt x="808" y="-20" on="0"/>
        <pt x="702" y="-20" on="1"/>
        <pt x="439" y="-20" on="0"/>
        <pt x="147" y="271" on="0"/>
        <pt x="147" y="530" on="1"/>
        <pt x="147" y="798" on="0"/>
        <pt x="353" y="1241" on="0"/>
        <pt x="714" y="1483" on="0"/>
        <pt x="936" y="1483" on="1"/>
        <pt x="1053" y="1483" on="0"/>
        <pt x="1256" y="1443" on="0"/>
        <pt x="1360" y="1397" on="1"/>
        <pt x="1290" y="1237" on="1"/>
        <pt x="1213" y="1271" on="0"/>
        <pt x="1039" y="1321" on="0"/>
        <pt x="934" y="1321" on="1"/>
        <pt x="768" y="1321" on="0"/>
        <pt x="495" y="1121" on="0"/>
        <pt x="342" y="764" on="0"/>
        <pt x="342" y="543" on="1"/>
        <pt x="342" y="354" on="0"/>
        <pt x="541" y="141" on="0"/>
        <pt x="721" y="141" on="1"/>
        <pt x="862" y="141" on="0"/>
        <pt x="973" y="178" on="1"/>
        <pt x="1067" y="610" on="1"/>
        <pt x="780" y="610" on="1"/>
      </contour>
    </TTGlyph>
    <TTGlyph name="Gamma" xMin="84" yMin="0" xMax="1135" yMax="1462">
      <contour>
        <pt x="266" y="0" on="1"/>
        <pt x="84" y="0" on="1"/>
        <pt x="393" y="1462" on="1"/>
        <pt x="1135" y="1462" on="1"/>
        <pt x="1102" y="1300" on="1"/>
        <pt x="541" y="1300" on="1"/>
      </contour>
    </TTGlyph>
    <TTGlyph name="Gbreve" xMin="147" yMin="-20" xMax="1360" yMax="1854">
      <component glyphName="G" x="0" y="0" flags="0x204"/>
      <component glyphName="breve" x="184" y="338" flags="0x4"/>
    </TTGlyph>
    <TTGlyph name="Gcaron" xMin="147" yMin="-20" xMax="1360" yMax="1907">
      <component glyphName="G" x="0" y="0" flags="0x204"/>
      <component glyphName="caron" x="186" y="338" flags="0x4"/>
    </TTGlyph>
    <TTGlyph name="Gcircumflex" xMin="147" yMin="-20" xMax="1360" yMax="1907">
      <component glyphName="G" x="0" y="0" flags="0x204"/>
      <component glyphName="circumflex" x="203" y="338" flags="0x4"/>
    </TTGlyph>
    <TTGlyph name="Gcommaaccent" xMin="147" yMin="-453" xMax="1360" yMax="1483">
      <component glyphName="G" x="0" y="0" flags="0x204"/>
      <component glyphName="glyph00569" x="299" y="0" flags="0x4"/>
    </TTGlyph>
    <TTGlyph name="Gdotaccent" xMin="147" yMin="-20" xMax="1360" yMax="1845">
      <component glyphName="G" x="0" y="0" flags="0x204"/>
      <component glyphName="dotaccent" x="506" y="338" flags="0x4"/>
    </TTGlyph>
    <TTGlyph name="H" xMin="86" yMin="0" xMax="1401" yMax="1462">
      <contour>
        <pt x="1092" y="0" on="1"/>
        <pt x="911" y="0" on="1"/>
        <pt x="1055" y="682" on="1"/>
        <pt x="412" y="682" on="1"/>
        <pt x="268" y="0" on="1"/>
        <pt x="86" y="0" on="1"/>
        <pt x="395" y="1462" on="1"/>
        <pt x="578" y="1462" on="1"/>
        <pt x="446" y="844" on="1"/>
        <pt x="1090" y="844" on="1"/>
        <pt x="1221" y="1462" on="1"/>
        <pt x="1401" y="1462" on="1"/>
      </contour>
    </TTGlyph>
    <TTGlyph name="H18533" xMin="178" yMin="137" xMax="1059" yMax="1018">
      <contour>
        <pt x="618" y="1018" on="1"/>
        <pt x="727" y="1018" on="0"/>
        <pt x="944" y="901" on="0"/>
        <pt x="1059" y="684" on="0"/>
        <pt x="1059" y="578" on="1"/>
        <pt x="1059" y="395" on="0"/>
        <pt x="801" y="137" on="0"/>
        <pt x="618" y="137" on="1"/>
        <pt x="436" y="137" on="0"/>
        <pt x="178" y="395" on="0"/>
        <pt x="178" y="578" on="1"/>
        <pt x="178" y="686" on="0"/>
        <pt x="289" y="899" on="0"/>
        <pt x="504" y="1018" on="0"/>
      </contour>
    </TTGlyph>
    <TTGlyph name="H18543" xMin="109" yMin="383" xMax="616" yMax="891">
      <contour>
        <pt x="616" y="383" on="1"/>
        <pt x="109" y="383" on="1"/>
        <pt x="109" y="891" on="1"/>
        <pt x="616" y="891" on="1"/>
      </contour>
    </TTGlyph>
    <TTGlyph name="H18551" xMin="109" yMin="383" xMax="616" yMax="891">
      <contour>
        <pt x="616" y="383" on="1"/>
        <pt x="109" y="383" on="1"/>
        <pt x="109" y="891" on="1"/>
        <pt x="616" y="891" on="1"/>
      </contour>
      <contour>
        <pt x="541" y="459" on="1"/>
        <pt x="541" y="813" on="1"/>
        <pt x="184" y="813" on="1"/>
        <pt x="184" y="459" on="1"/>
      </contour>
    </TTGlyph>
    <TTGlyph name="H22073" xMin="6" yMin="0" xMax="1231" yMax="1225">
      <contour>
        <pt x="6" y="1225" on="1"/>
        <pt x="1231" y="1225" on="1"/>
        <pt x="1231" y="0" on="1"/>
        <pt x="6" y="0" on="1"/>
      </contour>
      <contour>
        <pt x="82" y="1149" on="1"/>
        <pt x="82" y="76" on="1"/>
        <pt x="1155" y="76" on="1"/>
        <pt x="1155" y="1149" on="1"/>
      </contour>
    </TTGlyph>
    <TTGlyph name="Hbar" xMin="84" yMin="0" xMax="1538" yMax="1462">
      <contour>
        <pt x="1352" y="1217" on="1"/>
        <pt x="1538" y="1217" on="1"/>
        <pt x="1509" y="1069" on="1"/>
        <pt x="1319" y="1069" on="1"/>
        <pt x="1094" y="0" on="1"/>
        <pt x="909" y="0" on="1"/>
        <pt x="1053" y="682" on="1"/>
        <pt x="410" y="682" on="1"/>
        <pt x="266" y="0" on="1"/>
        <pt x="84" y="0" on="1"/>
        <pt x="309" y="1069" on="1"/>
        <pt x="123" y="1069" on="1"/>
        <pt x="154" y="1217" on="1"/>
        <pt x="340" y="1217" on="1"/>
        <pt x="393" y="1462" on="1"/>
        <pt x="575" y="1462" on="1"/>
        <pt x="522" y="1217" on="1"/>
        <pt x="1165" y="1217" on="1"/>
        <pt x="1219" y="1462" on="1"/>
        <pt x="1403" y="1462" on="1"/>
      </contour>
      <contour>
        <pt x="1087" y="844" on="1"/>
        <pt x="1135" y="1069" on="1"/>
        <pt x="492" y="1069" on="1"/>
        <pt x="444" y="844" on="1"/>
      </contour>
    </TTGlyph>
    <TTGlyph name="Hcircumflex" xMin="86" yMin="0" xMax="1401" yMax="1907">
      <component glyphName="H" x="0" y="0" flags="0x204"/>
      <component glyphName="circumflex" x="188" y="338" flags="0x4"/>
    </TTGlyph>
    <TTGlyph name="I" xMin="-41" yMin="0" xMax="780" yMax="1462">
      <contour>
        <pt x="471" y="0" on="1"/>
        <pt x="-41" y="0" on="1"/>
        <pt x="-20" y="100" on="1"/>
        <pt x="154" y="141" on="1"/>
        <pt x="403" y="1321" on="1"/>
        <pt x="248" y="1360" on="1"/>
        <pt x="268" y="1462" on="1"/>
        <pt x="780" y="1462" on="1"/>
        <pt x="760" y="1360" on="1"/>
        <pt x="584" y="1321" on="1"/>
        <pt x="334" y="141" on="1"/>
        <pt x="492" y="100" on="1"/>
      </contour>
    </TTGlyph>
    <TTGlyph name="IJ" xMin="-41" yMin="-389" xMax="1240" yMax="1462">
      <component glyphName="I" x="0" y="0" flags="0x4"/>
      <component glyphName="J" x="662" y="0" flags="0x4"/>
    </TTGlyph>
    <TTGlyph name="Iacute" xMin="-41" yMin="0" xMax="888" yMax="1907">
      <component glyphName="I" x="0" y="0" flags="0x204"/>
      <component glyphName="acute" x="-75" y="338" flags="0x4"/>
    </TTGlyph>
    <TTGlyph name="Ibreve" xMin="-41" yMin="0" xMax="874" yMax="1854">
      <component glyphName="I" x="0" y="0" flags="0x204"/>
      <component glyphName="breve" x="-185" y="338" flags="0x4"/>
    </TTGlyph>
    <TTGlyph name="Icircumflex" xMin="-41" yMin="0" xMax="853" yMax="1907">
      <component glyphName="I" x="0" y="0" flags="0x204"/>
      <component glyphName="circumflex" x="-171" y="338" flags="0x4"/>
    </TTGlyph>
    <TTGlyph name="Idieresis" xMin="-41" yMin="0" xMax="843" yMax="1833">
      <component glyphName="I" x="0" y="0" flags="0x204"/>
      <component glyphName="dieresis" x="-167" y="338" flags="0x4"/>
    </TTGlyph>
    <TTGlyph name="Idotaccent" xMin="-41" yMin="0" xMax="780" yMax="1845">
      <component glyphName="I" x="0" y="0" flags="0x204"/>
      <component glyphName="dotaccent" x="131" y="338" flags="0x4"/>
    </TTGlyph>
    <TTGlyph name="Igrave" xMin="-41" yMin="0" xMax="780" yMax="1907">
      <component glyphName="I" x="0" y="0" flags="0x204"/>
      <component glyphName="grave" x="-265" y="338" flags="0x4"/>
    </TTGlyph>
    <TTGlyph name="Imacron" xMin="-41" yMin="0" xMax="845" yMax="1724">
      <component glyphName="I" x="0" y="0" flags="0x204"/>
      <component glyphName="uni02C9" x="-140" y="338" flags="0x4"/>
    </TTGlyph>
    <TTGlyph name="Iogonek" xMin="-41" yMin="-444" xMax="780" yMax="1462">
      <component glyphName="I" x="0" y="0" flags="0x204"/>
      <component glyphName="ogonek" x="162" y="0" flags="0x4"/>
    </TTGlyph>
    <TTGlyph name="Iota" xMin="-41" yMin="0" xMax="780" yMax="1462">
      <component glyphName="I" x="0" y="0" flags="0x204"/>
    </TTGlyph>
    <TTGlyph name="Iotadieresis" xMin="-41" yMin="0" xMax="843" yMax="1833">
      <component glyphName="I" x="0" y="0" flags="0x204"/>
      <component glyphName="dieresis" x="-167" y="338" flags="0x4"/>
    </TTGlyph>
    <TTGlyph name="Iotatonos" xMin="89" yMin="0" xMax="1030" yMax="1546">
      <component glyphName="I" x="250" y="0" flags="0x4"/>
      <component glyphName="tonos" x="-527" y="-105" flags="0x4"/>
    </TTGlyph>
    <TTGlyph name="Itilde" xMin="-41" yMin="0" xMax="941" yMax="1843">
      <component glyphName="I" x="0" y="0" flags="0x204"/>
      <component glyphName="tilde" x="-138" y="338" flags="0x4"/>
    </TTGlyph>
    <TTGlyph name="J" xMin="-319" yMin="-389" xMax="578" yMax="1462">
      <contour>
        <pt x="-164" y="-389" on="1"/>
        <pt x="-269" y="-389" on="0"/>
        <pt x="-319" y="-365" on="1"/>
        <pt x="-313" y="-207" on="1"/>
        <pt x="-244" y="-227" on="0"/>
        <pt x="-168" y="-227" on="1"/>
        <pt x="36" y="-227" on="0"/>
        <pt x="88" y="18" on="1"/>
        <pt x="395" y="1462" on="1"/>
        <pt x="578" y="1462" on="1"/>
        <pt x="268" y="-2" on="1"/>
        <pt x="186" y="-389" on="0"/>
      </contour>
    </TTGlyph>
    <TTGlyph name="Jcircumflex" xMin="-319" yMin="-389" xMax="810" yMax="1907">
      <component glyphName="J" x="0" y="0" flags="0x204"/>
      <component glyphName="circumflex" x="-214" y="338" flags="0x4"/>
    </TTGlyph>
    <TTGlyph name="K" xMin="84" yMin="0" xMax="1333" yMax="1462">
      <contour>
        <pt x="1044" y="0" on="1"/>
        <pt x="844" y="0" on="1"/>
        <pt x="559" y="709" on="1"/>
        <pt x="389" y="584" on="1"/>
        <pt x="266" y="0" on="1"/>
        <pt x="84" y="0" on="1"/>
        <pt x="393" y="1462" on="1"/>
        <pt x="575" y="1462" on="1"/>
        <pt x="424" y="752" on="1"/>
        <pt x="551" y="887" on="1"/>
        <pt x="1112" y="1462" on="1"/>
        <pt x="1333" y="1462" on="1"/>
        <pt x="698" y="819" on="1"/>
      </contour>
    </TTGlyph>
    <TTGlyph name="Kappa" xMin="84" yMin="0" xMax="1333" yMax="1462">
      <component glyphName="K" x="0" y="0" flags="0x204"/>
    </TTGlyph>
    <TTGlyph name="Kcommaaccent" xMin="84" yMin="-453" xMax="1333" yMax="1462">
      <component glyphName="K" x="0" y="0" flags="0x204"/>
      <component glyphName="glyph00569" x="147" y="0" flags="0x4"/>
    </TTGlyph>
    <TTGlyph name="L" xMin="84" yMin="0" xMax="860" yMax="1462">
      <contour>
        <pt x="84" y="0" on="1"/>
        <pt x="393" y="1462" on="1"/>
        <pt x="575" y="1462" on="1"/>
        <pt x="299" y="164" on="1"/>
        <pt x="860" y="164" on="1"/>
        <pt x="825" y="0" on="1"/>
      </contour>
    </TTGlyph>
    <TTGlyph name="Lacute" xMin="84" yMin="0" xMax="868" yMax="1907">
      <component glyphName="L" x="0" y="0" flags="0x204"/>
      <component glyphName="acute" x="-95" y="338" flags="0x4"/>
    </TTGlyph>
    <TTGlyph name="Lambda" xMin="-117" yMin="0" xMax="1055" yMax="1460">
      <contour>
        <pt x="-117" y="0" on="1"/>
        <pt x="678" y="1460" on="1"/>
        <pt x="872" y="1460" on="1"/>
        <pt x="1055" y="0" on="1"/>
        <pt x="874" y="0" on="1"/>
        <pt x="766" y="926" on="1"/>
        <pt x="747" y="1102" on="0"/>
        <pt x="741" y="1268" on="1"/>
        <pt x="667" y="1096" on="0"/>
        <pt x="571" y="915" on="1"/>
        <pt x="84" y="0" on="1"/>
      </contour>
    </TTGlyph>
    <TTGlyph name="Lcaron" xMin="84" yMin="0" xMax="1072" yMax="1463">
      <component glyphName="L" x="0" y="0" flags="0x204"/>
      <component glyphName="glyph00568" x="238" y="-93" flags="0x4"/>
    </TTGlyph>
    <TTGlyph name="Lcommaaccent" xMin="84" yMin="-453" xMax="860" yMax="1462">
      <component glyphName="L" x="0" y="0" flags="0x204"/>
      <component glyphName="glyph00569" x="70" y="0" flags="0x4"/>
    </TTGlyph>
    <TTGlyph name="Ldot" xMin="84" yMin="0" xMax="899" yMax="1462">
      <component glyphName="L" x="0" y="0" flags="0x204"/>
      <component glyphName="dotaccent" x="360" y="-667" flags="0x4"/>
    </TTGlyph>
    <TTGlyph name="Lslash" xMin="20" yMin="0" xMax="860" yMax="1462">
      <contour>
        <pt x="82" y="0" on="1"/>
        <pt x="190" y="504" on="1"/>
        <pt x="84" y="442" on="1"/>
        <pt x="20" y="561" on="1"/>
        <pt x="225" y="678" on="1"/>
        <pt x="391" y="1462" on="1"/>
        <pt x="575" y="1462" on="1"/>
        <pt x="432" y="797" on="1"/>
        <pt x="662" y="926" on="1"/>
        <pt x="725" y="811" on="1"/>
        <pt x="397" y="623" on="1"/>
        <pt x="301" y="164" on="1"/>
        <pt x="860" y="164" on="1"/>
        <pt x="825" y="0" on="1"/>
      </contour>
    </TTGlyph>
    <TTGlyph name="M" xMin="82" yMin="0" xMax="1729" yMax="1462">
      <contour>
        <pt x="799" y="268" on="1"/>
        <pt x="1448" y="1462" on="1"/>
        <pt x="1729" y="1462" on="1"/>
        <pt x="1425" y="0" on="1"/>
        <pt x="1241" y="0" on="1"/>
        <pt x="1425" y="868" on="1"/>
        <pt x="1486" y="1152" on="0"/>
        <pt x="1524" y="1284" on="1"/>
        <pt x="1520" y="1284" on="1"/>
        <pt x="815" y="0" on="1"/>
        <pt x="670" y="0" on="1"/>
        <pt x="514" y="1282" on="1"/>
        <pt x="506" y="1282" on="1"/>
        <pt x="491" y="1127" on="0"/>
        <pt x="440" y="879" on="1"/>
        <pt x="254" y="0" on="1"/>
        <pt x="82" y="0" on="1"/>
        <pt x="391" y="1462" on="1"/>
        <pt x="649" y="1462" on="1"/>
        <pt x="791" y="268" on="1"/>
      </contour>
    </TTGlyph>
    <TTGlyph name="Mu" xMin="82" yMin="0" xMax="1729" yMax="1462">
      <component glyphName="M" x="0" y="0" flags="0x204"/>
    </TTGlyph>
    <TTGlyph name="N" xMin="82" yMin="0" xMax="1458" yMax="1462">
      <contour>
        <pt x="1149" y="0" on="1"/>
        <pt x="954" y="0" on="1"/>
        <pt x="502" y="1212" on="1"/>
        <pt x="496" y="1212" on="1"/>
        <pt x="475" y="1040" on="0"/>
        <pt x="422" y="795" on="1"/>
        <pt x="254" y="0" on="1"/>
        <pt x="82" y="0" on="1"/>
        <pt x="391" y="1462" on="1"/>
        <pt x="586" y="1462" on="1"/>
        <pt x="1034" y="254" on="1"/>
        <pt x="1040" y="254" on="1"/>
        <pt x="1053" y="347" on="0"/>
        <pt x="1097" y="595" on="0"/>
        <pt x="1112" y="657" on="1"/>
        <pt x="1284" y="1462" on="1"/>
        <pt x="1458" y="1462" on="1"/>
      </contour>
    </TTGlyph>
    <TTGlyph name="Nacute" xMin="82" yMin="0" xMax="1458" yMax="1907">
      <component glyphName="N" x="0" y="0" flags="0x204"/>
      <component glyphName="acute" x="305" y="338" flags="0x4"/>
    </TTGlyph>
    <TTGlyph name="Ncaron" xMin="82" yMin="0" xMax="1458" yMax="1907">
      <component glyphName="N" x="0" y="0" flags="0x204"/>
      <component glyphName="caron" x="209" y="338" flags="0x4"/>
    </TTGlyph>
    <TTGlyph name="Ncommaaccent" xMin="82" yMin="-453" xMax="1458" yMax="1462">
      <component glyphName="N" x="0" y="0" flags="0x204"/>
      <component glyphName="glyph00569" x="227" y="0" flags="0x4"/>
    </TTGlyph>
    <TTGlyph name="Ntilde" xMin="82" yMin="0" xMax="1458" yMax="1843">
      <component glyphName="N" x="0" y="0" flags="0x204"/>
      <component glyphName="tilde" x="262" y="338" flags="0x4"/>
    </TTGlyph>
    <TTGlyph name="Nu" xMin="82" yMin="0" xMax="1458" yMax="1462">
      <component glyphName="N" x="0" y="0" flags="0x204"/>
    </TTGlyph>
    <TTGlyph name="O" xMin="147" yMin="-20" xMax="1413" yMax="1485">
      <contour>
        <pt x="1413" y="909" on="1"/>
        <pt x="1413" y="634" on="0"/>
        <pt x="1231" y="207" on="0"/>
        <pt x="905" y="-20" on="0"/>
        <pt x="690" y="-20" on="1"/>
        <pt x="433" y="-20" on="0"/>
        <pt x="147" y="278" on="0"/>
        <pt x="147" y="547" on="1"/>
        <pt x="147" y="809" on="0"/>
        <pt x="338" y="1246" on="0"/>
        <pt x="674" y="1485" on="0"/>
        <pt x="887" y="1485" on="1"/>
        <pt x="1134" y="1485" on="0"/>
        <pt x="1413" y="1178" on="0"/>
      </contour>
      <contour>
        <pt x="874" y="1323" on="1"/>
        <pt x="720" y="1323" on="0"/>
        <pt x="476" y="1125" on="0"/>
        <pt x="342" y="768" on="0"/>
        <pt x="342" y="551" on="1"/>
        <pt x="342" y="356" on="0"/>
        <pt x="532" y="141" on="0"/>
        <pt x="696" y="141" on="1"/>
        <pt x="844" y="141" on="0"/>
        <pt x="1082" y="335" on="0"/>
        <pt x="1219" y="695" on="0"/>
        <pt x="1219" y="913" on="1"/>
        <pt x="1219" y="1105" on="0"/>
        <pt x="1036" y="1323" on="0"/>
      </contour>
    </TTGlyph>
    <TTGlyph name="OE" xMin="147" yMin="-20" xMax="1841" yMax="1485">
      <contour>
        <pt x="1532" y="0" on="1"/>
        <pt x="850" y="0" on="1"/>
        <pt x="768" y="-20" on="0"/>
        <pt x="690" y="-20" on="1"/>
        <pt x="433" y="-20" on="0"/>
        <pt x="147" y="278" on="0"/>
        <pt x="147" y="547" on="1"/>
        <pt x="147" y="809" on="0"/>
        <pt x="338" y="1246" on="0"/>
        <pt x="674" y="1485" on="0"/>
        <pt x="887" y="1485" on="1"/>
        <pt x="1037" y="1485" on="0"/>
        <pt x="1122" y="1462" on="1"/>
        <pt x="1841" y="1462" on="1"/>
        <pt x="1808" y="1300" on="1"/>
        <pt x="1247" y="1300" on="1"/>
        <pt x="1149" y="844" on="1"/>
        <pt x="1673" y="844" on="1"/>
        <pt x="1640" y="684" on="1"/>
        <pt x="1116" y="684" on="1"/>
        <pt x="1006" y="162" on="1"/>
        <pt x="1567" y="162" on="1"/>
      </contour>
      <contour>
        <pt x="696" y="141" on="1"/>
        <pt x="767" y="141" on="0"/>
        <pt x="821" y="160" on="1"/>
        <pt x="1063" y="1300" on="1"/>
        <pt x="985" y="1323" on="0"/>
        <pt x="874" y="1323" on="1"/>
        <pt x="720" y="1323" on="0"/>
        <pt x="476" y="1125" on="0"/>
        <pt x="342" y="768" on="0"/>
        <pt x="342" y="551" on="1"/>
        <pt x="342" y="356" on="0"/>
        <pt x="532" y="141" on="0"/>
      </contour>
    </TTGlyph>
    <TTGlyph name="Oacute" xMin="147" yMin="-20" xMax="1413" yMax="1907">
      <component glyphName="O" x="0" y="0" flags="0x204"/>
      <component glyphName="acute" x="287" y="338" flags="0x4"/>
    </TTGlyph>
    <TTGlyph name="Obreve" xMin="147" yMin="-20" xMax="1413" yMax="1854">
      <component glyphName="O" x="0" y="0" flags="0x204"/>
      <component glyphName="breve" x="166" y="338" flags="0x4"/>
    </TTGlyph>
    <TTGlyph name="Ocircumflex" xMin="147" yMin="-20" xMax="1413" yMax="1907">
      <component glyphName="O" x="0" y="0" flags="0x204"/>
      <component glyphName="circumflex" x="211" y="338" flags="0x4"/>
    </TTGlyph>
    <TTGlyph name="Odieresis" xMin="147" yMin="-20" xMax="1413" yMax="1833">
      <component glyphName="O" x="0" y="0" flags="0x204"/>
      <component glyphName="dieresis" x="205" y="338" flags="0x4"/>
    </TTGlyph>
    <TTGlyph name="Ograve" xMin="147" yMin="-20" xMax="1413" yMax="1907">
      <component glyphName="O" x="0" y="0" flags="0x204"/>
      <component glyphName="grave" x="106" y="338" flags="0x4"/>
    </TTGlyph>
    <TTGlyph name="Ohorn" xMin="147" yMin="-20" xMax="1710" yMax="1556">
      <contour>
        <pt x="1413" y="909" on="1"/>
        <pt x="1413" y="634" on="0"/>
        <pt x="1231" y="207" on="0"/>
        <pt x="905" y="-20" on="0"/>
        <pt x="690" y="-20" on="1"/>
        <pt x="433" y="-20" on="0"/>
        <pt x="147" y="278" on="0"/>
        <pt x="147" y="547" on="1"/>
        <pt x="147" y="809" on="0"/>
        <pt x="338" y="1246" on="0"/>
        <pt x="674" y="1485" on="0"/>
        <pt x="887" y="1485" on="1"/>
        <pt x="1036" y="1485" on="0"/>
        <pt x="1257" y="1373" on="0"/>
        <pt x="1323" y="1268" on="1"/>
        <pt x="1401" y="1299" on="0"/>
        <pt x="1486" y="1432" on="0"/>
        <pt x="1505" y="1556" on="1"/>
        <pt x="1702" y="1556" on="1"/>
        <pt x="1710" y="1534" on="1"/>
        <pt x="1676" y="1399" on="0"/>
        <pt x="1517" y="1222" on="0"/>
        <pt x="1370" y="1163" on="1"/>
        <pt x="1413" y="1045" on="0"/>
      </contour>
      <contour>
        <pt x="874" y="1323" on="1"/>
        <pt x="720" y="1323" on="0"/>
        <pt x="476" y="1125" on="0"/>
        <pt x="342" y="768" on="0"/>
        <pt x="342" y="551" on="1"/>
        <pt x="342" y="356" on="0"/>
        <pt x="532" y="141" on="0"/>
        <pt x="696" y="141" on="1"/>
        <pt x="844" y="141" on="0"/>
        <pt x="1082" y="335" on="0"/>
        <pt x="1219" y="695" on="0"/>
        <pt x="1219" y="913" on="1"/>
        <pt x="1219" y="1105" on="0"/>
        <pt x="1036" y="1323" on="0"/>
      </contour>
    </TTGlyph>
    <TTGlyph name="Ohungarumlaut" xMin="147" yMin="-20" xMax="1444" yMax="1907">
      <component glyphName="O" x="0" y="0" flags="0x204"/>
      <component glyphName="hungarumlaut" x="297" y="338" flags="0x4"/>
    </TTGlyph>
    <TTGlyph name="Omacron" xMin="147" yMin="-20" xMax="1413" yMax="1724">
      <component glyphName="O" x="0" y="0" flags="0x204"/>
      <component glyphName="uni02C9" x="231" y="338" flags="0x4"/>
    </TTGlyph>
    <TTGlyph name="Omega" xMin="-20" yMin="0" xMax="1423" yMax="1485">
      <contour>
        <pt x="866" y="1323" on="1"/>
        <pt x="714" y="1323" on="0"/>
        <pt x="482" y="1158" on="0"/>
        <pt x="356" y="864" on="0"/>
        <pt x="356" y="680" on="1"/>
        <pt x="356" y="511" on="0"/>
        <pt x="453" y="255" on="0"/>
        <pt x="565" y="143" on="1"/>
        <pt x="537" y="0" on="1"/>
        <pt x="-20" y="0" on="1"/>
        <pt x="12" y="162" on="1"/>
        <pt x="362" y="162" on="1"/>
        <pt x="162" y="362" on="0"/>
        <pt x="162" y="688" on="1"/>
        <pt x="162" y="913" on="0"/>
        <pt x="345" y="1283" on="0"/>
        <pt x="672" y="1485" on="0"/>
        <pt x="881" y="1485" on="1"/>
        <pt x="1137" y="1485" on="0"/>
        <pt x="1423" y="1183" on="0"/>
        <pt x="1423" y="922" on="1"/>
        <pt x="1423" y="689" on="0"/>
        <pt x="1199" y="297" on="0"/>
        <pt x="991" y="162" on="1"/>
        <pt x="1354" y="162" on="1"/>
        <pt x="1321" y="0" on="1"/>
        <pt x="715" y="0" on="1"/>
        <pt x="743" y="143" on="1"/>
        <pt x="983" y="286" on="0"/>
        <pt x="1229" y="683" on="0"/>
        <pt x="1229" y="924" on="1"/>
        <pt x="1229" y="1116" on="0"/>
        <pt x="1038" y="1323" on="0"/>
      </contour>
    </TTGlyph>
    <TTGlyph name="Omegatonos" xMin="84" yMin="0" xMax="1527" yMax="1546">
      <component glyphName="Omega" x="104" y="0" flags="0x4"/>
      <component glyphName="tonos" x="-513" y="-105" flags="0x4"/>
    </TTGlyph>
    <TTGlyph name="Omicron" xMin="147" yMin="-20" xMax="1413" yMax="1485">
      <component glyphName="O" x="0" y="0" flags="0x204"/>
    </TTGlyph>
    <TTGlyph name="Omicrontonos" xMin="87" yMin="-20" xMax="1493" yMax="1546">
      <component glyphName="O" x="80" y="0" flags="0x4"/>
      <component glyphName="tonos" x="-529" y="-105" flags="0x4"/>
    </TTGlyph>
    <TTGlyph name="Oslash" xMin="117" yMin="-84" xMax="1462" yMax="1540">
      <contour>
        <pt x="1413" y="909" on="1"/>
        <pt x="1413" y="634" on="0"/>
        <pt x="1231" y="207" on="0"/>
        <pt x="905" y="-20" on="0"/>
        <pt x="690" y="-20" on="1"/>
        <pt x="495" y="-20" on="0"/>
        <pt x="360" y="74" on="1"/>
        <pt x="233" y="-84" on="1"/>
        <pt x="117" y="10" on="1"/>
        <pt x="252" y="178" on="1"/>
        <pt x="147" y="318" on="0"/>
        <pt x="147" y="547" on="1"/>
        <pt x="147" y="809" on="0"/>
        <pt x="338" y="1246" on="0"/>
        <pt x="674" y="1485" on="0"/>
        <pt x="887" y="1485" on="1"/>
        <pt x="1077" y="1485" on="0"/>
        <pt x="1214" y="1378" on="1"/>
        <pt x="1343" y="1540" on="1"/>
        <pt x="1462" y="1446" on="1"/>
        <pt x="1315" y="1266" on="1"/>
        <pt x="1363" y="1203" on="0"/>
        <pt x="1413" y="1016" on="0"/>
      </contour>
      <contour>
        <pt x="874" y="1325" on="1"/>
        <pt x="722" y="1325" on="0"/>
        <pt x="476" y="1126" on="0"/>
        <pt x="340" y="768" on="0"/>
        <pt x="340" y="551" on="1"/>
        <pt x="340" y="424" on="0"/>
        <pt x="379" y="336" on="1"/>
        <pt x="1102" y="1241" on="1"/>
        <pt x="1010" y="1325" on="0"/>
      </contour>
      <contour>
        <pt x="1221" y="913" on="1"/>
        <pt x="1221" y="1022" on="0"/>
        <pt x="1190" y="1106" on="1"/>
        <pt x="469" y="211" on="1"/>
        <pt x="561" y="141" on="0"/>
        <pt x="696" y="141" on="1"/>
        <pt x="848" y="141" on="0"/>
        <pt x="1088" y="341" on="0"/>
        <pt x="1221" y="699" on="0"/>
      </contour>
    </TTGlyph>
    <TTGlyph name="Oslashacute" xMin="117" yMin="-84" xMax="1462" yMax="1907">
      <component glyphName="Oslash" x="0" y="0" flags="0x204"/>
      <component glyphName="acute" x="279" y="338" flags="0x4"/>
    </TTGlyph>
    <TTGlyph name="Otilde" xMin="147" yMin="-20" xMax="1413" yMax="1843">
      <component glyphName="O" x="0" y="0" flags="0x204"/>
      <component glyphName="tilde" x="227" y="338" flags="0x4"/>
    </TTGlyph>
    <TTGlyph name="P" xMin="84" yMin="0" xMax="1161" yMax="1462">
      <contour>
        <pt x="1161" y="1081" on="1"/>
        <pt x="1161" y="834" on="0"/>
        <pt x="833" y="571" on="0"/>
        <pt x="518" y="571" on="1"/>
        <pt x="387" y="571" on="1"/>
        <pt x="266" y="0" on="1"/>
        <pt x="84" y="0" on="1"/>
        <pt x="393" y="1462" on="1"/>
        <pt x="723" y="1462" on="1"/>
        <pt x="939" y="1462" on="0"/>
        <pt x="1161" y="1271" on="0"/>
      </contour>
      <contour>
        <pt x="420" y="725" on="1"/>
        <pt x="547" y="725" on="1"/>
        <pt x="756" y="725" on="0"/>
        <pt x="975" y="905" on="0"/>
        <pt x="975" y="1075" on="1"/>
        <pt x="975" y="1197" on="0"/>
        <pt x="839" y="1305" on="0"/>
        <pt x="698" y="1305" on="1"/>
        <pt x="543" y="1305" on="1"/>
      </contour>
    </TTGlyph>
    <TTGlyph name="Phi" xMin="147" yMin="-20" xMax="1475" yMax="1483">
      <contour>
        <pt x="553" y="-20" on="1"/>
        <pt x="602" y="205" on="1"/>
        <pt x="384" y="219" on="0"/>
        <pt x="147" y="457" on="0"/>
        <pt x="147" y="666" on="1"/>
        <pt x="147" y="858" on="0"/>
        <pt x="305" y="1138" on="0"/>
        <pt x="616" y="1296" on="0"/>
        <pt x="836" y="1303" on="1"/>
        <pt x="872" y="1483" on="1"/>
        <pt x="1059" y="1483" on="1"/>
        <pt x="1022" y="1303" on="1"/>
        <pt x="1237" y="1291" on="0"/>
        <pt x="1475" y="1054" on="0"/>
        <pt x="1475" y="852" on="1"/>
        <pt x="1475" y="664" on="0"/>
        <pt x="1304" y="368" on="0"/>
        <pt x="994" y="211" on="0"/>
        <pt x="788" y="205" on="1"/>
        <pt x="739" y="-20" on="1"/>
      </contour>
      <contour>
        <pt x="821" y="360" on="1"/>
        <pt x="1043" y="373" on="0"/>
        <pt x="1288" y="628" on="0"/>
        <pt x="1288" y="842" on="1"/>
        <pt x="1288" y="980" on="0"/>
        <pt x="1134" y="1139" on="0"/>
        <pt x="987" y="1145" on="1"/>
      </contour>
      <contour>
        <pt x="801" y="1145" on="1"/>
        <pt x="579" y="1143" on="0"/>
        <pt x="334" y="892" on="0"/>
        <pt x="334" y="676" on="1"/>
        <pt x="334" y="529" on="0"/>
        <pt x="490" y="365" on="0"/>
        <pt x="633" y="360" on="1"/>
      </contour>
    </TTGlyph>
    <TTGlyph name="Pi" xMin="84" yMin="0" xMax="1403" yMax="1462">
      <contour>
        <pt x="1094" y="0" on="1"/>
        <pt x="909" y="0" on="1"/>
        <pt x="1184" y="1300" on="1"/>
        <pt x="541" y="1300" on="1"/>
        <pt x="266" y="0" on="1"/>
        <pt x="84" y="0" on="1"/>
        <pt x="393" y="1462" on="1"/>
        <pt x="1403" y="1462" on="1"/>
      </contour>
    </TTGlyph>
    <TTGlyph name="Psi" xMin="197" yMin="0" xMax="1616" yMax="1462">
      <contour>
        <pt x="874" y="446" on="1"/>
        <pt x="838" y="446" on="1"/>
        <pt x="743" y="0" on="1"/>
        <pt x="559" y="0" on="1"/>
        <pt x="653" y="446" on="1"/>
        <pt x="639" y="446" on="1"/>
        <pt x="429" y="446" on="0"/>
        <pt x="197" y="656" on="0"/>
        <pt x="197" y="850" on="1"/>
        <pt x="197" y="941" on="0"/>
        <pt x="221" y="1055" on="1"/>
        <pt x="305" y="1462" on="1"/>
        <pt x="496" y="1462" on="1"/>
        <pt x="406" y="1034" on="1"/>
        <pt x="383" y="928" on="0"/>
        <pt x="383" y="858" on="1"/>
        <pt x="383" y="727" on="0"/>
        <pt x="522" y="602" on="0"/>
        <pt x="668" y="602" on="1"/>
        <pt x="684" y="602" on="1"/>
        <pt x="868" y="1462" on="1"/>
        <pt x="1053" y="1462" on="1"/>
        <pt x="870" y="602" on="1"/>
        <pt x="885" y="602" on="1"/>
        <pt x="1066" y="602" on="0"/>
        <pt x="1281" y="781" on="0"/>
        <pt x="1323" y="979" on="1"/>
        <pt x="1425" y="1462" on="1"/>
        <pt x="1616" y="1462" on="1"/>
        <pt x="1511" y="963" on="1"/>
        <pt x="1458" y="697" on="0"/>
        <pt x="1140" y="446" on="0"/>
      </contour>
    </TTGlyph>
    <TTGlyph name="Q" xMin="147" yMin="-348" xMax="1413" yMax="1485">
      <contour>
        <pt x="1413" y="909" on="1"/>
        <pt x="1413" y="580" on="0"/>
        <pt x="1139" y="93" on="0"/>
        <pt x="903" y="14" on="1"/>
        <pt x="1178" y="-348" on="1"/>
        <pt x="944" y="-348" on="1"/>
        <pt x="723" y="-18" on="1"/>
        <pt x="706" y="-20" on="1"/>
        <pt x="690" y="-20" on="1"/>
        <pt x="433" y="-20" on="0"/>
        <pt x="147" y="278" on="0"/>
        <pt x="147" y="547" on="1"/>
        <pt x="147" y="809" on="0"/>
        <pt x="338" y="1246" on="0"/>
        <pt x="674" y="1485" on="0"/>
        <pt x="887" y="1485" on="1"/>
        <pt x="1134" y="1485" on="0"/>
        <pt x="1413" y="1178" on="0"/>
      </contour>
      <contour>
        <pt x="874" y="1323" on="1"/>
        <pt x="720" y="1323" on="0"/>
        <pt x="476" y="1125" on="0"/>
        <pt x="342" y="768" on="0"/>
        <pt x="342" y="551" on="1"/>
        <pt x="342" y="356" on="0"/>
        <pt x="532" y="141" on="0"/>
        <pt x="696" y="141" on="1"/>
        <pt x="847" y="141" on="0"/>
        <pt x="1082" y="332" on="0"/>
        <pt x="1219" y="688" on="0"/>
        <pt x="1219" y="913" on="1"/>
        <pt x="1219" y="1105" on="0"/>
        <pt x="1036" y="1323" on="0"/>
      </contour>
    </TTGlyph>
    <TTGlyph name="R" xMin="84" yMin="0" xMax="1165" yMax="1462">
      <contour>
        <pt x="426" y="760" on="1"/>
        <pt x="586" y="760" on="1"/>
        <pt x="775" y="760" on="0"/>
        <pt x="977" y="926" on="0"/>
        <pt x="977" y="1079" on="1"/>
        <pt x="977" y="1196" on="0"/>
        <pt x="847" y="1303" on="0"/>
        <pt x="698" y="1303" on="1"/>
        <pt x="543" y="1303" on="1"/>
      </contour>
      <contour>
        <pt x="393" y="604" on="1"/>
        <pt x="266" y="0" on="1"/>
        <pt x="84" y="0" on="1"/>
        <pt x="393" y="1462" on="1"/>
        <pt x="715" y="1462" on="1"/>
        <pt x="1165" y="1462" on="0"/>
        <pt x="1165" y="1092" on="1"/>
        <pt x="1165" y="748" on="0"/>
        <pt x="801" y="645" on="1"/>
        <pt x="1042" y="0" on="1"/>
        <pt x="842" y="0" on="1"/>
        <pt x="633" y="604" on="1"/>
      </contour>
    </TTGlyph>
    <TTGlyph name="Racute" xMin="84" yMin="0" xMax="1165" yMax="1907">
      <component glyphName="R" x="0" y="0" flags="0x204"/>
      <component glyphName="acute" x="147" y="338" flags="0x4"/>
    </TTGlyph>
    <TTGlyph name="Rcaron" xMin="84" yMin="0" xMax="1165" yMax="1907">
      <component glyphName="R" x="0" y="0" flags="0x204"/>
      <component glyphName="caron" x="53" y="338" flags="0x4"/>
    </TTGlyph>
    <TTGlyph name="Rcommaaccent" xMin="84" yMin="-453" xMax="1165" yMax="1462">
      <component glyphName="R" x="0" y="0" flags="0x204"/>
      <component glyphName="glyph00569" x="160" y="0" flags="0x4"/>
    </TTGlyph>
    <TTGlyph name="Rho" xMin="84" yMin="0" xMax="1161" yMax="1462">
      <component glyphName="P" x="0" y="0" flags="0x204"/>
    </TTGlyph>
    <TTGlyph name="S" xMin="39" yMin="-20" xMax="1063" yMax="1483">
      <contour>
        <pt x="915" y="424" on="1"/>
        <pt x="915" y="215" on="0"/>
        <pt x="635" y="-20" on="0"/>
        <pt x="379" y="-20" on="1"/>
        <pt x="175" y="-20" on="0"/>
        <pt x="39" y="45" on="1"/>
        <pt x="39" y="225" on="1"/>
        <pt x="206" y="139" on="0"/>
        <pt x="381" y="139" on="1"/>
        <pt x="537" y="139" on="0"/>
        <pt x="723" y="283" on="0"/>
        <pt x="723" y="410" on="1"/>
        <pt x="723" y="486" on="0"/>
        <pt x="624" y="602" on="0"/>
        <pt x="481" y="684" on="1"/>
        <pt x="329" y="773" on="0"/>
        <pt x="215" y="945" on="0"/>
        <pt x="215" y="1059" on="1"/>
        <pt x="215" y="1184" on="0"/>
        <pt x="337" y="1377" on="0"/>
        <pt x="560" y="1483" on="0"/>
        <pt x="696" y="1483" on="1"/>
        <pt x="895" y="1483" on="0"/>
        <pt x="1063" y="1397" on="1"/>
        <pt x="993" y="1241" on="1"/>
        <pt x="929" y="1277" on="0"/>
        <pt x="769" y="1321" on="0"/>
        <pt x="696" y="1321" on="1"/>
        <pt x="567" y="1321" on="0"/>
        <pt x="410" y="1186" on="0"/>
        <pt x="410" y="1071" on="1"/>
        <pt x="410" y="993" on="0"/>
        <pt x="488" y="891" on="0"/>
        <pt x="618" y="815" on="1"/>
        <pt x="761" y="728" on="0"/>
        <pt x="863" y="627" on="0"/>
        <pt x="915" y="505" on="0"/>
      </contour>
    </TTGlyph>
    <TTGlyph name="SF010000" xMin="653" yMin="-492" xMax="1460" yMax="823">
      <contour>
        <pt x="653" y="823" on="1"/>
        <pt x="1460" y="823" on="1"/>
        <pt x="1460" y="678" on="1"/>
        <pt x="799" y="678" on="1"/>
        <pt x="799" y="-492" on="1"/>
        <pt x="653" y="-492" on="1"/>
      </contour>
    </TTGlyph>
    <TTGlyph name="SF020000" xMin="653" yMin="678" xMax="1460" yMax="1993">
      <contour>
        <pt x="653" y="1993" on="1"/>
        <pt x="799" y="1993" on="1"/>
        <pt x="799" y="823" on="1"/>
        <pt x="1460" y="823" on="1"/>
        <pt x="1460" y="678" on="1"/>
        <pt x="653" y="678" on="1"/>
      </contour>
    </TTGlyph>
    <TTGlyph name="SF030000" xMin="-10" yMin="-492" xMax="799" yMax="823">
      <contour>
        <pt x="-10" y="678" on="1"/>
        <pt x="-10" y="823" on="1"/>
        <pt x="799" y="823" on="1"/>
        <pt x="799" y="-492" on="1"/>
        <pt x="653" y="-492" on="1"/>
        <pt x="653" y="678" on="1"/>
      </contour>
    </TTGlyph>
    <TTGlyph name="SF040000" xMin="-10" yMin="678" xMax="799" yMax="1993">
      <contour>
        <pt x="-10" y="678" on="1"/>
        <pt x="-10" y="823" on="1"/>
        <pt x="653" y="823" on="1"/>
        <pt x="653" y="1993" on="1"/>
        <pt x="799" y="1993" on="1"/>
        <pt x="799" y="678" on="1"/>
      </contour>
    </TTGlyph>
    <TTGlyph name="SF050000" xMin="-10" yMin="-492" xMax="1460" yMax="1993">
      <contour>
        <pt x="-10" y="678" on="1"/>
        <pt x="-10" y="823" on="1"/>
        <pt x="653" y="823" on="1"/>
        <pt x="653" y="1993" on="1"/>
        <pt x="799" y="1993" on="1"/>
        <pt x="799" y="823" on="1"/>
        <pt x="1460" y="823" on="1"/>
        <pt x="1460" y="678" on="1"/>
        <pt x="799" y="678" on="1"/>
        <pt x="799" y="-492" on="1"/>
        <pt x="653" y="-492" on="1"/>
        <pt x="653" y="678" on="1"/>
      </contour>
    </TTGlyph>
    <TTGlyph name="SF060000" xMin="-10" yMin="-492" xMax="1460" yMax="823">
      <contour>
        <pt x="-10" y="678" on="1"/>
        <pt x="-10" y="823" on="1"/>
        <pt x="1460" y="823" on="1"/>
        <pt x="1460" y="678" on="1"/>
        <pt x="799" y="678" on="1"/>
        <pt x="799" y="-492" on="1"/>
        <pt x="653" y="-492" on="1"/>
        <pt x="653" y="678" on="1"/>
      </contour>
    </TTGlyph>
    <TTGlyph name="SF070000" xMin="-10" yMin="678" xMax="1460" yMax="1993">
      <contour>
        <pt x="-10" y="678" on="1"/>
        <pt x="-10" y="823" on="1"/>
        <pt x="653" y="823" on="1"/>
        <pt x="653" y="1993" on="1"/>
        <pt x="799" y="1993" on="1"/>
        <pt x="799" y="823" on="1"/>
        <pt x="1460" y="823" on="1"/>
        <pt x="1460" y="678" on="1"/>
      </contour>
    </TTGlyph>
    <TTGlyph name="SF080000" xMin="653" yMin="-492" xMax="1460" yMax="1993">
      <contour>
        <pt x="653" y="1993" on="1"/>
        <pt x="799" y="1993" on="1"/>
        <pt x="799" y="823" on="1"/>
        <pt x="1460" y="823" on="1"/>
        <pt x="1460" y="678" on="1"/>
        <pt x="799" y="678" on="1"/>
        <pt x="799" y="-492" on="1"/>
        <pt x="653" y="-492" on="1"/>
      </contour>
    </TTGlyph>
    <TTGlyph name="SF090000" xMin="-10" yMin="-492" xMax="799" yMax="1993">
      <contour>
        <pt x="-10" y="678" on="1"/>
        <pt x="-10" y="823" on="1"/>
        <pt x="653" y="823" on="1"/>
        <pt x="653" y="1993" on="1"/>
        <pt x="799" y="1993" on="1"/>
        <pt x="799" y="-492" on="1"/>
        <pt x="653" y="-492" on="1"/>
        <pt x="653" y="678" on="1"/>
      </contour>
    </TTGlyph>
    <TTGlyph name="SF100000" xMin="-10" yMin="678" xMax="1460" yMax="823">
      <contour>
        <pt x="-10" y="678" on="1"/>
        <pt x="-10" y="823" on="1"/>
        <pt x="1460" y="823" on="1"/>
        <pt x="1460" y="678" on="1"/>
      </contour>
    </TTGlyph>
    <TTGlyph name="SF110000" xMin="471" yMin="-492" xMax="616" yMax="1993">
      <contour>
        <pt x="471" y="1993" on="1"/>
        <pt x="616" y="1993" on="1"/>
        <pt x="616" y="-492" on="1"/>
        <pt x="471" y="-492" on="1"/>
      </contour>
    </TTGlyph>
    <TTGlyph name="SF190000" xMin="-10" yMin="-492" xMax="799" yMax="1993">
      <contour>
        <pt x="-10" y="498" on="1"/>
        <pt x="-10" y="643" on="1"/>
        <pt x="653" y="643" on="1"/>
        <pt x="653" y="858" on="1"/>
        <pt x="-10" y="858" on="1"/>
        <pt x="-10" y="1004" on="1"/>
        <pt x="653" y="1004" on="1"/>
        <pt x="653" y="1993" on="1"/>
        <pt x="799" y="1993" on="1"/>
        <pt x="799" y="-492" on="1"/>
        <pt x="653" y="-492" on="1"/>
        <pt x="653" y="498" on="1"/>
      </contour>
    </TTGlyph>
    <TTGlyph name="SF200000" xMin="-10" yMin="-492" xMax="979" yMax="1993">
      <contour>
        <pt x="-10" y="678" on="1"/>
        <pt x="-10" y="823" on="1"/>
        <pt x="473" y="823" on="1"/>
        <pt x="473" y="1993" on="1"/>
        <pt x="618" y="1993" on="1"/>
        <pt x="618" y="-492" on="1"/>
        <pt x="473" y="-492" on="1"/>
        <pt x="473" y="678" on="1"/>
      </contour>
      <contour>
        <pt x="834" y="1993" on="1"/>
        <pt x="979" y="1993" on="1"/>
        <pt x="979" y="-492" on="1"/>
        <pt x="834" y="-492" on="1"/>
      </contour>
    </TTGlyph>
    <TTGlyph name="SF210000" xMin="-10" yMin="-492" xMax="979" yMax="823">
      <contour>
        <pt x="-10" y="678" on="1"/>
        <pt x="-10" y="823" on="1"/>
        <pt x="979" y="823" on="1"/>
        <pt x="979" y="-492" on="1"/>
        <pt x="834" y="-492" on="1"/>
        <pt x="834" y="678" on="1"/>
        <pt x="618" y="678" on="1"/>
        <pt x="618" y="-492" on="1"/>
        <pt x="473" y="-492" on="1"/>
        <pt x="473" y="678" on="1"/>
      </contour>
    </TTGlyph>
    <TTGlyph name="SF220000" xMin="-10" yMin="-492" xMax="799" yMax="1004">
      <contour>
        <pt x="-10" y="498" on="1"/>
        <pt x="-10" y="643" on="1"/>
        <pt x="653" y="643" on="1"/>
        <pt x="653" y="858" on="1"/>
        <pt x="-10" y="858" on="1"/>
        <pt x="-10" y="1004" on="1"/>
        <pt x="799" y="1004" on="1"/>
        <pt x="799" y="-492" on="1"/>
        <pt x="653" y="-492" on="1"/>
        <pt x="653" y="498" on="1"/>
      </contour>
    </TTGlyph>
    <TTGlyph name="SF230000" xMin="-10" yMin="-492" xMax="979" yMax="1993">
      <contour>
        <pt x="834" y="1993" on="1"/>
        <pt x="979" y="1993" on="1"/>
        <pt x="979" y="-492" on="1"/>
        <pt x="834" y="-492" on="1"/>
      </contour>
      <contour>
        <pt x="473" y="1993" on="1"/>
        <pt x="618" y="1993" on="1"/>
        <pt x="618" y="858" on="1"/>
        <pt x="-10" y="858" on="1"/>
        <pt x="-10" y="1004" on="1"/>
        <pt x="473" y="1004" on="1"/>
      </contour>
      <contour>
        <pt x="618" y="-492" on="1"/>
        <pt x="473" y="-492" on="1"/>
        <pt x="473" y="498" on="1"/>
        <pt x="-10" y="498" on="1"/>
        <pt x="-10" y="643" on="1"/>
        <pt x="618" y="643" on="1"/>
      </contour>
    </TTGlyph>
    <TTGlyph name="SF240000" xMin="473" yMin="-492" xMax="979" yMax="1993">
      <contour>
        <pt x="473" y="1993" on="1"/>
        <pt x="618" y="1993" on="1"/>
        <pt x="618" y="-492" on="1"/>
        <pt x="473" y="-492" on="1"/>
      </contour>
      <contour>
        <pt x="834" y="1993" on="1"/>
        <pt x="979" y="1993" on="1"/>
        <pt x="979" y="-492" on="1"/>
        <pt x="834" y="-492" on="1"/>
      </contour>
    </TTGlyph>
    <TTGlyph name="SF250000" xMin="-10" yMin="-492" xMax="979" yMax="1004">
      <contour>
        <pt x="979" y="1004" on="1"/>
        <pt x="979" y="-492" on="1"/>
        <pt x="834" y="-492" on="1"/>
        <pt x="834" y="858" on="1"/>
        <pt x="-10" y="858" on="1"/>
        <pt x="-10" y="1004" on="1"/>
      </contour>
      <contour>
        <pt x="618" y="-492" on="1"/>
        <pt x="473" y="-492" on="1"/>
        <pt x="473" y="498" on="1"/>
        <pt x="-10" y="498" on="1"/>
        <pt x="-10" y="643" on="1"/>
        <pt x="618" y="643" on="1"/>
      </contour>
    </TTGlyph>
    <TTGlyph name="SF260000" xMin="-10" yMin="498" xMax="979" yMax="1993">
      <contour>
        <pt x="979" y="498" on="1"/>
        <pt x="-10" y="498" on="1"/>
        <pt x="-10" y="643" on="1"/>
        <pt x="834" y="643" on="1"/>
        <pt x="834" y="1993" on="1"/>
        <pt x="979" y="1993" on="1"/>
      </contour>
      <contour>
        <pt x="473" y="1993" on="1"/>
        <pt x="618" y="1993" on="1"/>
        <pt x="618" y="858" on="1"/>
        <pt x="-10" y="858" on="1"/>
        <pt x="-10" y="1004" on="1"/>
        <pt x="473" y="1004" on="1"/>
      </contour>
    </TTGlyph>
    <TTGlyph name="SF270000" xMin="-10" yMin="678" xMax="979" yMax="1993">
      <contour>
        <pt x="979" y="678" on="1"/>
        <pt x="-10" y="678" on="1"/>
        <pt x="-10" y="823" on="1"/>
        <pt x="473" y="823" on="1"/>
        <pt x="473" y="1993" on="1"/>
        <pt x="618" y="1993" on="1"/>
        <pt x="618" y="823" on="1"/>
        <pt x="834" y="823" on="1"/>
        <pt x="834" y="1993" on="1"/>
        <pt x="979" y="1993" on="1"/>
      </contour>
    </TTGlyph>
    <TTGlyph name="SF280000" xMin="-10" yMin="498" xMax="799" yMax="1993">
      <contour>
        <pt x="-10" y="498" on="1"/>
        <pt x="-10" y="643" on="1"/>
        <pt x="653" y="643" on="1"/>
        <pt x="653" y="858" on="1"/>
        <pt x="-10" y="858" on="1"/>
        <pt x="-10" y="1004" on="1"/>
        <pt x="653" y="1004" on="1"/>
        <pt x="653" y="1993" on="1"/>
        <pt x="799" y="1993" on="1"/>
        <pt x="799" y="498" on="1"/>
      </contour>
    </TTGlyph>
    <TTGlyph name="SF360000" xMin="653" yMin="-492" xMax="1460" yMax="1993">
      <contour>
        <pt x="653" y="1993" on="1"/>
        <pt x="799" y="1993" on="1"/>
        <pt x="799" y="1004" on="1"/>
        <pt x="1460" y="1004" on="1"/>
        <pt x="1460" y="858" on="1"/>
        <pt x="799" y="858" on="1"/>
        <pt x="799" y="643" on="1"/>
        <pt x="1460" y="643" on="1"/>
        <pt x="1460" y="498" on="1"/>
        <pt x="799" y="498" on="1"/>
        <pt x="799" y="-492" on="1"/>
        <pt x="653" y="-492" on="1"/>
      </contour>
    </TTGlyph>
    <TTGlyph name="SF370000" xMin="473" yMin="-492" xMax="1460" yMax="1993">
      <contour>
        <pt x="834" y="1993" on="1"/>
        <pt x="979" y="1993" on="1"/>
        <pt x="979" y="823" on="1"/>
        <pt x="1460" y="823" on="1"/>
        <pt x="1460" y="678" on="1"/>
        <pt x="979" y="678" on="1"/>
        <pt x="979" y="-492" on="1"/>
        <pt x="834" y="-492" on="1"/>
      </contour>
      <contour>
        <pt x="473" y="1993" on="1"/>
        <pt x="618" y="1993" on="1"/>
        <pt x="618" y="-492" on="1"/>
        <pt x="473" y="-492" on="1"/>
      </contour>
    </TTGlyph>
    <TTGlyph name="SF380000" xMin="473" yMin="498" xMax="1460" yMax="1993">
      <contour>
        <pt x="473" y="1993" on="1"/>
        <pt x="618" y="1993" on="1"/>
        <pt x="618" y="643" on="1"/>
        <pt x="1460" y="643" on="1"/>
        <pt x="1460" y="498" on="1"/>
        <pt x="473" y="498" on="1"/>
      </contour>
      <contour>
        <pt x="834" y="1993" on="1"/>
        <pt x="979" y="1993" on="1"/>
        <pt x="979" y="1004" on="1"/>
        <pt x="1460" y="1004" on="1"/>
        <pt x="1460" y="858" on="1"/>
        <pt x="834" y="858" on="1"/>
      </contour>
    </TTGlyph>
    <TTGlyph name="SF390000" xMin="473" yMin="-492" xMax="1460" yMax="1004">
      <contour>
        <pt x="473" y="1004" on="1"/>
        <pt x="1460" y="1004" on="1"/>
        <pt x="1460" y="858" on="1"/>
        <pt x="618" y="858" on="1"/>
        <pt x="618" y="-492" on="1"/>
        <pt x="473" y="-492" on="1"/>
      </contour>
      <contour>
        <pt x="834" y="643" on="1"/>
        <pt x="1460" y="643" on="1"/>
        <pt x="1460" y="498" on="1"/>
        <pt x="979" y="498" on="1"/>
        <pt x="979" y="-492" on="1"/>
        <pt x="834" y="-492" on="1"/>
      </contour>
    </TTGlyph>
    <TTGlyph name="SF400000" xMin="-10" yMin="498" xMax="1460" yMax="1993">
      <contour>
        <pt x="834" y="1993" on="1"/>
        <pt x="979" y="1993" on="1"/>
        <pt x="979" y="1004" on="1"/>
        <pt x="1460" y="1004" on="1"/>
        <pt x="1460" y="858" on="1"/>
        <pt x="834" y="858" on="1"/>
      </contour>
      <contour>
        <pt x="473" y="1993" on="1"/>
        <pt x="618" y="1993" on="1"/>
        <pt x="618" y="858" on="1"/>
        <pt x="-10" y="858" on="1"/>
        <pt x="-10" y="1004" on="1"/>
        <pt x="473" y="1004" on="1"/>
      </contour>
      <contour>
        <pt x="-10" y="498" on="1"/>
        <pt x="-10" y="643" on="1"/>
        <pt x="1460" y="643" on="1"/>
        <pt x="1460" y="498" on="1"/>
      </contour>
    </TTGlyph>
    <TTGlyph name="SF410000" xMin="-10" yMin="-492" xMax="1460" yMax="1004">
      <contour>
        <pt x="618" y="-492" on="1"/>
        <pt x="473" y="-492" on="1"/>
        <pt x="473" y="498" on="1"/>
        <pt x="-10" y="498" on="1"/>
        <pt x="-10" y="643" on="1"/>
        <pt x="618" y="643" on="1"/>
      </contour>
      <contour>
        <pt x="834" y="643" on="1"/>
        <pt x="1460" y="643" on="1"/>
        <pt x="1460" y="498" on="1"/>
        <pt x="979" y="498" on="1"/>
        <pt x="979" y="-492" on="1"/>
        <pt x="834" y="-492" on="1"/>
      </contour>
      <contour>
        <pt x="1460" y="1004" on="1"/>
        <pt x="1460" y="858" on="1"/>
        <pt x="-10" y="858" on="1"/>
        <pt x="-10" y="1004" on="1"/>
      </contour>
    </TTGlyph>
    <TTGlyph name="SF420000" xMin="473" yMin="-492" xMax="1460" yMax="1993">
      <contour>
        <pt x="618" y="-492" on="1"/>
        <pt x="473" y="-492" on="1"/>
        <pt x="473" y="1993" on="1"/>
        <pt x="618" y="1993" on="1"/>
      </contour>
      <contour>
        <pt x="834" y="643" on="1"/>
        <pt x="1460" y="643" on="1"/>
        <pt x="1460" y="498" on="1"/>
        <pt x="979" y="498" on="1"/>
        <pt x="979" y="-492" on="1"/>
        <pt x="834" y="-492" on="1"/>
      </contour>
      <contour>
        <pt x="834" y="1993" on="1"/>
        <pt x="979" y="1993" on="1"/>
        <pt x="979" y="1004" on="1"/>
        <pt x="1460" y="1004" on="1"/>
        <pt x="1460" y="858" on="1"/>
        <pt x="834" y="858" on="1"/>
      </contour>
    </TTGlyph>
    <TTGlyph name="SF430000" xMin="-10" yMin="498" xMax="1460" yMax="1004">
      <contour>
        <pt x="-10" y="858" on="1"/>
        <pt x="-10" y="1004" on="1"/>
        <pt x="1460" y="1004" on="1"/>
        <pt x="1460" y="858" on="1"/>
      </contour>
      <contour>
        <pt x="-10" y="498" on="1"/>
        <pt x="-10" y="643" on="1"/>
        <pt x="1460" y="643" on="1"/>
        <pt x="1460" y="498" on="1"/>
      </contour>
    </TTGlyph>
    <TTGlyph name="SF440000" xMin="-10" yMin="-492" xMax="1460" yMax="1993">
      <contour>
        <pt x="834" y="1993" on="1"/>
        <pt x="979" y="1993" on="1"/>
        <pt x="979" y="1004" on="1"/>
        <pt x="1460" y="1004" on="1"/>
        <pt x="1460" y="858" on="1"/>
        <pt x="834" y="858" on="1"/>
      </contour>
      <contour>
        <pt x="618" y="-492" on="1"/>
        <pt x="473" y="-492" on="1"/>
        <pt x="473" y="498" on="1"/>
        <pt x="-10" y="498" on="1"/>
        <pt x="-10" y="643" on="1"/>
        <pt x="618" y="643" on="1"/>
      </contour>
      <contour>
        <pt x="834" y="643" on="1"/>
        <pt x="1460" y="643" on="1"/>
        <pt x="1460" y="498" on="1"/>
        <pt x="979" y="498" on="1"/>
        <pt x="979" y="-492" on="1"/>
        <pt x="834" y="-492" on="1"/>
      </contour>
      <contour>
        <pt x="473" y="1993" on="1"/>
        <pt x="618" y="1993" on="1"/>
        <pt x="618" y="858" on="1"/>
        <pt x="-10" y="858" on="1"/>
        <pt x="-10" y="1004" on="1"/>
        <pt x="473" y="1004" on="1"/>
      </contour>
    </TTGlyph>
    <TTGlyph name="SF450000" xMin="-10" yMin="498" xMax="1460" yMax="1993">
      <contour>
        <pt x="-10" y="858" on="1"/>
        <pt x="-10" y="1004" on="1"/>
        <pt x="653" y="1004" on="1"/>
        <pt x="653" y="1993" on="1"/>
        <pt x="799" y="1993" on="1"/>
        <pt x="799" y="1004" on="1"/>
        <pt x="1460" y="1004" on="1"/>
        <pt x="1460" y="858" on="1"/>
      </contour>
      <contour>
        <pt x="-10" y="498" on="1"/>
        <pt x="-10" y="643" on="1"/>
        <pt x="1460" y="643" on="1"/>
        <pt x="1460" y="498" on="1"/>
      </contour>
    </TTGlyph>
    <TTGlyph name="SF460000" xMin="-10" yMin="678" xMax="1460" yMax="1993">
      <contour>
        <pt x="-10" y="678" on="1"/>
        <pt x="-10" y="823" on="1"/>
        <pt x="473" y="823" on="1"/>
        <pt x="473" y="1993" on="1"/>
        <pt x="618" y="1993" on="1"/>
        <pt x="618" y="823" on="1"/>
        <pt x="834" y="823" on="1"/>
        <pt x="834" y="1993" on="1"/>
        <pt x="979" y="1993" on="1"/>
        <pt x="979" y="823" on="1"/>
        <pt x="1460" y="823" on="1"/>
        <pt x="1460" y="678" on="1"/>
      </contour>
    </TTGlyph>
    <TTGlyph name="SF470000" xMin="-10" yMin="-492" xMax="1460" yMax="1004">
      <contour>
        <pt x="-10" y="498" on="1"/>
        <pt x="-10" y="643" on="1"/>
        <pt x="1460" y="643" on="1"/>
        <pt x="1460" y="498" on="1"/>
        <pt x="799" y="498" on="1"/>
        <pt x="799" y="-492" on="1"/>
        <pt x="653" y="-492" on="1"/>
        <pt x="653" y="498" on="1"/>
      </contour>
      <contour>
        <pt x="-10" y="858" on="1"/>
        <pt x="-10" y="1004" on="1"/>
        <pt x="1460" y="1004" on="1"/>
        <pt x="1460" y="858" on="1"/>
      </contour>
    </TTGlyph>
    <TTGlyph name="SF480000" xMin="-10" yMin="-492" xMax="1460" yMax="823">
      <contour>
        <pt x="-10" y="678" on="1"/>
        <pt x="-10" y="823" on="1"/>
        <pt x="1460" y="823" on="1"/>
        <pt x="1460" y="678" on="1"/>
        <pt x="979" y="678" on="1"/>
        <pt x="979" y="-492" on="1"/>
        <pt x="834" y="-492" on="1"/>
        <pt x="834" y="678" on="1"/>
        <pt x="618" y="678" on="1"/>
        <pt x="618" y="-492" on="1"/>
        <pt x="473" y="-492" on="1"/>
        <pt x="473" y="678" on="1"/>
      </contour>
    </TTGlyph>
    <TTGlyph name="SF490000" xMin="473" yMin="678" xMax="1460" yMax="1993">
      <contour>
        <pt x="834" y="1993" on="1"/>
        <pt x="979" y="1993" on="1"/>
        <pt x="979" y="823" on="1"/>
        <pt x="1460" y="823" on="1"/>
        <pt x="1460" y="678" on="1"/>
        <pt x="473" y="678" on="1"/>
        <pt x="473" y="1993" on="1"/>
        <pt x="618" y="1993" on="1"/>
        <pt x="618" y="823" on="1"/>
        <pt x="834" y="823" on="1"/>
      </contour>
    </TTGlyph>
    <TTGlyph name="SF500000" xMin="653" yMin="498" xMax="1460" yMax="1993">
      <contour>
        <pt x="653" y="1993" on="1"/>
        <pt x="799" y="1993" on="1"/>
        <pt x="799" y="1004" on="1"/>
        <pt x="1460" y="1004" on="1"/>
        <pt x="1460" y="858" on="1"/>
        <pt x="799" y="858" on="1"/>
        <pt x="799" y="643" on="1"/>
        <pt x="1460" y="643" on="1"/>
        <pt x="1460" y="498" on="1"/>
        <pt x="653" y="498" on="1"/>
      </contour>
    </TTGlyph>
    <TTGlyph name="SF510000" xMin="653" yMin="-492" xMax="1460" yMax="1004">
      <contour>
        <pt x="653" y="1004" on="1"/>
        <pt x="1460" y="1004" on="1"/>
        <pt x="1460" y="858" on="1"/>
        <pt x="799" y="858" on="1"/>
        <pt x="799" y="643" on="1"/>
        <pt x="1460" y="643" on="1"/>
        <pt x="1460" y="498" on="1"/>
        <pt x="799" y="498" on="1"/>
        <pt x="799" y="-492" on="1"/>
        <pt x="653" y="-492" on="1"/>
      </contour>
    </TTGlyph>
    <TTGlyph name="SF520000" xMin="473" yMin="-492" xMax="1460" yMax="823">
      <contour>
        <pt x="1460" y="823" on="1"/>
        <pt x="1460" y="678" on="1"/>
        <pt x="979" y="678" on="1"/>
        <pt x="979" y="-492" on="1"/>
        <pt x="834" y="-492" on="1"/>
        <pt x="834" y="678" on="1"/>
        <pt x="618" y="678" on="1"/>
        <pt x="618" y="-492" on="1"/>
        <pt x="473" y="-492" on="1"/>
        <pt x="473" y="823" on="1"/>
      </contour>
    </TTGlyph>
    <TTGlyph name="SF530000" xMin="-10" yMin="-492" xMax="1460" yMax="1993">
      <contour>
        <pt x="834" y="1993" on="1"/>
        <pt x="979" y="1993" on="1"/>
        <pt x="979" y="823" on="1"/>
        <pt x="1460" y="823" on="1"/>
        <pt x="1460" y="678" on="1"/>
        <pt x="979" y="678" on="1"/>
        <pt x="979" y="-492" on="1"/>
        <pt x="834" y="-492" on="1"/>
        <pt x="834" y="678" on="1"/>
        <pt x="618" y="678" on="1"/>
        <pt x="618" y="-492" on="1"/>
        <pt x="473" y="-492" on="1"/>
        <pt x="473" y="678" on="1"/>
        <pt x="-10" y="678" on="1"/>
        <pt x="-10" y="823" on="1"/>
        <pt x="473" y="823" on="1"/>
        <pt x="473" y="1993" on="1"/>
        <pt x="618" y="1993" on="1"/>
        <pt x="618" y="823" on="1"/>
        <pt x="834" y="823" on="1"/>
      </contour>
    </TTGlyph>
    <TTGlyph name="SF540000" xMin="-10" yMin="-492" xMax="1460" yMax="1993">
      <contour>
        <pt x="-10" y="498" on="1"/>
        <pt x="-10" y="643" on="1"/>
        <pt x="653" y="643" on="1"/>
        <pt x="653" y="858" on="1"/>
        <pt x="-10" y="858" on="1"/>
        <pt x="-10" y="1004" on="1"/>
        <pt x="653" y="1004" on="1"/>
        <pt x="653" y="1993" on="1"/>
        <pt x="799" y="1993" on="1"/>
        <pt x="799" y="1004" on="1"/>
        <pt x="1460" y="1004" on="1"/>
        <pt x="1460" y="858" on="1"/>
        <pt x="799" y="858" on="1"/>
        <pt x="799" y="643" on="1"/>
        <pt x="1460" y="643" on="1"/>
        <pt x="1460" y="498" on="1"/>
        <pt x="799" y="498" on="1"/>
        <pt x="799" y="-492" on="1"/>
        <pt x="653" y="-492" on="1"/>
        <pt x="653" y="498" on="1"/>
      </contour>
    </TTGlyph>
    <TTGlyph name="Sacute" xMin="39" yMin="-20" xMax="1072" yMax="1907">
      <component glyphName="S" x="0" y="0" flags="0x204"/>
      <component glyphName="acute" x="109" y="338" flags="0x4"/>
    </TTGlyph>
    <TTGlyph name="Scaron" xMin="39" yMin="-20" xMax="1063" yMax="1907">
      <component glyphName="S" x="0" y="0" flags="0x204"/>
      <component glyphName="caron" x="-44" y="338" flags="0x4"/>
    </TTGlyph>
    <TTGlyph name="Scedilla" xMin="39" yMin="-492" xMax="1063" yMax="1483">
      <component glyphName="S" x="0" y="0" flags="0x204"/>
      <component glyphName="cedilla" x="328" y="0" flags="0x4"/>
    </TTGlyph>
    <TTGlyph name="Scircumflex" xMin="39" yMin="-20" xMax="1063" yMax="1907">
      <component glyphName="S" x="0" y="0" flags="0x204"/>
      <component glyphName="circumflex" x="0" y="338" flags="0x4"/>
    </TTGlyph>
    <TTGlyph name="Scommaaccent" xMin="39" yMin="-453" xMax="1063" yMax="1483">
      <component glyphName="S" x="0" y="0" flags="0x204"/>
      <component glyphName="glyph00569" x="27" y="0" flags="0x4"/>
    </TTGlyph>
    <TTGlyph name="Sigma" xMin="-31" yMin="0" xMax="1153" yMax="1462">
      <contour>
        <pt x="-31" y="0" on="1"/>
        <pt x="-2" y="150" on="1"/>
        <pt x="532" y="756" on="1"/>
        <pt x="258" y="1317" on="1"/>
        <pt x="287" y="1462" on="1"/>
        <pt x="1153" y="1462" on="1"/>
        <pt x="1118" y="1300" on="1"/>
        <pt x="455" y="1300" on="1"/>
        <pt x="725" y="741" on="1"/>
        <pt x="215" y="162" on="1"/>
        <pt x="936" y="162" on="1"/>
        <pt x="901" y="0" on="1"/>
      </contour>
    </TTGlyph>
    <TTGlyph name="T" xMin="184" yMin="0" xMax="1206" yMax="1462">
      <contour>
        <pt x="496" y="0" on="1"/>
        <pt x="311" y="0" on="1"/>
        <pt x="586" y="1300" on="1"/>
        <pt x="184" y="1300" on="1"/>
        <pt x="219" y="1462" on="1"/>
        <pt x="1206" y="1462" on="1"/>
        <pt x="1174" y="1300" on="1"/>
        <pt x="772" y="1300" on="1"/>
      </contour>
    </TTGlyph>
    <TTGlyph name="Tau" xMin="184" yMin="0" xMax="1206" yMax="1462">
      <component glyphName="T" x="0" y="0" flags="0x204"/>
    </TTGlyph>
    <TTGlyph name="Tbar" xMin="170" yMin="0" xMax="1206" yMax="1462">
      <contour>
        <pt x="668" y="819" on="1"/>
        <pt x="956" y="819" on="1"/>
        <pt x="926" y="670" on="1"/>
        <pt x="637" y="670" on="1"/>
        <pt x="496" y="0" on="1"/>
        <pt x="311" y="0" on="1"/>
        <pt x="453" y="670" on="1"/>
        <pt x="170" y="670" on="1"/>
        <pt x="203" y="819" on="1"/>
        <pt x="481" y="819" on="1"/>
        <pt x="586" y="1300" on="1"/>
        <pt x="184" y="1300" on="1"/>
        <pt x="219" y="1462" on="1"/>
        <pt x="1206" y="1462" on="1"/>
        <pt x="1174" y="1300" on="1"/>
        <pt x="772" y="1300" on="1"/>
      </contour>
    </TTGlyph>
    <TTGlyph name="Tcaron" xMin="184" yMin="0" xMax="1206" yMax="1907">
      <component glyphName="T" x="0" y="0" flags="0x204"/>
      <component glyphName="caron" x="4" y="338" flags="0x4"/>
    </TTGlyph>
    <TTGlyph name="Tcommaaccent" xMin="148" yMin="-492" xMax="1206" yMax="1462">
      <component glyphName="T" x="0" y="0" flags="0x204"/>
      <component glyphName="cedilla" x="322" y="0" flags="0x4"/>
    </TTGlyph>
    <TTGlyph name="Theta" xMin="147" yMin="-20" xMax="1415" yMax="1485">
      <contour>
        <pt x="1055" y="823" on="1"/>
        <pt x="1022" y="666" on="1"/>
        <pt x="498" y="666" on="1"/>
        <pt x="530" y="823" on="1"/>
      </contour>
      <contour>
        <pt x="1415" y="907" on="1"/>
        <pt x="1415" y="637" on="0"/>
        <pt x="1239" y="214" on="0"/>
        <pt x="910" y="-20" on="0"/>
        <pt x="692" y="-20" on="1"/>
        <pt x="435" y="-20" on="0"/>
        <pt x="147" y="279" on="0"/>
        <pt x="147" y="549" on="1"/>
        <pt x="147" y="812" on="0"/>
        <pt x="338" y="1246" on="0"/>
        <pt x="675" y="1485" on="0"/>
        <pt x="889" y="1485" on="1"/>
        <pt x="1135" y="1485" on="0"/>
        <pt x="1415" y="1177" on="0"/>
      </contour>
      <contour>
        <pt x="874" y="1323" on="1"/>
        <pt x="720" y="1323" on="0"/>
        <pt x="478" y="1127" on="0"/>
        <pt x="342" y="770" on="0"/>
        <pt x="342" y="553" on="1"/>
        <pt x="342" y="357" on="0"/>
        <pt x="532" y="141" on="0"/>
        <pt x="696" y="141" on="1"/>
        <pt x="845" y="141" on="0"/>
        <pt x="1083" y="332" on="0"/>
        <pt x="1221" y="690" on="0"/>
        <pt x="1221" y="911" on="1"/>
        <pt x="1221" y="1105" on="0"/>
        <pt x="1037" y="1323" on="0"/>
      </contour>
    </TTGlyph>
    <TTGlyph name="Thorn" xMin="84" yMin="0" xMax="1110" yMax="1462">
      <contour>
        <pt x="1110" y="827" on="1"/>
        <pt x="1110" y="579" on="0"/>
        <pt x="781" y="317" on="0"/>
        <pt x="463" y="317" on="1"/>
        <pt x="334" y="317" on="1"/>
        <pt x="266" y="0" on="1"/>
        <pt x="84" y="0" on="1"/>
        <pt x="393" y="1462" on="1"/>
        <pt x="575" y="1462" on="1"/>
        <pt x="522" y="1208" on="1"/>
        <pt x="670" y="1208" on="1"/>
        <pt x="887" y="1208" on="0"/>
        <pt x="1110" y="1017" on="0"/>
      </contour>
      <contour>
        <pt x="365" y="473" on="1"/>
        <pt x="494" y="473" on="1"/>
        <pt x="704" y="473" on="0"/>
        <pt x="922" y="652" on="0"/>
        <pt x="922" y="821" on="1"/>
        <pt x="922" y="944" on="0"/>
        <pt x="784" y="1051" on="0"/>
        <pt x="645" y="1051" on="1"/>
        <pt x="487" y="1051" on="1"/>
      </contour>
    </TTGlyph>
    <TTGlyph name="U" xMin="162" yMin="-20" xMax="1409" yMax="1462">
      <contour>
        <pt x="1409" y="1462" on="1"/>
        <pt x="1204" y="498" on="1"/>
        <pt x="1148" y="231" on="0"/>
        <pt x="858" y="-20" on="0"/>
        <pt x="614" y="-20" on="1"/>
        <pt x="385" y="-20" on="0"/>
        <pt x="162" y="190" on="0"/>
        <pt x="162" y="385" on="1"/>
        <pt x="162" y="462" on="0"/>
        <pt x="186" y="580" on="1"/>
        <pt x="375" y="1462" on="1"/>
        <pt x="557" y="1462" on="1"/>
        <pt x="367" y="569" on="1"/>
        <pt x="358" y="533" on="0"/>
        <pt x="344" y="423" on="0"/>
        <pt x="344" y="387" on="1"/>
        <pt x="344" y="271" on="0"/>
        <pt x="484" y="141" on="0"/>
        <pt x="625" y="141" on="1"/>
        <pt x="794" y="141" on="0"/>
        <pt x="981" y="314" on="0"/>
        <pt x="1024" y="512" on="1"/>
        <pt x="1227" y="1462" on="1"/>
      </contour>
    </TTGlyph>
    <TTGlyph name="Uacute" xMin="162" yMin="-20" xMax="1409" yMax="1907">
      <component glyphName="U" x="0" y="0" flags="0x204"/>
      <component glyphName="acute" x="289" y="338" flags="0x4"/>
    </TTGlyph>
    <TTGlyph name="Ubreve" xMin="162" yMin="-20" xMax="1409" yMax="1854">
      <component glyphName="U" x="0" y="0" flags="0x204"/>
      <component glyphName="breve" x="170" y="338" flags="0x4"/>
    </TTGlyph>
    <TTGlyph name="Ucircumflex" xMin="162" yMin="-20" xMax="1409" yMax="1907">
      <component glyphName="U" x="0" y="0" flags="0x204"/>
      <component glyphName="circumflex" x="199" y="338" flags="0x4"/>
    </TTGlyph>
    <TTGlyph name="Udieresis" xMin="162" yMin="-20" xMax="1409" yMax="1833">
      <component glyphName="U" x="0" y="0" flags="0x204"/>
      <component glyphName="dieresis" x="184" y="338" flags="0x4"/>
    </TTGlyph>
    <TTGlyph name="Ugrave" xMin="162" yMin="-20" xMax="1409" yMax="1907">
      <component glyphName="U" x="0" y="0" flags="0x204"/>
      <component glyphName="grave" x="86" y="338" flags="0x4"/>
    </TTGlyph>
    <TTGlyph name="Uhorn" xMin="162" yMin="-20" xMax="1776" yMax="1556">
      <contour>
        <pt x="1409" y="1462" on="1"/>
        <pt x="1366" y="1266" on="1"/>
        <pt x="1532" y="1300" on="0"/>
        <pt x="1573" y="1556" on="1"/>
        <pt x="1767" y="1556" on="1"/>
        <pt x="1776" y="1534" on="1"/>
        <pt x="1741" y="1377" on="0"/>
        <pt x="1514" y="1172" on="0"/>
        <pt x="1341" y="1141" on="1"/>
        <pt x="1204" y="498" on="1"/>
        <pt x="1148" y="228" on="0"/>
        <pt x="861" y="-20" on="0"/>
        <pt x="621" y="-20" on="1"/>
        <pt x="390" y="-20" on="0"/>
        <pt x="162" y="194" on="0"/>
        <pt x="162" y="389" on="1"/>
        <pt x="162" y="471" on="0"/>
        <pt x="186" y="580" on="1"/>
        <pt x="375" y="1462" on="1"/>
        <pt x="557" y="1462" on="1"/>
        <pt x="367" y="567" on="1"/>
        <pt x="344" y="460" on="0"/>
        <pt x="344" y="399" on="1"/>
        <pt x="344" y="271" on="0"/>
        <pt x="487" y="141" on="0"/>
        <pt x="625" y="141" on="1"/>
        <pt x="790" y="141" on="0"/>
        <pt x="979" y="314" on="0"/>
        <pt x="1024" y="514" on="1"/>
        <pt x="1227" y="1462" on="1"/>
      </contour>
    </TTGlyph>
    <TTGlyph name="Uhungarumlaut" xMin="162" yMin="-20" xMax="1417" yMax="1907">
      <component glyphName="U" x="0" y="0" flags="0x204"/>
      <component glyphName="hungarumlaut" x="270" y="338" flags="0x4"/>
    </TTGlyph>
    <TTGlyph name="Umacron" xMin="162" yMin="-20" xMax="1409" yMax="1724">
      <component glyphName="U" x="0" y="0" flags="0x204"/>
      <component glyphName="uni02C9" x="221" y="338" flags="0x4"/>
    </TTGlyph>
    <TTGlyph name="Uogonek" xMin="162" yMin="-444" xMax="1409" yMax="1462">
      <component glyphName="U" x="0" y="0" flags="0x204"/>
      <component glyphName="ogonek" x="590" y="0" flags="0x4"/>
    </TTGlyph>
    <TTGlyph name="Upsilon" xMin="188" yMin="0" xMax="1231" yMax="1462">
      <component glyphName="Y" x="0" y="0" flags="0x204"/>
    </TTGlyph>
    <TTGlyph name="Upsilon1" xMin="188" yMin="0" xMax="1257" yMax="1475">
      <contour>
        <pt x="545" y="729" on="1"/>
        <pt x="629" y="889" on="0"/>
        <pt x="853" y="1268" on="0"/>
        <pt x="978" y="1418" on="0"/>
        <pt x="1080" y="1475" on="0"/>
        <pt x="1147" y="1475" on="1"/>
        <pt x="1192" y="1475" on="0"/>
        <pt x="1257" y="1458" on="1"/>
        <pt x="1219" y="1313" on="1"/>
        <pt x="1205" y="1316" on="0"/>
        <pt x="1180" y="1323" on="0"/>
        <pt x="1163" y="1323" on="1"/>
        <pt x="1119" y="1323" on="0"/>
        <pt x="1034" y="1242" on="0"/>
        <pt x="909" y="1052" on="0"/>
        <pt x="708" y="717" on="0"/>
        <pt x="602" y="532" on="1"/>
        <pt x="492" y="0" on="1"/>
        <pt x="307" y="0" on="1"/>
        <pt x="426" y="549" on="1"/>
        <pt x="188" y="1462" on="1"/>
        <pt x="371" y="1462" on="1"/>
      </contour>
    </TTGlyph>
    <TTGlyph name="Upsilondieresis" xMin="188" yMin="0" xMax="1231" yMax="1833">
      <component glyphName="Y" x="0" y="0" flags="0x204"/>
      <component glyphName="dieresis" x="-1" y="338" flags="0x4"/>
    </TTGlyph>
    <TTGlyph name="Upsilontonos" xMin="66" yMin="0" xMax="1514" yMax="1546">
      <component glyphName="Y" x="283" y="0" flags="0x4"/>
      <component glyphName="tonos" x="-550" y="-105" flags="0x4"/>
    </TTGlyph>
    <TTGlyph name="Uring" xMin="162" yMin="-20" xMax="1409" yMax="2007">
      <component glyphName="U" x="0" y="0" flags="0x204"/>
      <component glyphName="ring" x="145" y="338" flags="0x4"/>
    </TTGlyph>
    <TTGlyph name="Utilde" xMin="162" yMin="-20" xMax="1409" yMax="1843">
      <component glyphName="U" x="0" y="0" flags="0x204"/>
      <component glyphName="tilde" x="219" y="338" flags="0x4"/>
    </TTGlyph>
    <TTGlyph name="V" xMin="188" yMin="0" xMax="1319" yMax="1462">
      <contour>
        <pt x="483" y="207" on="1"/>
        <pt x="540" y="343" on="0"/>
        <pt x="641" y="539" on="1"/>
        <pt x="1116" y="1462" on="1"/>
        <pt x="1319" y="1462" on="1"/>
        <pt x="541" y="0" on="1"/>
        <pt x="346" y="0" on="1"/>
        <pt x="188" y="1462" on="1"/>
        <pt x="369" y="1462" on="1"/>
        <pt x="461" y="537" on="1"/>
        <pt x="480" y="362" on="0"/>
        <pt x="480" y="247" on="1"/>
        <pt x="479" y="207" on="1"/>
      </contour>
    </TTGlyph>
    <TTGlyph name="W" xMin="219" yMin="0" xMax="1931" yMax="1462">
      <contour>
        <pt x="1022" y="1227" on="1"/>
        <pt x="1003" y="1167" on="0"/>
        <pt x="932" y="1001" on="0"/>
        <pt x="469" y="0" on="1"/>
        <pt x="281" y="0" on="1"/>
        <pt x="219" y="1462" on="1"/>
        <pt x="399" y="1462" on="1"/>
        <pt x="428" y="571" on="1"/>
        <pt x="430" y="485" on="1"/>
        <pt x="430" y="381" on="0"/>
        <pt x="420" y="225" on="1"/>
        <pt x="426" y="225" on="1"/>
        <pt x="526" y="491" on="0"/>
        <pt x="580" y="602" on="1"/>
        <pt x="981" y="1462" on="1"/>
        <pt x="1167" y="1462" on="1"/>
        <pt x="1208" y="606" on="1"/>
        <pt x="1218" y="446" on="0"/>
        <pt x="1218" y="309" on="1"/>
        <pt x="1217" y="225" on="1"/>
        <pt x="1223" y="225" on="1"/>
        <pt x="1315" y="485" on="0"/>
        <pt x="1354" y="578" on="1"/>
        <pt x="1737" y="1462" on="1"/>
        <pt x="1931" y="1462" on="1"/>
        <pt x="1268" y="0" on="1"/>
        <pt x="1081" y="0" on="1"/>
        <pt x="1036" y="942" on="1"/>
        <pt x="1028" y="1078" on="0"/>
        <pt x="1028" y="1227" on="1"/>
      </contour>
    </TTGlyph>
    <TTGlyph name="Wacute" xMin="219" yMin="0" xMax="1931" yMax="1907">
      <component glyphName="W" x="0" y="0" flags="0x204"/>
      <component glyphName="acute" x="481" y="338" flags="0x4"/>
    </TTGlyph>
    <TTGlyph name="Wcircumflex" xMin="219" yMin="0" xMax="1931" yMax="1907">
      <component glyphName="W" x="0" y="0" flags="0x204"/>
      <component glyphName="circumflex" x="367" y="338" flags="0x4"/>
    </TTGlyph>
    <TTGlyph name="Wdieresis" xMin="219" yMin="0" xMax="1931" yMax="1833">
      <component glyphName="W" x="0" y="0" flags="0x204"/>
      <component glyphName="dieresis" x="367" y="338" flags="0x4"/>
    </TTGlyph>
    <TTGlyph name="Wgrave" xMin="219" yMin="0" xMax="1931" yMax="1907">
      <component glyphName="W" x="0" y="0" flags="0x204"/>
      <component glyphName="grave" x="260" y="338" flags="0x4"/>
    </TTGlyph>
    <TTGlyph name="X" xMin="-106" yMin="0" xMax="1247" yMax="1462">
      <contour>
        <pt x="971" y="0" on="1"/>
        <pt x="778" y="0" on="1"/>
        <pt x="569" y="633" on="1"/>
        <pt x="94" y="0" on="1"/>
        <pt x="-106" y="0" on="1"/>
        <pt x="489" y="774" on="1"/>
        <pt x="229" y="1462" on="1"/>
        <pt x="414" y="1462" on="1"/>
        <pt x="612" y="903" on="1"/>
        <pt x="1047" y="1462" on="1"/>
        <pt x="1247" y="1462" on="1"/>
        <pt x="694" y="766" on="1"/>
      </contour>
    </TTGlyph>
    <TTGlyph name="Xi" xMin="-29" yMin="0" xMax="1135" yMax="1462">
      <contour>
        <pt x="274" y="844" on="1"/>
        <pt x="918" y="844" on="1"/>
        <pt x="885" y="684" on="1"/>
        <pt x="242" y="684" on="1"/>
      </contour>
      <contour>
        <pt x="319" y="1462" on="1"/>
        <pt x="1135" y="1462" on="1"/>
        <pt x="1100" y="1300" on="1"/>
        <pt x="285" y="1300" on="1"/>
      </contour>
      <contour>
        <pt x="899" y="162" on="1"/>
        <pt x="864" y="0" on="1"/>
        <pt x="-29" y="0" on="1"/>
        <pt x="4" y="162" on="1"/>
      </contour>
    </TTGlyph>
    <TTGlyph name="Y" xMin="188" yMin="0" xMax="1231" yMax="1462">
      <contour>
        <pt x="545" y="729" on="1"/>
        <pt x="1024" y="1462" on="1"/>
        <pt x="1231" y="1462" on="1"/>
        <pt x="604" y="543" on="1"/>
        <pt x="492" y="0" on="1"/>
        <pt x="307" y="0" on="1"/>
        <pt x="426" y="549" on="1"/>
        <pt x="188" y="1462" on="1"/>
        <pt x="371" y="1462" on="1"/>
      </contour>
    </TTGlyph>
    <TTGlyph name="Yacute" xMin="188" yMin="0" xMax="1231" yMax="1907">
      <component glyphName="Y" x="0" y="0" flags="0x204"/>
      <component glyphName="acute" x="88" y="338" flags="0x4"/>
    </TTGlyph>
    <TTGlyph name="Ycircumflex" xMin="188" yMin="0" xMax="1231" yMax="1907">
      <component glyphName="Y" x="0" y="0" flags="0x204"/>
      <component glyphName="circumflex" x="-19" y="338" flags="0x4"/>
    </TTGlyph>
    <TTGlyph name="Ydieresis" xMin="188" yMin="0" xMax="1231" yMax="1833">
      <component glyphName="Y" x="0" y="0" flags="0x204"/>
      <component glyphName="dieresis" x="-1" y="338" flags="0x4"/>
    </TTGlyph>
    <TTGlyph name="Ygrave" xMin="188" yMin="0" xMax="1231" yMax="1907">
      <component glyphName="Y" x="0" y="0" flags="0x204"/>
      <component glyphName="grave" x="-128" y="338" flags="0x4"/>
    </TTGlyph>
    <TTGlyph name="Z" xMin="-20" yMin="0" xMax="1174" yMax="1462">
      <contour>
        <pt x="889" y="0" on="1"/>
        <pt x="-20" y="0" on="1"/>
        <pt x="8" y="143" on="1"/>
        <pt x="920" y="1298" on="1"/>
        <pt x="274" y="1298" on="1"/>
        <pt x="309" y="1462" on="1"/>
        <pt x="1174" y="1462" on="1"/>
        <pt x="1147" y="1317" on="1"/>
        <pt x="236" y="164" on="1"/>
        <pt x="922" y="164" on="1"/>
      </contour>
    </TTGlyph>
    <TTGlyph name="Zacute" xMin="-20" yMin="0" xMax="1174" yMax="1907">
      <component glyphName="Z" x="0" y="0" flags="0x204"/>
      <component glyphName="acute" x="92" y="338" flags="0x4"/>
    </TTGlyph>
    <TTGlyph name="Zcaron" xMin="-20" yMin="0" xMax="1174" yMax="1907">
      <component glyphName="Z" x="0" y="0" flags="0x204"/>
      <component glyphName="caron" x="33" y="338" flags="0x4"/>
    </TTGlyph>
    <TTGlyph name="Zdotaccent" xMin="-20" yMin="0" xMax="1174" yMax="1845">
      <component glyphName="Z" x="0" y="0" flags="0x204"/>
      <component glyphName="dotaccent" x="334" y="338" flags="0x4"/>
    </TTGlyph>
    <TTGlyph name="Zeta" xMin="-20" yMin="0" xMax="1174" yMax="1462">
      <component glyphName="Z" x="0" y="0" flags="0x204"/>
    </TTGlyph>
    <TTGlyph name="a" xMin="98" yMin="-20" xMax="1126" yMax="1118">
      <contour>
        <pt x="395" y="-20" on="1"/>
        <pt x="258" y="-20" on="0"/>
        <pt x="98" y="176" on="0"/>
        <pt x="98" y="354" on="1"/>
        <pt x="98" y="559" on="0"/>
        <pt x="239" y="914" on="0"/>
        <pt x="487" y="1118" on="0"/>
        <pt x="637" y="1118" on="1"/>
        <pt x="730" y="1118" on="0"/>
        <pt x="871" y="1020" on="0"/>
        <pt x="913" y="928" on="1"/>
        <pt x="924" y="928" on="1"/>
        <pt x="989" y="1098" on="1"/>
        <pt x="1126" y="1098" on="1"/>
        <pt x="893" y="0" on="1"/>
        <pt x="750" y="0" on="1"/>
        <pt x="776" y="203" on="1"/>
        <pt x="768" y="203" on="1"/>
        <pt x="595" y="-20" on="0"/>
      </contour>
      <contour>
        <pt x="455" y="129" on="1"/>
        <pt x="549" y="129" on="0"/>
        <pt x="738" y="309" on="0"/>
        <pt x="852" y="598" on="0"/>
        <pt x="852" y="748" on="1"/>
        <pt x="852" y="846" on="0"/>
        <pt x="744" y="967" on="0"/>
        <pt x="655" y="967" on="1"/>
        <pt x="554" y="967" on="0"/>
        <pt x="381" y="798" on="0"/>
        <pt x="283" y="512" on="0"/>
        <pt x="283" y="350" on="1"/>
        <pt x="283" y="239" on="0"/>
        <pt x="373" y="129" on="0"/>
      </contour>
    </TTGlyph>
    <TTGlyph name="aacute" xMin="98" yMin="-20" xMax="1126" yMax="1569">
      <component glyphName="a" x="0" y="0" flags="0x204"/>
      <component glyphName="acute" x="72" y="0" flags="0x4"/>
    </TTGlyph>
    <TTGlyph name="abreve" xMin="98" yMin="-20" xMax="1126" yMax="1516">
      <component glyphName="a" x="0" y="0" flags="0x204"/>
      <component glyphName="breve" x="0" y="0" flags="0x4"/>
    </TTGlyph>
    <TTGlyph name="acircumflex" xMin="98" yMin="-20" xMax="1126" yMax="1569">
      <component glyphName="a" x="0" y="0" flags="0x204"/>
      <component glyphName="circumflex" x="-9" y="0" flags="0x4"/>
    </TTGlyph>
    <TTGlyph name="acute" xMin="528" yMin="1241" xMax="963" yMax="1569">
      <contour>
        <pt x="528" y="1268" on="1"/>
        <pt x="579" y="1323" on="0"/>
        <pt x="713" y="1500" on="0"/>
        <pt x="758" y="1569" on="1"/>
        <pt x="963" y="1569" on="1"/>
        <pt x="963" y="1548" on="1"/>
        <pt x="916" y="1491" on="0"/>
        <pt x="714" y="1294" on="0"/>
        <pt x="641" y="1241" on="1"/>
        <pt x="528" y="1241" on="1"/>
      </contour>
    </TTGlyph>
    <TTGlyph name="acutecomb" xMin="-542" yMin="1241" xMax="-107" yMax="1569">
      <component glyphName="acute" x="-1070" y="0" flags="0x4"/>
    </TTGlyph>
    <TTGlyph name="adieresis" xMin="98" yMin="-20" xMax="1126" yMax="1495">
      <component glyphName="a" x="0" y="0" flags="0x204"/>
      <component glyphName="dieresis" x="-3" y="0" flags="0x4"/>
    </TTGlyph>
    <TTGlyph name="ae" xMin="98" yMin="-20" xMax="1634" yMax="1118">
      <contour>
        <pt x="1169" y="-20" on="1"/>
        <pt x="1061" y="-20" on="0"/>
        <pt x="900" y="57" on="0"/>
        <pt x="858" y="135" on="1"/>
        <pt x="829" y="0" on="1"/>
        <pt x="709" y="0" on="1"/>
        <pt x="733" y="203" on="1"/>
        <pt x="725" y="203" on="1"/>
        <pt x="621" y="77" on="0"/>
        <pt x="456" y="-20" on="0"/>
        <pt x="362" y="-20" on="1"/>
        <pt x="239" y="-20" on="0"/>
        <pt x="98" y="177" on="0"/>
        <pt x="98" y="352" on="1"/>
        <pt x="98" y="559" on="0"/>
        <pt x="240" y="917" on="0"/>
        <pt x="481" y="1118" on="0"/>
        <pt x="621" y="1118" on="1"/>
        <pt x="790" y="1118" on="0"/>
        <pt x="870" y="928" on="1"/>
        <pt x="881" y="928" on="1"/>
        <pt x="948" y="1098" on="1"/>
        <pt x="1063" y="1098" on="1"/>
        <pt x="1034" y="956" on="1"/>
        <pt x="1089" y="1032" on="0"/>
        <pt x="1258" y="1118" on="0"/>
        <pt x="1362" y="1118" on="1"/>
        <pt x="1484" y="1118" on="0"/>
        <pt x="1634" y="982" on="0"/>
        <pt x="1634" y="862" on="1"/>
        <pt x="1634" y="679" on="0"/>
        <pt x="1300" y="475" on="0"/>
        <pt x="995" y="475" on="1"/>
        <pt x="954" y="475" on="1"/>
        <pt x="950" y="399" on="1"/>
        <pt x="950" y="273" on="0"/>
        <pt x="1073" y="129" on="0"/>
        <pt x="1202" y="129" on="1"/>
        <pt x="1261" y="129" on="0"/>
        <pt x="1391" y="165" on="0"/>
        <pt x="1499" y="213" on="1"/>
        <pt x="1499" y="55" on="1"/>
        <pt x="1335" y="-20" on="0"/>
      </contour>
      <contour>
        <pt x="422" y="129" on="1"/>
        <pt x="514" y="129" on="0"/>
        <pt x="696" y="307" on="0"/>
        <pt x="811" y="601" on="0"/>
        <pt x="811" y="748" on="1"/>
        <pt x="811" y="849" on="0"/>
        <pt x="721" y="967" on="0"/>
        <pt x="645" y="967" on="1"/>
        <pt x="547" y="967" on="0"/>
        <pt x="380" y="796" on="0"/>
        <pt x="283" y="512" on="0"/>
        <pt x="283" y="352" on="1"/>
        <pt x="283" y="240" on="0"/>
        <pt x="356" y="129" on="0"/>
      </contour>
      <contour>
        <pt x="1327" y="969" on="1"/>
        <pt x="1214" y="969" on="0"/>
        <pt x="1028" y="784" on="0"/>
        <pt x="981" y="621" on="1"/>
        <pt x="999" y="621" on="1"/>
        <pt x="1216" y="621" on="0"/>
        <pt x="1456" y="736" on="0"/>
        <pt x="1456" y="844" on="1"/>
        <pt x="1456" y="901" on="0"/>
        <pt x="1388" y="969" on="0"/>
      </contour>
    </TTGlyph>
    <TTGlyph name="aeacute" xMin="98" yMin="-20" xMax="1634" yMax="1569">
      <component glyphName="ae" x="0" y="0" flags="0x204"/>
      <component glyphName="acute" x="395" y="0" flags="0x4"/>
    </TTGlyph>
    <TTGlyph name="afii00208" xMin="53" yMin="467" xMax="1898" yMax="633">
      <component glyphName="emdash" x="0" y="0" flags="0x204"/>
    </TTGlyph>
    <TTGlyph name="afii10017" xMin="-117" yMin="0" xMax="1051" yMax="1462">
      <component glyphName="A" x="0" y="0" flags="0x204"/>
    </TTGlyph>
    <TTGlyph name="afii10018" xMin="86" yMin="0" xMax="1135" yMax="1462">
      <contour>
        <pt x="592" y="844" on="1"/>
        <pt x="1036" y="844" on="0"/>
        <pt x="1036" y="481" on="1"/>
        <pt x="1036" y="252" on="0"/>
        <pt x="737" y="0" on="0"/>
        <pt x="459" y="0" on="1"/>
        <pt x="86" y="0" on="1"/>
        <pt x="395" y="1462" on="1"/>
        <pt x="1135" y="1462" on="1"/>
        <pt x="1100" y="1300" on="1"/>
        <pt x="545" y="1300" on="1"/>
        <pt x="449" y="844" on="1"/>
      </contour>
      <contour>
        <pt x="485" y="156" on="1"/>
        <pt x="848" y="156" on="0"/>
        <pt x="848" y="467" on="1"/>
        <pt x="848" y="580" on="0"/>
        <pt x="724" y="686" on="0"/>
        <pt x="592" y="686" on="1"/>
        <pt x="416" y="686" on="1"/>
        <pt x="301" y="156" on="1"/>
      </contour>
    </TTGlyph>
    <TTGlyph name="afii10019" xMin="84" yMin="0" xMax="1206" yMax="1462">
      <component glyphName="B" x="0" y="0" flags="0x204"/>
    </TTGlyph>
    <TTGlyph name="afii10020" xMin="84" yMin="0" xMax="1135" yMax="1462">
      <component glyphName="Gamma" x="0" y="0" flags="0x204"/>
    </TTGlyph>
    <TTGlyph name="afii10021" xMin="-172" yMin="-383" xMax="1274" yMax="1462">
      <contour>
        <pt x="-57" y="164" on="1"/>
        <pt x="47" y="164" on="1"/>
        <pt x="241" y="434" on="0"/>
        <pt x="605" y="1174" on="0"/>
        <pt x="678" y="1462" on="1"/>
        <pt x="1274" y="1462" on="1"/>
        <pt x="999" y="164" on="1"/>
        <pt x="1186" y="164" on="1"/>
        <pt x="1069" y="-383" on="1"/>
        <pt x="895" y="-383" on="1"/>
        <pt x="975" y="0" on="1"/>
        <pt x="80" y="0" on="1"/>
        <pt x="-2" y="-383" on="1"/>
        <pt x="-172" y="-383" on="1"/>
      </contour>
      <contour>
        <pt x="809" y="1296" on="1"/>
        <pt x="769" y="1161" on="0"/>
        <pt x="579" y="723" on="0"/>
        <pt x="346" y="294" on="0"/>
        <pt x="254" y="164" on="1"/>
        <pt x="813" y="164" on="1"/>
        <pt x="1055" y="1296" on="1"/>
      </contour>
    </TTGlyph>
    <TTGlyph name="afii10022" xMin="84" yMin="0" xMax="1135" yMax="1462">
      <component glyphName="E" x="0" y="0" flags="0x204"/>
    </TTGlyph>
    <TTGlyph name="afii10023" xMin="84" yMin="0" xMax="1135" yMax="1833">
      <component glyphName="E" x="0" y="0" flags="0x204"/>
      <component glyphName="dieresis" x="66" y="338" flags="0x4"/>
    </TTGlyph>
    <TTGlyph name="afii10024" xMin="-102" yMin="0" xMax="1790" yMax="1462">
      <contour>
        <pt x="575" y="770" on="1"/>
        <pt x="219" y="1462" on="1"/>
        <pt x="416" y="1462" on="1"/>
        <pt x="768" y="766" on="1"/>
        <pt x="915" y="1462" on="1"/>
        <pt x="1092" y="1462" on="1"/>
        <pt x="944" y="766" on="1"/>
        <pt x="1573" y="1462" on="1"/>
        <pt x="1790" y="1462" on="1"/>
        <pt x="1124" y="729" on="1"/>
        <pt x="1493" y="0" on="1"/>
        <pt x="1290" y="0" on="1"/>
        <pt x="936" y="729" on="1"/>
        <pt x="782" y="0" on="1"/>
        <pt x="606" y="0" on="1"/>
        <pt x="760" y="729" on="1"/>
        <pt x="119" y="0" on="1"/>
        <pt x="-102" y="0" on="1"/>
      </contour>
    </TTGlyph>
    <TTGlyph name="afii10025" xMin="-2" yMin="-20" xMax="1075" yMax="1483">
      <contour>
        <pt x="1075" y="1157" on="1"/>
        <pt x="1075" y="1004" on="0"/>
        <pt x="876" y="792" on="0"/>
        <pt x="698" y="756" on="1"/>
        <pt x="698" y="752" on="1"/>
        <pt x="830" y="732" on="0"/>
        <pt x="983" y="563" on="0"/>
        <pt x="983" y="430" on="1"/>
        <pt x="983" y="297" on="0"/>
        <pt x="841" y="92" on="0"/>
        <pt x="575" y="-20" on="0"/>
        <pt x="393" y="-20" on="1"/>
        <pt x="158" y="-20" on="0"/>
        <pt x="-2" y="59" on="1"/>
        <pt x="-2" y="233" on="1"/>
        <pt x="85" y="184" on="0"/>
        <pt x="300" y="131" on="0"/>
        <pt x="403" y="131" on="1"/>
        <pt x="583" y="131" on="0"/>
        <pt x="791" y="296" on="0"/>
        <pt x="791" y="438" on="1"/>
        <pt x="791" y="680" on="0"/>
        <pt x="469" y="680" on="1"/>
        <pt x="260" y="680" on="1"/>
        <pt x="291" y="829" on="1"/>
        <pt x="485" y="829" on="1"/>
        <pt x="672" y="829" on="0"/>
        <pt x="887" y="991" on="0"/>
        <pt x="887" y="1133" on="1"/>
        <pt x="887" y="1234" on="0"/>
        <pt x="765" y="1331" on="0"/>
        <pt x="662" y="1331" on="1"/>
        <pt x="494" y="1331" on="0"/>
        <pt x="307" y="1212" on="1"/>
        <pt x="233" y="1343" on="1"/>
        <pt x="340" y="1415" on="0"/>
        <pt x="565" y="1483" on="0"/>
        <pt x="698" y="1483" on="1"/>
        <pt x="873" y="1483" on="0"/>
        <pt x="1075" y="1307" on="0"/>
      </contour>
    </TTGlyph>
    <TTGlyph name="afii10026" xMin="84" yMin="0" xMax="1448" yMax="1462">
      <contour>
        <pt x="309" y="264" on="1"/>
        <pt x="1235" y="1462" on="1"/>
        <pt x="1448" y="1462" on="1"/>
        <pt x="1139" y="0" on="1"/>
        <pt x="967" y="0" on="1"/>
        <pt x="1171" y="966" on="0"/>
        <pt x="1223" y="1195" on="0"/>
        <pt x="1231" y="1219" on="1"/>
        <pt x="1227" y="1219" on="1"/>
        <pt x="297" y="0" on="1"/>
        <pt x="84" y="0" on="1"/>
        <pt x="393" y="1462" on="1"/>
        <pt x="567" y="1462" on="1"/>
        <pt x="395" y="657" on="1"/>
        <pt x="333" y="373" on="0"/>
        <pt x="305" y="264" on="1"/>
      </contour>
    </TTGlyph>
    <TTGlyph name="afii10027" xMin="84" yMin="0" xMax="1448" yMax="1894">
      <component glyphName="afii10026" x="0" y="0" flags="0x204"/>
      <component glyphName="glyph00566" x="240" y="338" flags="0x4"/>
    </TTGlyph>
    <TTGlyph name="afii10028" xMin="84" yMin="0" xMax="1335" yMax="1462">
      <contour>
        <pt x="1069" y="0" on="1"/>
        <pt x="860" y="0" on="1"/>
        <pt x="418" y="725" on="1"/>
        <pt x="266" y="0" on="1"/>
        <pt x="84" y="0" on="1"/>
        <pt x="393" y="1462" on="1"/>
        <pt x="575" y="1462" on="1"/>
        <pt x="424" y="752" on="1"/>
        <pt x="1114" y="1462" on="1"/>
        <pt x="1335" y="1462" on="1"/>
        <pt x="612" y="731" on="1"/>
      </contour>
    </TTGlyph>
    <TTGlyph name="afii10029" xMin="-66" yMin="-23" xMax="1339" yMax="1462">
      <contour>
        <pt x="748" y="1298" on="1"/>
        <pt x="598" y="739" on="0"/>
        <pt x="451" y="278" on="0"/>
        <pt x="333" y="73" on="0"/>
        <pt x="175" y="-23" on="0"/>
        <pt x="61" y="-23" on="1"/>
        <pt x="-15" y="-23" on="0"/>
        <pt x="-66" y="0" on="1"/>
        <pt x="-66" y="160" on="1"/>
        <pt x="-14" y="139" on="0"/>
        <pt x="37" y="139" on="1"/>
        <pt x="118" y="139" on="0"/>
        <pt x="222" y="226" on="0"/>
        <pt x="316" y="428" on="0"/>
        <pt x="466" y="918" on="0"/>
        <pt x="612" y="1462" on="1"/>
        <pt x="1339" y="1462" on="1"/>
        <pt x="1028" y="0" on="1"/>
        <pt x="844" y="0" on="1"/>
        <pt x="1120" y="1298" on="1"/>
      </contour>
    </TTGlyph>
    <TTGlyph name="afii10030" xMin="82" yMin="0" xMax="1729" yMax="1462">
      <component glyphName="M" x="0" y="0" flags="0x204"/>
    </TTGlyph>
    <TTGlyph name="afii10031" xMin="86" yMin="0" xMax="1401" yMax="1462">
      <component glyphName="H" x="0" y="0" flags="0x204"/>
    </TTGlyph>
    <TTGlyph name="afii10032" xMin="147" yMin="-20" xMax="1413" yMax="1485">
      <component glyphName="O" x="0" y="0" flags="0x204"/>
    </TTGlyph>
    <TTGlyph name="afii10033" xMin="84" yMin="0" xMax="1403" yMax="1462">
      <component glyphName="Pi" x="0" y="0" flags="0x204"/>
    </TTGlyph>
    <TTGlyph name="afii10034" xMin="84" yMin="0" xMax="1161" yMax="1462">
      <component glyphName="P" x="0" y="0" flags="0x204"/>
    </TTGlyph>
    <TTGlyph name="afii10035" xMin="147" yMin="-20" xMax="1294" yMax="1483">
      <component glyphName="C" x="0" y="0" flags="0x204"/>
    </TTGlyph>
    <TTGlyph name="afii10036" xMin="184" yMin="0" xMax="1206" yMax="1462">
      <component glyphName="T" x="0" y="0" flags="0x204"/>
    </TTGlyph>
    <TTGlyph name="afii10037" xMin="0" yMin="-20" xMax="1364" yMax="1462">
      <contour>
        <pt x="170" y="-20" on="1"/>
        <pt x="130" y="-20" on="0"/>
        <pt x="31" y="-4" on="0"/>
        <pt x="0" y="8" on="1"/>
        <pt x="0" y="186" on="1"/>
        <pt x="80" y="147" on="0"/>
        <pt x="166" y="147" on="1"/>
        <pt x="267" y="147" on="0"/>
        <pt x="422" y="264" on="0"/>
        <pt x="518" y="420" on="1"/>
        <pt x="211" y="1462" on="1"/>
        <pt x="395" y="1462" on="1"/>
        <pt x="571" y="821" on="1"/>
        <pt x="622" y="631" on="0"/>
        <pt x="637" y="545" on="1"/>
        <pt x="705" y="690" on="0"/>
        <pt x="758" y="780" on="1"/>
        <pt x="1157" y="1462" on="1"/>
        <pt x="1364" y="1462" on="1"/>
        <pt x="690" y="365" on="1"/>
        <pt x="559" y="151" on="0"/>
        <pt x="326" y="-20" on="0"/>
      </contour>
    </TTGlyph>
    <TTGlyph name="afii10038" xMin="147" yMin="-20" xMax="1475" yMax="1483">
      <component glyphName="Phi" x="0" y="0" flags="0x204"/>
    </TTGlyph>
    <TTGlyph name="afii10039" xMin="-106" yMin="0" xMax="1247" yMax="1462">
      <component glyphName="X" x="0" y="0" flags="0x204"/>
    </TTGlyph>
    <TTGlyph name="afii10040" xMin="82" yMin="-383" xMax="1374" yMax="1462">
      <contour>
        <pt x="1270" y="164" on="1"/>
        <pt x="1151" y="-383" on="1"/>
        <pt x="977" y="-383" on="1"/>
        <pt x="1059" y="0" on="1"/>
        <pt x="82" y="0" on="1"/>
        <pt x="391" y="1462" on="1"/>
        <pt x="575" y="1462" on="1"/>
        <pt x="301" y="164" on="1"/>
        <pt x="915" y="164" on="1"/>
        <pt x="1190" y="1462" on="1"/>
        <pt x="1374" y="1462" on="1"/>
        <pt x="1100" y="164" on="1"/>
      </contour>
    </TTGlyph>
    <TTGlyph name="afii10041" xMin="244" yMin="0" xMax="1325" yMax="1462">
      <contour>
        <pt x="831" y="0" on="1"/>
        <pt x="958" y="596" on="1"/>
        <pt x="753" y="508" on="0"/>
        <pt x="563" y="508" on="1"/>
        <pt x="408" y="508" on="0"/>
        <pt x="244" y="652" on="0"/>
        <pt x="244" y="788" on="1"/>
        <pt x="244" y="860" on="0"/>
        <pt x="266" y="952" on="1"/>
        <pt x="375" y="1462" on="1"/>
        <pt x="557" y="1462" on="1"/>
        <pt x="451" y="956" on="1"/>
        <pt x="430" y="868" on="0"/>
        <pt x="430" y="825" on="1"/>
        <pt x="430" y="748" on="0"/>
        <pt x="512" y="670" on="0"/>
        <pt x="610" y="670" on="1"/>
        <pt x="774" y="670" on="0"/>
        <pt x="993" y="750" on="1"/>
        <pt x="1141" y="1462" on="1"/>
        <pt x="1325" y="1462" on="1"/>
        <pt x="1016" y="0" on="1"/>
      </contour>
    </TTGlyph>
    <TTGlyph name="afii10042" xMin="82" yMin="0" xMax="1974" yMax="1462">
      <contour>
        <pt x="82" y="0" on="1"/>
        <pt x="391" y="1462" on="1"/>
        <pt x="575" y="1462" on="1"/>
        <pt x="299" y="164" on="1"/>
        <pt x="817" y="164" on="1"/>
        <pt x="1092" y="1462" on="1"/>
        <pt x="1276" y="1462" on="1"/>
        <pt x="1001" y="164" on="1"/>
        <pt x="1518" y="164" on="1"/>
        <pt x="1792" y="1462" on="1"/>
        <pt x="1974" y="1462" on="1"/>
        <pt x="1665" y="0" on="1"/>
      </contour>
    </TTGlyph>
    <TTGlyph name="afii10043" xMin="82" yMin="-383" xMax="1974" yMax="1462">
      <contour>
        <pt x="1870" y="164" on="1"/>
        <pt x="1753" y="-383" on="1"/>
        <pt x="1579" y="-383" on="1"/>
        <pt x="1659" y="0" on="1"/>
        <pt x="82" y="0" on="1"/>
        <pt x="391" y="1462" on="1"/>
        <pt x="575" y="1462" on="1"/>
        <pt x="299" y="164" on="1"/>
        <pt x="817" y="164" on="1"/>
        <pt x="1092" y="1462" on="1"/>
        <pt x="1276" y="1462" on="1"/>
        <pt x="1001" y="164" on="1"/>
        <pt x="1518" y="164" on="1"/>
        <pt x="1792" y="1462" on="1"/>
        <pt x="1974" y="1462" on="1"/>
        <pt x="1700" y="164" on="1"/>
      </contour>
    </TTGlyph>
    <TTGlyph name="afii10044" xMin="184" yMin="0" xMax="1174" yMax="1462">
      <contour>
        <pt x="596" y="844" on="1"/>
        <pt x="729" y="844" on="1"/>
        <pt x="1174" y="844" on="0"/>
        <pt x="1174" y="481" on="1"/>
        <pt x="1174" y="251" on="0"/>
        <pt x="873" y="0" on="0"/>
        <pt x="596" y="0" on="1"/>
        <pt x="236" y="0" on="1"/>
        <pt x="510" y="1300" on="1"/>
        <pt x="184" y="1300" on="1"/>
        <pt x="219" y="1462" on="1"/>
        <pt x="727" y="1462" on="1"/>
      </contour>
      <contour>
        <pt x="451" y="156" on="1"/>
        <pt x="623" y="156" on="1"/>
        <pt x="985" y="156" on="0"/>
        <pt x="985" y="467" on="1"/>
        <pt x="985" y="580" on="0"/>
        <pt x="861" y="686" on="0"/>
        <pt x="729" y="686" on="1"/>
        <pt x="563" y="686" on="1"/>
      </contour>
    </TTGlyph>
    <TTGlyph name="afii10045" xMin="84" yMin="0" xMax="1632" yMax="1462">
      <contour>
        <pt x="1323" y="0" on="1"/>
        <pt x="1141" y="0" on="1"/>
        <pt x="1450" y="1462" on="1"/>
        <pt x="1632" y="1462" on="1"/>
      </contour>
      <contour>
        <pt x="1020" y="481" on="1"/>
        <pt x="1020" y="251" on="0"/>
        <pt x="719" y="0" on="0"/>
        <pt x="442" y="0" on="1"/>
        <pt x="84" y="0" on="1"/>
        <pt x="393" y="1462" on="1"/>
        <pt x="575" y="1462" on="1"/>
        <pt x="444" y="844" on="1"/>
        <pt x="575" y="844" on="1"/>
        <pt x="1020" y="844" on="0"/>
      </contour>
      <contour>
        <pt x="299" y="156" on="1"/>
        <pt x="469" y="156" on="1"/>
        <pt x="831" y="156" on="0"/>
        <pt x="831" y="467" on="1"/>
        <pt x="831" y="578" on="0"/>
        <pt x="707" y="686" on="0"/>
        <pt x="575" y="686" on="1"/>
        <pt x="412" y="686" on="1"/>
      </contour>
    </TTGlyph>
    <TTGlyph name="afii10046" xMin="84" yMin="0" xMax="1022" yMax="1462">
      <contour>
        <pt x="1022" y="481" on="1"/>
        <pt x="1022" y="251" on="0"/>
        <pt x="721" y="0" on="0"/>
        <pt x="444" y="0" on="1"/>
        <pt x="84" y="0" on="1"/>
        <pt x="393" y="1462" on="1"/>
        <pt x="575" y="1462" on="1"/>
        <pt x="444" y="844" on="1"/>
        <pt x="578" y="844" on="1"/>
        <pt x="1022" y="844" on="0"/>
      </contour>
      <contour>
        <pt x="299" y="156" on="1"/>
        <pt x="471" y="156" on="1"/>
        <pt x="834" y="156" on="0"/>
        <pt x="834" y="467" on="1"/>
        <pt x="834" y="578" on="0"/>
        <pt x="710" y="686" on="0"/>
        <pt x="578" y="686" on="1"/>
        <pt x="412" y="686" on="1"/>
      </contour>
    </TTGlyph>
    <TTGlyph name="afii10047" xMin="18" yMin="-20" xMax="1139" yMax="1483">
      <contour>
        <pt x="377" y="141" on="1"/>
        <pt x="599" y="141" on="0"/>
        <pt x="878" y="420" on="0"/>
        <pt x="924" y="684" on="1"/>
        <pt x="307" y="684" on="1"/>
        <pt x="340" y="846" on="1"/>
        <pt x="944" y="846" on="1"/>
        <pt x="946" y="934" on="1"/>
        <pt x="946" y="1115" on="0"/>
        <pt x="768" y="1321" on="0"/>
        <pt x="604" y="1321" on="1"/>
        <pt x="507" y="1321" on="0"/>
        <pt x="354" y="1282" on="0"/>
        <pt x="283" y="1257" on="1"/>
        <pt x="236" y="1409" on="1"/>
        <pt x="434" y="1483" on="0"/>
        <pt x="623" y="1483" on="1"/>
        <pt x="868" y="1483" on="0"/>
        <pt x="1139" y="1195" on="0"/>
        <pt x="1139" y="934" on="1"/>
        <pt x="1139" y="636" on="0"/>
        <pt x="949" y="198" on="0"/>
        <pt x="603" y="-20" on="0"/>
        <pt x="367" y="-20" on="1"/>
        <pt x="172" y="-20" on="0"/>
        <pt x="18" y="59" on="1"/>
        <pt x="18" y="236" on="1"/>
        <pt x="136" y="180" on="0"/>
        <pt x="293" y="141" on="0"/>
      </contour>
    </TTGlyph>
    <TTGlyph name="afii10048" xMin="84" yMin="-20" xMax="1946" yMax="1485">
      <contour>
        <pt x="1946" y="909" on="1"/>
        <pt x="1946" y="638" on="0"/>
        <pt x="1772" y="208" on="0"/>
        <pt x="1457" y="-20" on="0"/>
        <pt x="1247" y="-20" on="1"/>
        <pt x="996" y="-20" on="0"/>
        <pt x="725" y="280" on="0"/>
        <pt x="725" y="547" on="1"/>
        <pt x="725" y="614" on="0"/>
        <pt x="731" y="682" on="1"/>
        <pt x="410" y="682" on="1"/>
        <pt x="266" y="0" on="1"/>
        <pt x="84" y="0" on="1"/>
        <pt x="393" y="1462" on="1"/>
        <pt x="575" y="1462" on="1"/>
        <pt x="444" y="844" on="1"/>
        <pt x="758" y="844" on="1"/>
        <pt x="825" y="1138" on="0"/>
        <pt x="1192" y="1485" on="0"/>
        <pt x="1450" y="1485" on="1"/>
        <pt x="1683" y="1485" on="0"/>
        <pt x="1946" y="1179" on="0"/>
      </contour>
      <contour>
        <pt x="1425" y="1323" on="1"/>
        <pt x="1279" y="1323" on="0"/>
        <pt x="1048" y="1125" on="0"/>
        <pt x="920" y="770" on="0"/>
        <pt x="920" y="551" on="1"/>
        <pt x="920" y="355" on="0"/>
        <pt x="1093" y="141" on="0"/>
        <pt x="1255" y="141" on="1"/>
        <pt x="1399" y="141" on="0"/>
        <pt x="1622" y="329" on="0"/>
        <pt x="1753" y="690" on="0"/>
        <pt x="1753" y="913" on="1"/>
        <pt x="1753" y="1109" on="0"/>
        <pt x="1581" y="1323" on="0"/>
      </contour>
    </TTGlyph>
    <TTGlyph name="afii10049" xMin="-80" yMin="0" xMax="1184" yMax="1462">
      <contour>
        <pt x="600" y="606" on="1"/>
        <pt x="141" y="0" on="1"/>
        <pt x="-80" y="0" on="1"/>
        <pt x="434" y="668" on="1"/>
        <pt x="242" y="771" on="0"/>
        <pt x="242" y="995" on="1"/>
        <pt x="242" y="1217" on="0"/>
        <pt x="529" y="1462" on="0"/>
        <pt x="793" y="1462" on="1"/>
        <pt x="1184" y="1462" on="1"/>
        <pt x="877" y="0" on="1"/>
        <pt x="692" y="0" on="1"/>
        <pt x="821" y="606" on="1"/>
      </contour>
      <contour>
        <pt x="971" y="1305" on="1"/>
        <pt x="793" y="1305" on="1"/>
        <pt x="612" y="1305" on="0"/>
        <pt x="430" y="1155" on="0"/>
        <pt x="430" y="1010" on="1"/>
        <pt x="430" y="890" on="0"/>
        <pt x="575" y="762" on="0"/>
        <pt x="709" y="762" on="1"/>
        <pt x="854" y="762" on="1"/>
      </contour>
    </TTGlyph>
    <TTGlyph name="afii10050" xMin="84" yMin="0" xMax="1192" yMax="1761">
      <contour>
        <pt x="954" y="1462" on="1"/>
        <pt x="1018" y="1761" on="1"/>
        <pt x="1192" y="1761" on="1"/>
        <pt x="1092" y="1298" on="1"/>
        <pt x="541" y="1298" on="1"/>
        <pt x="266" y="0" on="1"/>
        <pt x="84" y="0" on="1"/>
        <pt x="393" y="1462" on="1"/>
      </contour>
    </TTGlyph>
    <TTGlyph name="afii10051" xMin="184" yMin="-20" xMax="1233" yMax="1462">
      <contour>
        <pt x="817" y="-20" on="1"/>
        <pt x="732" y="-20" on="0"/>
        <pt x="674" y="2" on="1"/>
        <pt x="674" y="162" on="1"/>
        <pt x="732" y="141" on="0"/>
        <pt x="803" y="141" on="1"/>
        <pt x="899" y="141" on="0"/>
        <pt x="1001" y="245" on="0"/>
        <pt x="1022" y="360" on="1"/>
        <pt x="1051" y="513" on="0"/>
        <pt x="1051" y="569" on="1"/>
        <pt x="1051" y="654" on="0"/>
        <pt x="951" y="735" on="0"/>
        <pt x="846" y="735" on="1"/>
        <pt x="571" y="735" on="1"/>
        <pt x="416" y="0" on="1"/>
        <pt x="233" y="0" on="1"/>
        <pt x="510" y="1300" on="1"/>
        <pt x="184" y="1300" on="1"/>
        <pt x="219" y="1462" on="1"/>
        <pt x="1130" y="1462" on="1"/>
        <pt x="1096" y="1300" on="1"/>
        <pt x="692" y="1300" on="1"/>
        <pt x="606" y="897" on="1"/>
        <pt x="862" y="897" on="1"/>
        <pt x="1233" y="897" on="0"/>
        <pt x="1233" y="588" on="1"/>
        <pt x="1233" y="492" on="0"/>
        <pt x="1217" y="412" on="1"/>
        <pt x="1200" y="336" on="1"/>
        <pt x="1164" y="153" on="0"/>
        <pt x="981" y="-20" on="0"/>
      </contour>
    </TTGlyph>
    <TTGlyph name="afii10052" xMin="84" yMin="0" xMax="1135" yMax="1907">
      <component glyphName="Gamma" x="0" y="0" flags="0x204"/>
      <component glyphName="acute" x="125" y="338" flags="0x4"/>
    </TTGlyph>
    <TTGlyph name="afii10053" xMin="147" yMin="-20" xMax="1294" yMax="1483">
      <contour>
        <pt x="938" y="1321" on="1"/>
        <pt x="741" y="1321" on="0"/>
        <pt x="449" y="1068" on="0"/>
        <pt x="385" y="846" on="1"/>
        <pt x="999" y="846" on="1"/>
        <pt x="967" y="684" on="1"/>
        <pt x="350" y="684" on="1"/>
        <pt x="342" y="639" on="0"/>
        <pt x="342" y="541" on="1"/>
        <pt x="342" y="347" on="0"/>
        <pt x="532" y="141" on="0"/>
        <pt x="700" y="141" on="1"/>
        <pt x="844" y="141" on="0"/>
        <pt x="1024" y="201" on="1"/>
        <pt x="1024" y="41" on="1"/>
        <pt x="925" y="6" on="0"/>
        <pt x="762" y="-20" on="0"/>
        <pt x="668" y="-20" on="1"/>
        <pt x="421" y="-20" on="0"/>
        <pt x="147" y="273" on="0"/>
        <pt x="147" y="539" on="1"/>
        <pt x="147" y="796" on="0"/>
        <pt x="355" y="1245" on="0"/>
        <pt x="713" y="1483" on="0"/>
        <pt x="938" y="1483" on="1"/>
        <pt x="1142" y="1483" on="0"/>
        <pt x="1294" y="1401" on="1"/>
        <pt x="1221" y="1249" on="1"/>
        <pt x="1082" y="1321" on="0"/>
      </contour>
    </TTGlyph>
    <TTGlyph name="afii10054" xMin="39" yMin="-20" xMax="1063" yMax="1483">
      <component glyphName="S" x="0" y="0" flags="0x204"/>
    </TTGlyph>
    <TTGlyph name="afii10055" xMin="-41" yMin="0" xMax="780" yMax="1462">
      <component glyphName="I" x="0" y="0" flags="0x204"/>
    </TTGlyph>
    <TTGlyph name="afii10056" xMin="-41" yMin="0" xMax="843" yMax="1833">
      <component glyphName="I" x="0" y="0" flags="0x204"/>
      <component glyphName="dieresis" x="-167" y="338" flags="0x4"/>
    </TTGlyph>
    <TTGlyph name="afii10057" xMin="-319" yMin="-389" xMax="578" yMax="1462">
      <component glyphName="J" x="0" y="0" flags="0x204"/>
    </TTGlyph>
    <TTGlyph name="afii10058" xMin="-66" yMin="-23" xMax="1714" yMax="1462">
      <contour>
        <pt x="1165" y="844" on="1"/>
        <pt x="1270" y="844" on="1"/>
        <pt x="1714" y="844" on="0"/>
        <pt x="1714" y="483" on="1"/>
        <pt x="1714" y="252" on="0"/>
        <pt x="1415" y="0" on="0"/>
        <pt x="1137" y="0" on="1"/>
        <pt x="803" y="0" on="1"/>
        <pt x="1077" y="1298" on="1"/>
        <pt x="748" y="1298" on="1"/>
        <pt x="598" y="739" on="0"/>
        <pt x="451" y="278" on="0"/>
        <pt x="333" y="73" on="0"/>
        <pt x="175" y="-23" on="0"/>
        <pt x="61" y="-23" on="1"/>
        <pt x="-15" y="-23" on="0"/>
        <pt x="-66" y="0" on="1"/>
        <pt x="-66" y="160" on="1"/>
        <pt x="-14" y="139" on="0"/>
        <pt x="37" y="139" on="1"/>
        <pt x="118" y="139" on="0"/>
        <pt x="222" y="226" on="0"/>
        <pt x="316" y="428" on="0"/>
        <pt x="466" y="918" on="0"/>
        <pt x="612" y="1462" on="1"/>
        <pt x="1294" y="1462" on="1"/>
      </contour>
      <contour>
        <pt x="1018" y="156" on="1"/>
        <pt x="1165" y="156" on="1"/>
        <pt x="1526" y="156" on="0"/>
        <pt x="1526" y="467" on="1"/>
        <pt x="1526" y="580" on="0"/>
        <pt x="1402" y="686" on="0"/>
        <pt x="1270" y="686" on="1"/>
        <pt x="1133" y="686" on="1"/>
      </contour>
    </TTGlyph>
    <TTGlyph name="afii10059" xMin="84" yMin="0" xMax="1735" yMax="1462">
      <contour>
        <pt x="1735" y="483" on="1"/>
        <pt x="1735" y="251" on="0"/>
        <pt x="1434" y="0" on="0"/>
        <pt x="1159" y="0" on="1"/>
        <pt x="823" y="0" on="1"/>
        <pt x="967" y="684" on="1"/>
        <pt x="410" y="684" on="1"/>
        <pt x="266" y="0" on="1"/>
        <pt x="84" y="0" on="1"/>
        <pt x="393" y="1462" on="1"/>
        <pt x="575" y="1462" on="1"/>
        <pt x="444" y="846" on="1"/>
        <pt x="1001" y="846" on="1"/>
        <pt x="1133" y="1462" on="1"/>
        <pt x="1315" y="1462" on="1"/>
        <pt x="1184" y="846" on="1"/>
        <pt x="1292" y="846" on="1"/>
        <pt x="1735" y="846" on="0"/>
      </contour>
      <contour>
        <pt x="1038" y="156" on="1"/>
        <pt x="1186" y="156" on="1"/>
        <pt x="1546" y="156" on="0"/>
        <pt x="1546" y="467" on="1"/>
        <pt x="1546" y="580" on="0"/>
        <pt x="1423" y="684" on="0"/>
        <pt x="1290" y="684" on="1"/>
        <pt x="1153" y="684" on="1"/>
      </contour>
    </TTGlyph>
    <TTGlyph name="afii10060" xMin="184" yMin="0" xMax="1233" yMax="1462">
      <contour>
        <pt x="1051" y="569" on="1"/>
        <pt x="1051" y="656" on="0"/>
        <pt x="950" y="735" on="0"/>
        <pt x="844" y="735" on="1"/>
        <pt x="571" y="735" on="1"/>
        <pt x="416" y="0" on="1"/>
        <pt x="233" y="0" on="1"/>
        <pt x="510" y="1300" on="1"/>
        <pt x="184" y="1300" on="1"/>
        <pt x="219" y="1462" on="1"/>
        <pt x="1130" y="1462" on="1"/>
        <pt x="1096" y="1300" on="1"/>
        <pt x="692" y="1300" on="1"/>
        <pt x="606" y="897" on="1"/>
        <pt x="874" y="897" on="1"/>
        <pt x="1058" y="897" on="0"/>
        <pt x="1233" y="739" on="0"/>
        <pt x="1233" y="582" on="1"/>
        <pt x="1233" y="545" on="0"/>
        <pt x="1216" y="441" on="0"/>
        <pt x="1124" y="0" on="1"/>
        <pt x="940" y="0" on="1"/>
        <pt x="1032" y="420" on="1"/>
        <pt x="1051" y="504" on="0"/>
      </contour>
    </TTGlyph>
    <TTGlyph name="afii10061" xMin="84" yMin="0" xMax="1335" yMax="1907">
      <component glyphName="afii10028" x="0" y="0" flags="0x204"/>
      <component glyphName="acute" x="197" y="338" flags="0x4"/>
    </TTGlyph>
    <TTGlyph name="afii10062" xMin="0" yMin="-20" xMax="1364" yMax="1894">
      <component glyphName="afii10037" x="0" y="0" flags="0x204"/>
      <component glyphName="glyph00566" x="106" y="338" flags="0x4"/>
    </TTGlyph>
    <TTGlyph name="afii10065" xMin="98" yMin="-20" xMax="1126" yMax="1118">
      <component glyphName="a" x="0" y="0" flags="0x204"/>
    </TTGlyph>
    <TTGlyph name="afii10066" xMin="100" yMin="-20" xMax="1186" yMax="1567">
      <contour>
        <pt x="100" y="442" on="1"/>
        <pt x="100" y="560" on="0"/>
        <pt x="148" y="835" on="0"/>
        <pt x="234" y="1080" on="0"/>
        <pt x="347" y="1265" on="0"/>
        <pt x="486" y="1401" on="0"/>
        <pt x="639" y="1470" on="0"/>
        <pt x="1060" y="1553" on="0"/>
        <pt x="1165" y="1567" on="1"/>
        <pt x="1186" y="1419" on="1"/>
        <pt x="838" y="1362" on="0"/>
        <pt x="702" y="1319" on="1"/>
        <pt x="439" y="1235" on="0"/>
        <pt x="334" y="838" on="1"/>
        <pt x="340" y="836" on="1"/>
        <pt x="416" y="926" on="0"/>
        <pt x="609" y="1020" on="0"/>
        <pt x="705" y="1020" on="1"/>
        <pt x="859" y="1020" on="0"/>
        <pt x="1014" y="825" on="0"/>
        <pt x="1014" y="651" on="1"/>
        <pt x="1014" y="452" on="0"/>
        <pt x="881" y="137" on="0"/>
        <pt x="647" y="-20" on="0"/>
        <pt x="492" y="-20" on="1"/>
        <pt x="304" y="-20" on="0"/>
        <pt x="100" y="215" on="0"/>
      </contour>
      <contour>
        <pt x="508" y="129" on="1"/>
        <pt x="599" y="129" on="0"/>
        <pt x="742" y="251" on="0"/>
        <pt x="829" y="498" on="0"/>
        <pt x="829" y="633" on="1"/>
        <pt x="829" y="757" on="0"/>
        <pt x="744" y="870" on="0"/>
        <pt x="657" y="870" on="1"/>
        <pt x="569" y="870" on="0"/>
        <pt x="377" y="750" on="0"/>
        <pt x="305" y="651" on="1"/>
        <pt x="283" y="517" on="0"/>
        <pt x="283" y="436" on="1"/>
        <pt x="283" y="129" on="0"/>
      </contour>
    </TTGlyph>
    <TTGlyph name="afii10067" xMin="98" yMin="-20" xMax="1049" yMax="1116">
      <contour>
        <pt x="680" y="1116" on="1"/>
        <pt x="855" y="1116" on="0"/>
        <pt x="1049" y="976" on="0"/>
        <pt x="1049" y="838" on="1"/>
        <pt x="1049" y="727" on="0"/>
        <pt x="907" y="584" on="0"/>
        <pt x="772" y="555" on="1"/>
        <pt x="772" y="551" on="1"/>
        <pt x="881" y="522" on="0"/>
        <pt x="977" y="407" on="0"/>
        <pt x="977" y="317" on="1"/>
        <pt x="977" y="220" on="0"/>
        <pt x="871" y="67" on="0"/>
        <pt x="671" y="-20" on="0"/>
        <pt x="530" y="-20" on="1"/>
        <pt x="319" y="-20" on="0"/>
        <pt x="98" y="210" on="0"/>
        <pt x="98" y="432" on="1"/>
        <pt x="98" y="630" on="0"/>
        <pt x="242" y="945" on="0"/>
        <pt x="506" y="1116" on="0"/>
      </contour>
      <contour>
        <pt x="281" y="475" on="1"/>
        <pt x="281" y="426" on="1"/>
        <pt x="281" y="280" on="0"/>
        <pt x="412" y="127" on="0"/>
        <pt x="543" y="127" on="1"/>
        <pt x="666" y="127" on="0"/>
        <pt x="803" y="232" on="0"/>
        <pt x="803" y="319" on="1"/>
        <pt x="803" y="398" on="0"/>
        <pt x="676" y="475" on="0"/>
        <pt x="539" y="475" on="1"/>
      </contour>
      <contour>
        <pt x="682" y="967" on="1"/>
        <pt x="537" y="967" on="0"/>
        <pt x="339" y="787" on="0"/>
        <pt x="301" y="621" on="1"/>
        <pt x="524" y="621" on="1"/>
        <pt x="691" y="621" on="0"/>
        <pt x="868" y="724" on="0"/>
        <pt x="868" y="819" on="1"/>
        <pt x="868" y="890" on="0"/>
        <pt x="771" y="967" on="0"/>
      </contour>
    </TTGlyph>
    <TTGlyph name="afii10068" xMin="51" yMin="-20" xMax="881" yMax="1116">
      <contour>
        <pt x="199" y="1038" on="1"/>
        <pt x="319" y="1082" on="0"/>
        <pt x="491" y="1116" on="0"/>
        <pt x="567" y="1116" on="1"/>
        <pt x="722" y="1116" on="0"/>
        <pt x="881" y="986" on="0"/>
        <pt x="881" y="862" on="1"/>
        <pt x="881" y="754" on="0"/>
        <pt x="726" y="587" on="0"/>
        <pt x="537" y="518" on="1"/>
        <pt x="377" y="456" on="0"/>
        <pt x="280" y="396" on="0"/>
        <pt x="233" y="322" on="0"/>
        <pt x="233" y="272" on="1"/>
        <pt x="233" y="206" on="0"/>
        <pt x="329" y="129" on="0"/>
        <pt x="432" y="129" on="1"/>
        <pt x="567" y="129" on="0"/>
        <pt x="745" y="213" on="1"/>
        <pt x="745" y="55" on="1"/>
        <pt x="586" y="-20" on="0"/>
        <pt x="406" y="-20" on="1"/>
        <pt x="240" y="-20" on="0"/>
        <pt x="51" y="126" on="0"/>
        <pt x="51" y="258" on="1"/>
        <pt x="51" y="345" on="0"/>
        <pt x="130" y="474" on="0"/>
        <pt x="275" y="573" on="0"/>
        <pt x="418" y="625" on="1"/>
        <pt x="553" y="678" on="0"/>
        <pt x="650" y="738" on="0"/>
        <pt x="698" y="808" on="0"/>
        <pt x="698" y="852" on="1"/>
        <pt x="698" y="967" on="0"/>
        <pt x="549" y="967" on="1"/>
        <pt x="415" y="967" on="0"/>
        <pt x="248" y="895" on="1"/>
      </contour>
    </TTGlyph>
    <TTGlyph name="afii10069" xMin="98" yMin="-20" xMax="1085" yMax="1577">
      <contour>
        <pt x="1085" y="946" on="1"/>
        <pt x="1085" y="688" on="0"/>
        <pt x="919" y="223" on="0"/>
        <pt x="638" y="-20" on="0"/>
        <pt x="461" y="-20" on="1"/>
        <pt x="289" y="-20" on="0"/>
        <pt x="98" y="191" on="0"/>
        <pt x="98" y="379" on="1"/>
        <pt x="98" y="561" on="0"/>
        <pt x="237" y="881" on="0"/>
        <pt x="466" y="1051" on="0"/>
        <pt x="608" y="1051" on="1"/>
        <pt x="810" y="1051" on="0"/>
        <pt x="895" y="877" on="1"/>
        <pt x="901" y="877" on="1"/>
        <pt x="903" y="909" on="1"/>
        <pt x="903" y="934" on="1"/>
        <pt x="903" y="1186" on="0"/>
        <pt x="768" y="1427" on="0"/>
        <pt x="629" y="1427" on="1"/>
        <pt x="518" y="1427" on="0"/>
        <pt x="414" y="1382" on="1"/>
        <pt x="369" y="1516" on="1"/>
        <pt x="419" y="1541" on="0"/>
        <pt x="580" y="1577" on="0"/>
        <pt x="651" y="1577" on="1"/>
        <pt x="870" y="1577" on="0"/>
        <pt x="1085" y="1264" on="0"/>
      </contour>
      <contour>
        <pt x="479" y="131" on="1"/>
        <pt x="613" y="131" on="0"/>
        <pt x="823" y="429" on="0"/>
        <pt x="870" y="680" on="1"/>
        <pt x="835" y="793" on="0"/>
        <pt x="709" y="911" on="0"/>
        <pt x="625" y="911" on="1"/>
        <pt x="535" y="911" on="0"/>
        <pt x="374" y="767" on="0"/>
        <pt x="281" y="522" on="0"/>
        <pt x="281" y="381" on="1"/>
        <pt x="281" y="262" on="0"/>
        <pt x="383" y="131" on="0"/>
      </contour>
    </TTGlyph>
    <TTGlyph name="afii10070" xMin="98" yMin="-20" xMax="961" yMax="1118">
      <component glyphName="e" x="0" y="0" flags="0x204"/>
    </TTGlyph>
    <TTGlyph name="afii10071" xMin="98" yMin="-20" xMax="966" yMax="1495">
      <component glyphName="e" x="0" y="0" flags="0x204"/>
      <component glyphName="dieresis" x="-44" y="0" flags="0x4"/>
    </TTGlyph>
    <TTGlyph name="afii10072" xMin="-33" yMin="-20" xMax="1788" yMax="1118">
      <contour>
        <pt x="778" y="485" on="1"/>
        <pt x="616" y="485" on="1"/>
        <pt x="563" y="252" on="0"/>
        <pt x="285" y="-20" on="0"/>
        <pt x="90" y="-20" on="1"/>
        <pt x="19" y="-20" on="0"/>
        <pt x="-33" y="-4" on="1"/>
        <pt x="-6" y="143" on="1"/>
        <pt x="41" y="129" on="0"/>
        <pt x="92" y="129" on="1"/>
        <pt x="191" y="129" on="0"/>
        <pt x="356" y="271" on="0"/>
        <pt x="459" y="541" on="0"/>
        <pt x="459" y="692" on="1"/>
        <pt x="459" y="825" on="0"/>
        <pt x="358" y="967" on="0"/>
        <pt x="262" y="967" on="1"/>
        <pt x="209" y="967" on="0"/>
        <pt x="147" y="952" on="1"/>
        <pt x="147" y="1100" on="1"/>
        <pt x="234" y="1118" on="0"/>
        <pt x="289" y="1118" on="1"/>
        <pt x="461" y="1118" on="0"/>
        <pt x="641" y="900" on="0"/>
        <pt x="641" y="696" on="1"/>
        <pt x="641" y="657" on="0"/>
        <pt x="637" y="623" on="1"/>
        <pt x="805" y="623" on="1"/>
        <pt x="905" y="1098" on="1"/>
        <pt x="1071" y="1098" on="1"/>
        <pt x="969" y="623" on="1"/>
        <pt x="1130" y="623" on="1"/>
        <pt x="1163" y="773" on="0"/>
        <pt x="1317" y="1003" on="0"/>
        <pt x="1524" y="1118" on="0"/>
        <pt x="1647" y="1118" on="1"/>
        <pt x="1727" y="1118" on="0"/>
        <pt x="1788" y="1100" on="1"/>
        <pt x="1755" y="954" on="1"/>
        <pt x="1712" y="967" on="0"/>
        <pt x="1649" y="967" on="1"/>
        <pt x="1550" y="967" on="0"/>
        <pt x="1389" y="826" on="0"/>
        <pt x="1290" y="558" on="0"/>
        <pt x="1290" y="406" on="1"/>
        <pt x="1290" y="265" on="0"/>
        <pt x="1390" y="129" on="0"/>
        <pt x="1483" y="129" on="1"/>
        <pt x="1539" y="129" on="0"/>
        <pt x="1597" y="145" on="1"/>
        <pt x="1597" y="-4" on="1"/>
        <pt x="1514" y="-20" on="0"/>
        <pt x="1458" y="-20" on="1"/>
        <pt x="1289" y="-20" on="0"/>
        <pt x="1106" y="195" on="0"/>
        <pt x="1106" y="401" on="1"/>
        <pt x="1106" y="457" on="0"/>
        <pt x="1110" y="485" on="1"/>
        <pt x="940" y="485" on="1"/>
        <pt x="838" y="0" on="1"/>
        <pt x="674" y="0" on="1"/>
      </contour>
    </TTGlyph>
    <TTGlyph name="afii10073" xMin="-2" yMin="-20" xMax="854" yMax="1118">
      <contour>
        <pt x="387" y="645" on="1"/>
        <pt x="674" y="645" on="0"/>
        <pt x="674" y="834" on="1"/>
        <pt x="674" y="895" on="0"/>
        <pt x="590" y="967" on="0"/>
        <pt x="504" y="967" on="1"/>
        <pt x="432" y="967" on="0"/>
        <pt x="301" y="932" on="0"/>
        <pt x="221" y="897" on="1"/>
        <pt x="168" y="1034" on="1"/>
        <pt x="259" y="1077" on="0"/>
        <pt x="428" y="1118" on="0"/>
        <pt x="528" y="1118" on="1"/>
        <pt x="681" y="1118" on="0"/>
        <pt x="854" y="983" on="0"/>
        <pt x="854" y="860" on="1"/>
        <pt x="854" y="749" on="0"/>
        <pt x="721" y="603" on="0"/>
        <pt x="596" y="575" on="1"/>
        <pt x="596" y="571" on="1"/>
        <pt x="782" y="522" on="0"/>
        <pt x="782" y="338" on="1"/>
        <pt x="782" y="172" on="0"/>
        <pt x="533" y="-20" on="0"/>
        <pt x="313" y="-20" on="1"/>
        <pt x="229" y="-20" on="0"/>
        <pt x="59" y="16" on="0"/>
        <pt x="-2" y="49" on="1"/>
        <pt x="-2" y="215" on="1"/>
        <pt x="72" y="172" on="0"/>
        <pt x="246" y="127" on="0"/>
        <pt x="328" y="127" on="1"/>
        <pt x="459" y="127" on="0"/>
        <pt x="610" y="240" on="0"/>
        <pt x="610" y="332" on="1"/>
        <pt x="610" y="418" on="0"/>
        <pt x="510" y="494" on="0"/>
        <pt x="403" y="494" on="1"/>
        <pt x="252" y="494" on="1"/>
        <pt x="287" y="645" on="1"/>
      </contour>
    </TTGlyph>
    <TTGlyph name="afii10074" xMin="113" yMin="-20" xMax="1126" yMax="1098">
      <component glyphName="u" x="0" y="0" flags="0x204"/>
    </TTGlyph>
    <TTGlyph name="afii10075" xMin="113" yMin="-20" xMax="1145" yMax="1556">
      <component glyphName="u" x="0" y="0" flags="0x204"/>
      <component glyphName="glyph00566" x="51" y="0" flags="0x4"/>
    </TTGlyph>
    <TTGlyph name="afii10076" xMin="57" yMin="0" xMax="1092" yMax="1098">
      <contour>
        <pt x="866" y="1098" on="1"/>
        <pt x="1092" y="1098" on="1"/>
        <pt x="549" y="555" on="1"/>
        <pt x="915" y="0" on="1"/>
        <pt x="700" y="0" on="1"/>
        <pt x="352" y="547" on="1"/>
        <pt x="238" y="0" on="1"/>
        <pt x="57" y="0" on="1"/>
        <pt x="289" y="1098" on="1"/>
        <pt x="467" y="1098" on="1"/>
        <pt x="354" y="569" on="1"/>
      </contour>
    </TTGlyph>
    <TTGlyph name="afii10077" xMin="-90" yMin="-14" xMax="1049" yMax="1108">
      <contour>
        <pt x="819" y="0" on="1"/>
        <pt x="637" y="0" on="1"/>
        <pt x="844" y="948" on="1"/>
        <pt x="807" y="956" on="0"/>
        <pt x="766" y="956" on="1"/>
        <pt x="690" y="956" on="0"/>
        <pt x="596" y="897" on="0"/>
        <pt x="517" y="754" on="0"/>
        <pt x="432" y="510" on="1"/>
        <pt x="341" y="252" on="0"/>
        <pt x="231" y="73" on="0"/>
        <pt x="93" y="-14" on="0"/>
        <pt x="-6" y="-14" on="1"/>
        <pt x="-56" y="-14" on="0"/>
        <pt x="-90" y="0" on="1"/>
        <pt x="-90" y="156" on="1"/>
        <pt x="-64" y="143" on="0"/>
        <pt x="-23" y="143" on="1"/>
        <pt x="36" y="143" on="0"/>
        <pt x="124" y="213" on="0"/>
        <pt x="205" y="368" on="0"/>
        <pt x="274" y="571" on="1"/>
        <pt x="322" y="708" on="0"/>
        <pt x="406" y="910" on="0"/>
        <pt x="518" y="1043" on="0"/>
        <pt x="675" y="1108" on="0"/>
        <pt x="795" y="1108" on="1"/>
        <pt x="931" y="1108" on="0"/>
        <pt x="1049" y="1073" on="1"/>
      </contour>
    </TTGlyph>
    <TTGlyph name="afii10078" xMin="57" yMin="0" xMax="1372" yMax="1098">
      <contour>
        <pt x="1163" y="874" on="1"/>
        <pt x="1146" y="835" on="0"/>
        <pt x="1044" y="662" on="1"/>
        <pt x="664" y="0" on="1"/>
        <pt x="530" y="0" on="1"/>
        <pt x="424" y="662" on="1"/>
        <pt x="404" y="800" on="0"/>
        <pt x="401" y="872" on="1"/>
        <pt x="215" y="0" on="1"/>
        <pt x="57" y="0" on="1"/>
        <pt x="291" y="1098" on="1"/>
        <pt x="496" y="1098" on="1"/>
        <pt x="606" y="395" on="1"/>
        <pt x="628" y="236" on="0"/>
        <pt x="631" y="180" on="1"/>
        <pt x="665" y="257" on="0"/>
        <pt x="754" y="412" on="1"/>
        <pt x="1151" y="1098" on="1"/>
        <pt x="1372" y="1098" on="1"/>
        <pt x="1137" y="0" on="1"/>
        <pt x="977" y="0" on="1"/>
      </contour>
    </TTGlyph>
    <TTGlyph name="afii10079" xMin="57" yMin="0" xMax="1169" yMax="1098">
      <contour>
        <pt x="469" y="1098" on="1"/>
        <pt x="375" y="641" on="1"/>
        <pt x="891" y="641" on="1"/>
        <pt x="989" y="1098" on="1"/>
        <pt x="1169" y="1098" on="1"/>
        <pt x="938" y="0" on="1"/>
        <pt x="756" y="0" on="1"/>
        <pt x="858" y="492" on="1"/>
        <pt x="342" y="492" on="1"/>
        <pt x="238" y="0" on="1"/>
        <pt x="57" y="0" on="1"/>
        <pt x="291" y="1098" on="1"/>
      </contour>
    </TTGlyph>
    <TTGlyph name="afii10080" xMin="98" yMin="-16" xMax="1057" yMax="1112">
      <component glyphName="o" x="0" y="0" flags="0x204"/>
    </TTGlyph>
    <TTGlyph name="afii10081" xMin="57" yMin="0" xMax="1071" yMax="1118">
      <component glyphName="n" x="0" y="0" flags="0x204"/>
    </TTGlyph>
    <TTGlyph name="afii10082" xMin="-45" yMin="-492" xMax="1085" yMax="1116">
      <component glyphName="p" x="0" y="0" flags="0x204"/>
    </TTGlyph>
    <TTGlyph name="afii10083" xMin="98" yMin="-20" xMax="944" yMax="1118">
      <component glyphName="c" x="0" y="0" flags="0x204"/>
    </TTGlyph>
    <TTGlyph name="afii10084" xMin="57" yMin="0" xMax="1677" yMax="1118">
      <component glyphName="m" x="0" y="0" flags="0x204"/>
    </TTGlyph>
    <TTGlyph name="afii10085" xMin="-193" yMin="-492" xMax="1055" yMax="1098">
      <component glyphName="y" x="0" y="0" flags="0x204"/>
    </TTGlyph>
    <TTGlyph name="afii10086" xMin="98" yMin="-492" xMax="1282" yMax="1556">
      <contour>
        <pt x="891" y="1114" on="1"/>
        <pt x="1080" y="1089" on="0"/>
        <pt x="1282" y="852" on="0"/>
        <pt x="1282" y="655" on="1"/>
        <pt x="1282" y="469" on="0"/>
        <pt x="1123" y="160" on="0"/>
        <pt x="834" y="-14" on="0"/>
        <pt x="651" y="-16" on="1"/>
        <pt x="551" y="-492" on="1"/>
        <pt x="385" y="-492" on="1"/>
        <pt x="485" y="-18" on="1"/>
        <pt x="297" y="6" on="0"/>
        <pt x="98" y="246" on="0"/>
        <pt x="98" y="449" on="1"/>
        <pt x="98" y="633" on="0"/>
        <pt x="252" y="933" on="0"/>
        <pt x="538" y="1108" on="0"/>
        <pt x="725" y="1114" on="1"/>
        <pt x="819" y="1556" on="1"/>
        <pt x="985" y="1556" on="1"/>
      </contour>
      <contour>
        <pt x="283" y="453" on="1"/>
        <pt x="283" y="312" on="0"/>
        <pt x="408" y="142" on="0"/>
        <pt x="518" y="133" on="1"/>
        <pt x="694" y="965" on="1"/>
        <pt x="568" y="958" on="0"/>
        <pt x="382" y="823" on="0"/>
        <pt x="283" y="594" on="0"/>
      </contour>
      <contour>
        <pt x="684" y="133" on="1"/>
        <pt x="811" y="139" on="0"/>
        <pt x="998" y="276" on="0"/>
        <pt x="1098" y="507" on="0"/>
        <pt x="1098" y="647" on="1"/>
        <pt x="1098" y="785" on="0"/>
        <pt x="976" y="950" on="0"/>
        <pt x="862" y="961" on="1"/>
      </contour>
    </TTGlyph>
    <TTGlyph name="afii10087" xMin="-76" yMin="0" xMax="1044" yMax="1098">
      <component glyphName="x" x="0" y="0" flags="0x204"/>
    </TTGlyph>
    <TTGlyph name="afii10088" xMin="113" yMin="-381" xMax="1126" yMax="1098">
      <contour>
        <pt x="461" y="1098" on="1"/>
        <pt x="313" y="408" on="1"/>
        <pt x="295" y="318" on="0"/>
        <pt x="295" y="270" on="1"/>
        <pt x="295" y="129" on="0"/>
        <pt x="438" y="129" on="1"/>
        <pt x="525" y="129" on="0"/>
        <pt x="688" y="247" on="0"/>
        <pt x="816" y="472" on="0"/>
        <pt x="848" y="625" on="1"/>
        <pt x="948" y="1098" on="1"/>
        <pt x="1126" y="1098" on="1"/>
        <pt x="963" y="324" on="1"/>
        <pt x="946" y="254" on="0"/>
        <pt x="946" y="203" on="1"/>
        <pt x="946" y="168" on="0"/>
        <pt x="984" y="125" on="0"/>
        <pt x="1024" y="125" on="1"/>
        <pt x="1051" y="125" on="0"/>
        <pt x="1102" y="139" on="1"/>
        <pt x="987" y="-381" on="1"/>
        <pt x="805" y="-381" on="1"/>
        <pt x="887" y="-14" on="1"/>
        <pt x="825" y="3" on="0"/>
        <pt x="768" y="102" on="0"/>
        <pt x="768" y="199" on="1"/>
        <pt x="760" y="199" on="1"/>
        <pt x="605" y="-20" on="0"/>
        <pt x="389" y="-20" on="1"/>
        <pt x="259" y="-20" on="0"/>
        <pt x="113" y="123" on="0"/>
        <pt x="113" y="252" on="1"/>
        <pt x="113" y="316" on="0"/>
        <pt x="135" y="428" on="1"/>
        <pt x="279" y="1098" on="1"/>
      </contour>
    </TTGlyph>
    <TTGlyph name="afii10089" xMin="158" yMin="0" xMax="1085" yMax="1098">
      <contour>
        <pt x="418" y="1098" on="1"/>
        <pt x="379" y="912" on="0"/>
        <pt x="336" y="708" on="0"/>
        <pt x="340" y="676" on="1"/>
        <pt x="340" y="603" on="0"/>
        <pt x="410" y="530" on="0"/>
        <pt x="489" y="530" on="1"/>
        <pt x="632" y="530" on="0"/>
        <pt x="834" y="766" on="0"/>
        <pt x="881" y="983" on="1"/>
        <pt x="905" y="1098" on="1"/>
        <pt x="1085" y="1098" on="1"/>
        <pt x="852" y="0" on="1"/>
        <pt x="668" y="0" on="1"/>
        <pt x="714" y="217" on="0"/>
        <pt x="763" y="456" on="0"/>
        <pt x="801" y="567" on="1"/>
        <pt x="793" y="567" on="1"/>
        <pt x="725" y="477" on="0"/>
        <pt x="544" y="379" on="0"/>
        <pt x="438" y="379" on="1"/>
        <pt x="299" y="379" on="0"/>
        <pt x="158" y="522" on="0"/>
        <pt x="158" y="659" on="1"/>
        <pt x="158" y="713" on="0"/>
        <pt x="182" y="846" on="1"/>
        <pt x="236" y="1098" on="1"/>
      </contour>
    </TTGlyph>
    <TTGlyph name="afii10090" xMin="113" yMin="-20" xMax="1733" yMax="1098">
      <contour>
        <pt x="1098" y="1098" on="1"/>
        <pt x="950" y="410" on="1"/>
        <pt x="932" y="316" on="0"/>
        <pt x="932" y="274" on="1"/>
        <pt x="932" y="131" on="0"/>
        <pt x="1065" y="131" on="1"/>
        <pt x="1148" y="131" on="0"/>
        <pt x="1302" y="250" on="0"/>
        <pt x="1420" y="471" on="0"/>
        <pt x="1452" y="625" on="1"/>
        <pt x="1552" y="1098" on="1"/>
        <pt x="1733" y="1098" on="1"/>
        <pt x="1499" y="0" on="1"/>
        <pt x="1352" y="0" on="1"/>
        <pt x="1374" y="203" on="1"/>
        <pt x="1364" y="203" on="1"/>
        <pt x="1274" y="81" on="0"/>
        <pt x="1104" y="-20" on="0"/>
        <pt x="1012" y="-20" on="1"/>
        <pt x="899" y="-20" on="0"/>
        <pt x="776" y="109" on="0"/>
        <pt x="764" y="223" on="1"/>
        <pt x="756" y="223" on="1"/>
        <pt x="589" y="-20" on="0"/>
        <pt x="379" y="-20" on="1"/>
        <pt x="251" y="-20" on="0"/>
        <pt x="113" y="119" on="0"/>
        <pt x="113" y="250" on="1"/>
        <pt x="113" y="318" on="0"/>
        <pt x="135" y="430" on="1"/>
        <pt x="276" y="1098" on="1"/>
        <pt x="459" y="1098" on="1"/>
        <pt x="313" y="410" on="1"/>
        <pt x="293" y="306" on="0"/>
        <pt x="293" y="266" on="1"/>
        <pt x="293" y="204" on="0"/>
        <pt x="360" y="131" on="0"/>
        <pt x="432" y="131" on="1"/>
        <pt x="510" y="131" on="0"/>
        <pt x="662" y="245" on="0"/>
        <pt x="781" y="458" on="0"/>
        <pt x="811" y="602" on="1"/>
        <pt x="918" y="1098" on="1"/>
      </contour>
    </TTGlyph>
    <TTGlyph name="afii10091" xMin="113" yMin="-381" xMax="1733" yMax="1098">
      <contour>
        <pt x="1098" y="1098" on="1"/>
        <pt x="950" y="408" on="1"/>
        <pt x="932" y="318" on="0"/>
        <pt x="932" y="274" on="1"/>
        <pt x="932" y="205" on="0"/>
        <pt x="993" y="131" on="0"/>
        <pt x="1065" y="131" on="1"/>
        <pt x="1148" y="131" on="0"/>
        <pt x="1302" y="250" on="0"/>
        <pt x="1420" y="471" on="0"/>
        <pt x="1452" y="625" on="1"/>
        <pt x="1552" y="1098" on="1"/>
        <pt x="1733" y="1098" on="1"/>
        <pt x="1569" y="324" on="1"/>
        <pt x="1554" y="239" on="0"/>
        <pt x="1554" y="203" on="1"/>
        <pt x="1554" y="165" on="0"/>
        <pt x="1595" y="125" on="0"/>
        <pt x="1630" y="125" on="1"/>
        <pt x="1656" y="125" on="0"/>
        <pt x="1696" y="136" on="0"/>
        <pt x="1710" y="139" on="1"/>
        <pt x="1593" y="-381" on="1"/>
        <pt x="1413" y="-381" on="1"/>
        <pt x="1493" y="-14" on="1"/>
        <pt x="1431" y="3" on="0"/>
        <pt x="1372" y="102" on="0"/>
        <pt x="1370" y="199" on="1"/>
        <pt x="1364" y="199" on="1"/>
        <pt x="1212" y="-20" on="0"/>
        <pt x="1012" y="-20" on="1"/>
        <pt x="899" y="-20" on="0"/>
        <pt x="776" y="109" on="0"/>
        <pt x="764" y="223" on="1"/>
        <pt x="756" y="223" on="1"/>
        <pt x="589" y="-20" on="0"/>
        <pt x="379" y="-20" on="1"/>
        <pt x="251" y="-20" on="0"/>
        <pt x="113" y="119" on="0"/>
        <pt x="113" y="250" on="1"/>
        <pt x="113" y="313" on="0"/>
        <pt x="135" y="430" on="1"/>
        <pt x="276" y="1098" on="1"/>
        <pt x="459" y="1098" on="1"/>
        <pt x="313" y="408" on="1"/>
        <pt x="293" y="308" on="0"/>
        <pt x="293" y="266" on="1"/>
        <pt x="293" y="204" on="0"/>
        <pt x="360" y="131" on="0"/>
        <pt x="432" y="131" on="1"/>
        <pt x="510" y="131" on="0"/>
        <pt x="665" y="248" on="0"/>
        <pt x="782" y="460" on="0"/>
        <pt x="811" y="602" on="1"/>
        <pt x="918" y="1098" on="1"/>
      </contour>
    </TTGlyph>
    <TTGlyph name="afii10092" xMin="84" yMin="-20" xMax="1100" yMax="1098">
      <contour>
        <pt x="645" y="1098" on="1"/>
        <pt x="543" y="621" on="1"/>
        <pt x="674" y="645" on="0"/>
        <pt x="762" y="645" on="1"/>
        <pt x="933" y="645" on="0"/>
        <pt x="1100" y="494" on="0"/>
        <pt x="1100" y="354" on="1"/>
        <pt x="1100" y="243" on="0"/>
        <pt x="998" y="74" on="0"/>
        <pt x="802" y="-20" on="0"/>
        <pt x="668" y="-20" on="1"/>
        <pt x="495" y="-20" on="0"/>
        <pt x="311" y="141" on="0"/>
        <pt x="311" y="295" on="1"/>
        <pt x="311" y="372" on="0"/>
        <pt x="334" y="487" on="1"/>
        <pt x="432" y="944" on="1"/>
        <pt x="84" y="944" on="1"/>
        <pt x="117" y="1098" on="1"/>
      </contour>
      <contour>
        <pt x="489" y="311" on="1"/>
        <pt x="489" y="127" on="0"/>
        <pt x="682" y="127" on="1"/>
        <pt x="795" y="127" on="0"/>
        <pt x="922" y="243" on="0"/>
        <pt x="922" y="340" on="1"/>
        <pt x="922" y="428" on="0"/>
        <pt x="818" y="498" on="0"/>
        <pt x="713" y="498" on="1"/>
        <pt x="629" y="498" on="0"/>
        <pt x="512" y="477" on="1"/>
        <pt x="489" y="362" on="0"/>
      </contour>
    </TTGlyph>
    <TTGlyph name="afii10093" xMin="127" yMin="-20" xMax="1432" yMax="1098">
      <contour>
        <pt x="461" y="1098" on="1"/>
        <pt x="358" y="621" on="1"/>
        <pt x="491" y="645" on="0"/>
        <pt x="578" y="645" on="1"/>
        <pt x="745" y="645" on="0"/>
        <pt x="911" y="496" on="0"/>
        <pt x="911" y="356" on="1"/>
        <pt x="911" y="183" on="0"/>
        <pt x="682" y="-20" on="0"/>
        <pt x="483" y="-20" on="1"/>
        <pt x="309" y="-20" on="0"/>
        <pt x="127" y="142" on="0"/>
        <pt x="127" y="295" on="1"/>
        <pt x="127" y="384" on="0"/>
        <pt x="150" y="487" on="1"/>
        <pt x="279" y="1098" on="1"/>
      </contour>
      <contour>
        <pt x="526" y="498" on="1"/>
        <pt x="440" y="498" on="0"/>
        <pt x="328" y="477" on="1"/>
        <pt x="305" y="371" on="0"/>
        <pt x="305" y="311" on="1"/>
        <pt x="305" y="127" on="0"/>
        <pt x="494" y="127" on="1"/>
        <pt x="603" y="127" on="0"/>
        <pt x="733" y="240" on="0"/>
        <pt x="733" y="340" on="1"/>
        <pt x="733" y="429" on="0"/>
        <pt x="628" y="498" on="0"/>
      </contour>
      <contour>
        <pt x="1198" y="0" on="1"/>
        <pt x="1020" y="0" on="1"/>
        <pt x="1251" y="1098" on="1"/>
        <pt x="1432" y="1098" on="1"/>
      </contour>
    </TTGlyph>
    <TTGlyph name="afii10094" xMin="127" yMin="-20" xMax="944" yMax="1098">
      <contour>
        <pt x="356" y="621" on="1"/>
        <pt x="500" y="645" on="0"/>
        <pt x="598" y="645" on="1"/>
        <pt x="766" y="645" on="0"/>
        <pt x="944" y="498" on="0"/>
        <pt x="944" y="354" on="1"/>
        <pt x="944" y="246" on="0"/>
        <pt x="836" y="75" on="0"/>
        <pt x="631" y="-20" on="0"/>
        <pt x="494" y="-20" on="1"/>
        <pt x="320" y="-20" on="0"/>
        <pt x="127" y="134" on="0"/>
        <pt x="127" y="297" on="1"/>
        <pt x="127" y="384" on="0"/>
        <pt x="150" y="487" on="1"/>
        <pt x="279" y="1098" on="1"/>
        <pt x="461" y="1098" on="1"/>
      </contour>
      <contour>
        <pt x="555" y="498" on="1"/>
        <pt x="442" y="498" on="0"/>
        <pt x="328" y="477" on="1"/>
        <pt x="305" y="373" on="0"/>
        <pt x="305" y="311" on="1"/>
        <pt x="305" y="217" on="0"/>
        <pt x="407" y="127" on="0"/>
        <pt x="510" y="127" on="1"/>
        <pt x="630" y="127" on="0"/>
        <pt x="766" y="240" on="0"/>
        <pt x="766" y="340" on="1"/>
        <pt x="766" y="421" on="0"/>
        <pt x="661" y="498" on="0"/>
      </contour>
    </TTGlyph>
    <TTGlyph name="afii10095" xMin="20" yMin="-20" xMax="840" yMax="1116">
      <contour>
        <pt x="432" y="1116" on="1"/>
        <pt x="631" y="1116" on="0"/>
        <pt x="840" y="888" on="0"/>
        <pt x="840" y="674" on="1"/>
        <pt x="840" y="463" on="0"/>
        <pt x="699" y="140" on="0"/>
        <pt x="448" y="-20" on="0"/>
        <pt x="276" y="-20" on="1"/>
        <pt x="207" y="-20" on="0"/>
        <pt x="62" y="8" on="0"/>
        <pt x="20" y="29" on="1"/>
        <pt x="20" y="190" on="1"/>
        <pt x="161" y="131" on="0"/>
        <pt x="276" y="131" on="1"/>
        <pt x="421" y="131" on="0"/>
        <pt x="608" y="318" on="0"/>
        <pt x="639" y="487" on="1"/>
        <pt x="168" y="487" on="1"/>
        <pt x="199" y="639" on="1"/>
        <pt x="657" y="639" on="1"/>
        <pt x="657" y="670" on="1"/>
        <pt x="657" y="825" on="0"/>
        <pt x="533" y="967" on="0"/>
        <pt x="414" y="967" on="1"/>
        <pt x="299" y="967" on="0"/>
        <pt x="174" y="909" on="1"/>
        <pt x="121" y="1047" on="1"/>
        <pt x="183" y="1074" on="0"/>
        <pt x="333" y="1116" on="0"/>
      </contour>
    </TTGlyph>
    <TTGlyph name="afii10096" xMin="57" yMin="-16" xMax="1509" yMax="1112">
      <contour>
        <pt x="1509" y="688" on="1"/>
        <pt x="1509" y="490" on="0"/>
        <pt x="1371" y="162" on="0"/>
        <pt x="1134" y="-16" on="0"/>
        <pt x="983" y="-16" on="1"/>
        <pt x="800" y="-16" on="0"/>
        <pt x="592" y="211" on="0"/>
        <pt x="592" y="406" on="1"/>
        <pt x="594" y="492" on="1"/>
        <pt x="342" y="492" on="1"/>
        <pt x="238" y="0" on="1"/>
        <pt x="57" y="0" on="1"/>
        <pt x="291" y="1098" on="1"/>
        <pt x="469" y="1098" on="1"/>
        <pt x="375" y="641" on="1"/>
        <pt x="618" y="641" on="1"/>
        <pt x="683" y="871" on="0"/>
        <pt x="943" y="1112" on="0"/>
        <pt x="1118" y="1112" on="1"/>
        <pt x="1301" y="1112" on="0"/>
        <pt x="1509" y="887" on="0"/>
      </contour>
      <contour>
        <pt x="1116" y="963" on="1"/>
        <pt x="1015" y="963" on="0"/>
        <pt x="860" y="816" on="0"/>
        <pt x="774" y="549" on="0"/>
        <pt x="774" y="399" on="1"/>
        <pt x="774" y="273" on="0"/>
        <pt x="888" y="133" on="0"/>
        <pt x="995" y="133" on="1"/>
        <pt x="1088" y="133" on="0"/>
        <pt x="1241" y="279" on="0"/>
        <pt x="1325" y="544" on="0"/>
        <pt x="1325" y="709" on="1"/>
        <pt x="1325" y="825" on="0"/>
        <pt x="1214" y="963" on="0"/>
      </contour>
    </TTGlyph>
    <TTGlyph name="afii10097" xMin="-41" yMin="-12" xMax="1026" yMax="1098">
      <contour>
        <pt x="575" y="432" on="1"/>
        <pt x="520" y="432" on="0"/>
        <pt x="443" y="399" on="0"/>
        <pt x="383" y="329" on="0"/>
        <pt x="342" y="244" on="1"/>
        <pt x="284" y="124" on="0"/>
        <pt x="206" y="32" on="0"/>
        <pt x="110" y="-12" on="0"/>
        <pt x="43" y="-12" on="1"/>
        <pt x="-7" y="-12" on="0"/>
        <pt x="-41" y="0" on="1"/>
        <pt x="-41" y="143" on="1"/>
        <pt x="-19" y="137" on="0"/>
        <pt x="10" y="137" on="1"/>
        <pt x="62" y="137" on="0"/>
        <pt x="132" y="207" on="0"/>
        <pt x="178" y="303" on="1"/>
        <pt x="250" y="456" on="0"/>
        <pt x="365" y="498" on="1"/>
        <pt x="270" y="527" on="0"/>
        <pt x="174" y="657" on="0"/>
        <pt x="174" y="750" on="1"/>
        <pt x="174" y="912" on="0"/>
        <pt x="406" y="1098" on="0"/>
        <pt x="608" y="1098" on="1"/>
        <pt x="1026" y="1098" on="1"/>
        <pt x="795" y="0" on="1"/>
        <pt x="616" y="0" on="1"/>
        <pt x="709" y="432" on="1"/>
      </contour>
      <contour>
        <pt x="580" y="944" on="1"/>
        <pt x="470" y="944" on="0"/>
        <pt x="352" y="841" on="0"/>
        <pt x="352" y="750" on="1"/>
        <pt x="352" y="586" on="0"/>
        <pt x="561" y="586" on="1"/>
        <pt x="741" y="586" on="1"/>
        <pt x="817" y="944" on="1"/>
      </contour>
    </TTGlyph>
    <TTGlyph name="afii10098" xMin="57" yMin="0" xMax="944" yMax="1415">
      <contour>
        <pt x="846" y="963" on="1"/>
        <pt x="440" y="963" on="1"/>
        <pt x="238" y="0" on="1"/>
        <pt x="57" y="0" on="1"/>
        <pt x="291" y="1098" on="1"/>
        <pt x="692" y="1098" on="1"/>
        <pt x="762" y="1415" on="1"/>
        <pt x="944" y="1415" on="1"/>
      </contour>
    </TTGlyph>
    <TTGlyph name="afii10099" xMin="57" yMin="-492" xMax="1063" yMax="1556">
      <contour>
        <pt x="526" y="1372" on="1"/>
        <pt x="872" y="1372" on="1"/>
        <pt x="842" y="1237" on="1"/>
        <pt x="502" y="1237" on="1"/>
        <pt x="470" y="1096" on="0"/>
        <pt x="433" y="934" on="0"/>
        <pt x="408" y="856" on="1"/>
        <pt x="418" y="856" on="1"/>
        <pt x="565" y="1077" on="0"/>
        <pt x="786" y="1077" on="1"/>
        <pt x="915" y="1077" on="0"/>
        <pt x="1063" y="934" on="0"/>
        <pt x="1063" y="795" on="1"/>
        <pt x="1063" y="733" on="0"/>
        <pt x="1040" y="627" on="1"/>
        <pt x="872" y="-158" on="1"/>
        <pt x="835" y="-334" on="0"/>
        <pt x="672" y="-492" on="0"/>
        <pt x="537" y="-492" on="1"/>
        <pt x="466" y="-492" on="0"/>
        <pt x="410" y="-471" on="1"/>
        <pt x="410" y="-317" on="1"/>
        <pt x="462" y="-340" on="0"/>
        <pt x="528" y="-340" on="1"/>
        <pt x="652" y="-340" on="0"/>
        <pt x="694" y="-137" on="1"/>
        <pt x="862" y="647" on="1"/>
        <pt x="883" y="757" on="0"/>
        <pt x="883" y="782" on="1"/>
        <pt x="883" y="926" on="0"/>
        <pt x="737" y="926" on="1"/>
        <pt x="651" y="926" on="0"/>
        <pt x="488" y="808" on="0"/>
        <pt x="362" y="585" on="0"/>
        <pt x="330" y="432" on="1"/>
        <pt x="238" y="0" on="1"/>
        <pt x="57" y="0" on="1"/>
        <pt x="319" y="1237" on="1"/>
        <pt x="168" y="1237" on="1"/>
        <pt x="199" y="1372" on="1"/>
        <pt x="348" y="1372" on="1"/>
        <pt x="387" y="1556" on="1"/>
        <pt x="567" y="1556" on="1"/>
      </contour>
      <contour>
        <pt x="1026" y="1096" on="1"/>
      </contour>
    </TTGlyph>
    <TTGlyph name="afii10100" xMin="51" yMin="-20" xMax="973" yMax="1569">
      <component glyphName="afii10068" x="0" y="0" flags="0x204"/>
      <component glyphName="acute" x="10" y="0" flags="0x4"/>
    </TTGlyph>
    <TTGlyph name="afii10101" xMin="98" yMin="-20" xMax="944" yMax="1118">
      <contour>
        <pt x="506" y="-20" on="1"/>
        <pt x="312" y="-20" on="0"/>
        <pt x="98" y="194" on="0"/>
        <pt x="98" y="389" on="1"/>
        <pt x="98" y="590" on="0"/>
        <pt x="249" y="937" on="0"/>
        <pt x="508" y="1118" on="0"/>
        <pt x="672" y="1118" on="1"/>
        <pt x="819" y="1118" on="0"/>
        <pt x="944" y="1065" on="1"/>
        <pt x="893" y="915" on="1"/>
        <pt x="778" y="967" on="0"/>
        <pt x="674" y="967" on="1"/>
        <pt x="551" y="967" on="0"/>
        <pt x="364" y="796" on="0"/>
        <pt x="317" y="639" on="1"/>
        <pt x="778" y="639" on="1"/>
        <pt x="743" y="487" on="1"/>
        <pt x="285" y="487" on="1"/>
        <pt x="281" y="455" on="0"/>
        <pt x="281" y="391" on="1"/>
        <pt x="281" y="267" on="0"/>
        <pt x="412" y="129" on="0"/>
        <pt x="524" y="129" on="1"/>
        <pt x="581" y="129" on="0"/>
        <pt x="696" y="155" on="0"/>
        <pt x="788" y="197" on="1"/>
        <pt x="788" y="45" on="1"/>
        <pt x="660" y="-20" on="0"/>
      </contour>
    </TTGlyph>
    <TTGlyph name="afii10102" xMin="10" yMin="-20" xMax="844" yMax="1118">
      <component glyphName="s" x="0" y="0" flags="0x204"/>
    </TTGlyph>
    <TTGlyph name="afii10103" xMin="57" yMin="0" xMax="553" yMax="1507">
      <component glyphName="i" x="0" y="0" flags="0x204"/>
    </TTGlyph>
    <TTGlyph name="afii10104" xMin="57" yMin="0" xMax="716" yMax="1495">
      <component glyphName="dotlessi" x="0" y="0" flags="0x204"/>
      <component glyphName="dieresis" x="-294" y="0" flags="0x4"/>
    </TTGlyph>
    <TTGlyph name="afii10105" xMin="-258" yMin="-492" xMax="551" yMax="1507">
      <component glyphName="j" x="0" y="0" flags="0x204"/>
    </TTGlyph>
    <TTGlyph name="afii10106" xMin="-90" yMin="-20" xMax="1452" yMax="1108">
      <contour>
        <pt x="893" y="621" on="1"/>
        <pt x="1029" y="645" on="0"/>
        <pt x="1114" y="645" on="1"/>
        <pt x="1285" y="645" on="0"/>
        <pt x="1452" y="494" on="0"/>
        <pt x="1452" y="354" on="1"/>
        <pt x="1452" y="243" on="0"/>
        <pt x="1350" y="74" on="0"/>
        <pt x="1154" y="-20" on="0"/>
        <pt x="1020" y="-20" on="1"/>
        <pt x="846" y="-20" on="0"/>
        <pt x="664" y="142" on="0"/>
        <pt x="664" y="295" on="1"/>
        <pt x="664" y="377" on="0"/>
        <pt x="686" y="487" on="1"/>
        <pt x="782" y="948" on="1"/>
        <pt x="753" y="956" on="0"/>
        <pt x="721" y="956" on="1"/>
        <pt x="663" y="956" on="0"/>
        <pt x="587" y="895" on="0"/>
        <pt x="513" y="749" on="0"/>
        <pt x="430" y="510" on="1"/>
        <pt x="355" y="283" on="0"/>
        <pt x="239" y="80" on="0"/>
        <pt x="96" y="-14" on="0"/>
        <pt x="-4" y="-14" on="1"/>
        <pt x="-56" y="-14" on="0"/>
        <pt x="-90" y="0" on="1"/>
        <pt x="-90" y="156" on="1"/>
        <pt x="-67" y="143" on="0"/>
        <pt x="-23" y="143" on="1"/>
        <pt x="36" y="143" on="0"/>
        <pt x="124" y="213" on="0"/>
        <pt x="205" y="368" on="0"/>
        <pt x="274" y="571" on="1"/>
        <pt x="318" y="699" on="0"/>
        <pt x="395" y="899" on="0"/>
        <pt x="498" y="1036" on="0"/>
        <pt x="644" y="1108" on="0"/>
        <pt x="756" y="1108" on="1"/>
        <pt x="875" y="1108" on="0"/>
        <pt x="989" y="1071" on="1"/>
      </contour>
      <contour>
        <pt x="1065" y="498" on="1"/>
        <pt x="976" y="498" on="0"/>
        <pt x="864" y="477" on="1"/>
        <pt x="842" y="367" on="0"/>
        <pt x="842" y="311" on="1"/>
        <pt x="842" y="127" on="0"/>
        <pt x="1034" y="127" on="1"/>
        <pt x="1147" y="127" on="0"/>
        <pt x="1274" y="243" on="0"/>
        <pt x="1274" y="340" on="1"/>
        <pt x="1274" y="428" on="0"/>
        <pt x="1170" y="498" on="0"/>
      </contour>
    </TTGlyph>
    <TTGlyph name="afii10107" xMin="57" yMin="-20" xMax="1546" yMax="1098">
      <contour>
        <pt x="989" y="621" on="1"/>
        <pt x="1117" y="645" on="0"/>
        <pt x="1208" y="645" on="1"/>
        <pt x="1377" y="645" on="0"/>
        <pt x="1546" y="493" on="0"/>
        <pt x="1546" y="354" on="1"/>
        <pt x="1546" y="181" on="0"/>
        <pt x="1311" y="-20" on="0"/>
        <pt x="1114" y="-20" on="1"/>
        <pt x="940" y="-20" on="0"/>
        <pt x="756" y="142" on="0"/>
        <pt x="756" y="295" on="1"/>
        <pt x="756" y="387" on="0"/>
        <pt x="780" y="492" on="1"/>
        <pt x="342" y="492" on="1"/>
        <pt x="240" y="0" on="1"/>
        <pt x="57" y="0" on="1"/>
        <pt x="293" y="1098" on="1"/>
        <pt x="471" y="1098" on="1"/>
        <pt x="375" y="641" on="1"/>
        <pt x="813" y="641" on="1"/>
        <pt x="911" y="1098" on="1"/>
        <pt x="1092" y="1098" on="1"/>
      </contour>
      <contour>
        <pt x="1159" y="498" on="1"/>
        <pt x="1073" y="498" on="0"/>
        <pt x="956" y="477" on="1"/>
        <pt x="934" y="363" on="0"/>
        <pt x="934" y="309" on="1"/>
        <pt x="934" y="127" on="0"/>
        <pt x="1126" y="127" on="1"/>
        <pt x="1239" y="127" on="0"/>
        <pt x="1366" y="241" on="0"/>
        <pt x="1366" y="340" on="1"/>
        <pt x="1366" y="428" on="0"/>
        <pt x="1262" y="498" on="0"/>
      </contour>
    </TTGlyph>
    <TTGlyph name="afii10108" xMin="57" yMin="0" xMax="1067" yMax="1556">
      <component glyphName="hbar" x="0" y="0" flags="0x204"/>
    </TTGlyph>
    <TTGlyph name="afii10109" xMin="57" yMin="0" xMax="1092" yMax="1569">
      <component glyphName="afii10076" x="0" y="0" flags="0x204"/>
      <component glyphName="acute" x="68" y="0" flags="0x4"/>
    </TTGlyph>
    <TTGlyph name="afii10110" xMin="-193" yMin="-492" xMax="1055" yMax="1556">
      <component glyphName="y" x="0" y="0" flags="0x204"/>
      <component glyphName="glyph00566" x="-71" y="0" flags="0x4"/>
    </TTGlyph>
    <TTGlyph name="afii10145" xMin="84" yMin="-385" xMax="1403" yMax="1462">
      <contour>
        <pt x="393" y="1462" on="1"/>
        <pt x="578" y="1462" on="1"/>
        <pt x="301" y="162" on="1"/>
        <pt x="946" y="162" on="1"/>
        <pt x="1221" y="1462" on="1"/>
        <pt x="1403" y="1462" on="1"/>
        <pt x="1094" y="0" on="1"/>
        <pt x="676" y="0" on="1"/>
        <pt x="596" y="-385" on="1"/>
        <pt x="420" y="-385" on="1"/>
        <pt x="504" y="0" on="1"/>
        <pt x="84" y="0" on="1"/>
      </contour>
    </TTGlyph>
    <TTGlyph name="afii10146" xMin="137" yMin="0" xMax="1149" yMax="1462">
      <contour>
        <pt x="1149" y="481" on="1"/>
        <pt x="1149" y="248" on="0"/>
        <pt x="822" y="0" on="0"/>
        <pt x="514" y="0" on="1"/>
        <pt x="213" y="0" on="1"/>
        <pt x="440" y="1077" on="1"/>
        <pt x="137" y="1077" on="1"/>
        <pt x="170" y="1233" on="1"/>
        <pt x="473" y="1233" on="1"/>
        <pt x="524" y="1462" on="1"/>
        <pt x="709" y="1462" on="1"/>
        <pt x="655" y="1233" on="1"/>
        <pt x="1020" y="1233" on="1"/>
        <pt x="987" y="1077" on="1"/>
        <pt x="625" y="1077" on="1"/>
        <pt x="573" y="844" on="1"/>
        <pt x="711" y="844" on="1"/>
        <pt x="928" y="844" on="0"/>
        <pt x="1149" y="660" on="0"/>
      </contour>
      <contour>
        <pt x="428" y="158" on="1"/>
        <pt x="543" y="158" on="1"/>
        <pt x="745" y="158" on="0"/>
        <pt x="963" y="319" on="0"/>
        <pt x="963" y="473" on="1"/>
        <pt x="963" y="584" on="0"/>
        <pt x="824" y="682" on="0"/>
        <pt x="686" y="682" on="1"/>
        <pt x="541" y="682" on="1"/>
      </contour>
    </TTGlyph>
    <TTGlyph name="afii10147" xMin="147" yMin="-20" xMax="1413" yMax="1485">
      <contour>
        <pt x="1413" y="909" on="1"/>
        <pt x="1413" y="634" on="0"/>
        <pt x="1231" y="207" on="0"/>
        <pt x="905" y="-20" on="0"/>
        <pt x="690" y="-20" on="1"/>
        <pt x="433" y="-20" on="0"/>
        <pt x="147" y="278" on="0"/>
        <pt x="147" y="547" on="1"/>
        <pt x="147" y="809" on="0"/>
        <pt x="338" y="1246" on="0"/>
        <pt x="674" y="1485" on="0"/>
        <pt x="887" y="1485" on="1"/>
        <pt x="1134" y="1485" on="0"/>
        <pt x="1413" y="1178" on="0"/>
      </contour>
      <contour>
        <pt x="696" y="141" on="1"/>
        <pt x="877" y="141" on="0"/>
        <pt x="1141" y="422" on="0"/>
        <pt x="1194" y="666" on="1"/>
        <pt x="346" y="666" on="1"/>
        <pt x="340" y="610" on="0"/>
        <pt x="340" y="551" on="1"/>
        <pt x="340" y="358" on="0"/>
        <pt x="530" y="141" on="0"/>
      </contour>
      <contour>
        <pt x="874" y="1323" on="1"/>
        <pt x="694" y="1323" on="0"/>
        <pt x="426" y="1055" on="0"/>
        <pt x="373" y="825" on="1"/>
        <pt x="1214" y="825" on="1"/>
        <pt x="1219" y="875" on="0"/>
        <pt x="1219" y="913" on="1"/>
        <pt x="1219" y="1105" on="0"/>
        <pt x="1036" y="1323" on="0"/>
      </contour>
    </TTGlyph>
    <TTGlyph name="afii10148" xMin="188" yMin="0" xMax="1389" yMax="1475">
      <contour>
        <pt x="1268" y="1475" on="1"/>
        <pt x="1330" y="1475" on="0"/>
        <pt x="1389" y="1458" on="1"/>
        <pt x="1389" y="1311" on="1"/>
        <pt x="1339" y="1329" on="0"/>
        <pt x="1286" y="1329" on="1"/>
        <pt x="1248" y="1329" on="0"/>
        <pt x="1188" y="1287" on="0"/>
        <pt x="1125" y="1193" on="0"/>
        <pt x="1061" y="1065" on="1"/>
        <pt x="545" y="0" on="1"/>
        <pt x="346" y="0" on="1"/>
        <pt x="188" y="1462" on="1"/>
        <pt x="369" y="1462" on="1"/>
        <pt x="461" y="535" on="1"/>
        <pt x="480" y="362" on="0"/>
        <pt x="480" y="247" on="1"/>
        <pt x="479" y="205" on="1"/>
        <pt x="485" y="207" on="1"/>
        <pt x="541" y="374" on="0"/>
        <pt x="621" y="539" on="1"/>
        <pt x="879" y="1083" on="1"/>
        <pt x="974" y="1284" on="0"/>
        <pt x="1073" y="1417" on="0"/>
        <pt x="1185" y="1475" on="0"/>
      </contour>
    </TTGlyph>
    <TTGlyph name="afii10193" xMin="113" yMin="-492" xMax="1126" yMax="1098">
      <contour>
        <pt x="539" y="-70" on="1"/>
        <pt x="580" y="-70" on="1"/>
        <pt x="487" y="-492" on="1"/>
        <pt x="307" y="-492" on="1"/>
        <pt x="389" y="-119" on="1"/>
      </contour>
      <contour>
        <pt x="461" y="1098" on="1"/>
        <pt x="313" y="408" on="1"/>
        <pt x="295" y="318" on="0"/>
        <pt x="295" y="270" on="1"/>
        <pt x="295" y="129" on="0"/>
        <pt x="438" y="129" on="1"/>
        <pt x="525" y="129" on="0"/>
        <pt x="688" y="247" on="0"/>
        <pt x="816" y="472" on="0"/>
        <pt x="848" y="625" on="1"/>
        <pt x="948" y="1098" on="1"/>
        <pt x="1126" y="1098" on="1"/>
        <pt x="893" y="0" on="1"/>
        <pt x="745" y="0" on="1"/>
        <pt x="768" y="203" on="1"/>
        <pt x="758" y="203" on="1"/>
        <pt x="668" y="85" on="0"/>
        <pt x="486" y="-20" on="0"/>
        <pt x="387" y="-20" on="1"/>
        <pt x="259" y="-20" on="0"/>
        <pt x="113" y="123" on="0"/>
        <pt x="113" y="252" on="1"/>
        <pt x="113" y="316" on="0"/>
        <pt x="135" y="428" on="1"/>
        <pt x="279" y="1098" on="1"/>
      </contour>
    </TTGlyph>
    <TTGlyph name="afii10194" xMin="90" yMin="-20" xMax="1012" yMax="1319">
      <contour>
        <pt x="784" y="942" on="1"/>
        <pt x="498" y="942" on="1"/>
        <pt x="426" y="621" on="1"/>
        <pt x="562" y="645" on="0"/>
        <pt x="668" y="645" on="1"/>
        <pt x="844" y="645" on="0"/>
        <pt x="1012" y="493" on="0"/>
        <pt x="1012" y="354" on="1"/>
        <pt x="1012" y="184" on="0"/>
        <pt x="767" y="-20" on="0"/>
        <pt x="561" y="-20" on="1"/>
        <pt x="384" y="-20" on="0"/>
        <pt x="197" y="138" on="0"/>
        <pt x="197" y="297" on="1"/>
        <pt x="197" y="397" on="0"/>
        <pt x="219" y="487" on="1"/>
        <pt x="315" y="942" on="1"/>
        <pt x="90" y="942" on="1"/>
        <pt x="121" y="1096" on="1"/>
        <pt x="348" y="1096" on="1"/>
        <pt x="395" y="1319" on="1"/>
        <pt x="575" y="1319" on="1"/>
        <pt x="530" y="1096" on="1"/>
        <pt x="817" y="1096" on="1"/>
      </contour>
      <contour>
        <pt x="625" y="498" on="1"/>
        <pt x="519" y="498" on="0"/>
        <pt x="395" y="477" on="1"/>
        <pt x="373" y="367" on="0"/>
        <pt x="373" y="311" on="1"/>
        <pt x="373" y="217" on="0"/>
        <pt x="474" y="127" on="0"/>
        <pt x="578" y="127" on="1"/>
        <pt x="697" y="127" on="0"/>
        <pt x="836" y="240" on="0"/>
        <pt x="836" y="340" on="1"/>
        <pt x="836" y="424" on="0"/>
        <pt x="731" y="498" on="0"/>
      </contour>
    </TTGlyph>
    <TTGlyph name="afii10195" xMin="98" yMin="-16" xMax="1057" yMax="1112">
      <contour>
        <pt x="1057" y="705" on="1"/>
        <pt x="1057" y="511" on="0"/>
        <pt x="910" y="167" on="0"/>
        <pt x="664" y="-16" on="0"/>
        <pt x="510" y="-16" on="1"/>
        <pt x="318" y="-16" on="0"/>
        <pt x="98" y="212" on="0"/>
        <pt x="98" y="406" on="1"/>
        <pt x="98" y="598" on="0"/>
        <pt x="246" y="934" on="0"/>
        <pt x="493" y="1112" on="0"/>
        <pt x="647" y="1112" on="1"/>
        <pt x="838" y="1112" on="0"/>
        <pt x="1057" y="894" on="0"/>
      </contour>
      <contour>
        <pt x="518" y="131" on="1"/>
        <pt x="633" y="131" on="0"/>
        <pt x="812" y="320" on="0"/>
        <pt x="850" y="487" on="1"/>
        <pt x="287" y="487" on="1"/>
        <pt x="281" y="459" on="0"/>
        <pt x="281" y="397" on="1"/>
        <pt x="281" y="270" on="0"/>
        <pt x="404" y="131" on="0"/>
      </contour>
      <contour>
        <pt x="649" y="963" on="1"/>
        <pt x="531" y="963" on="0"/>
        <pt x="355" y="787" on="0"/>
        <pt x="315" y="639" on="1"/>
        <pt x="870" y="639" on="1"/>
        <pt x="872" y="709" on="1"/>
        <pt x="872" y="834" on="0"/>
        <pt x="758" y="963" on="0"/>
      </contour>
    </TTGlyph>
    <TTGlyph name="afii10196" xMin="96" yMin="0" xMax="1069" yMax="1104">
      <contour>
        <pt x="369" y="137" on="1"/>
        <pt x="447" y="340" on="0"/>
        <pt x="518" y="492" on="1"/>
        <pt x="674" y="825" on="1"/>
        <pt x="750" y="993" on="0"/>
        <pt x="877" y="1104" on="0"/>
        <pt x="987" y="1104" on="1"/>
        <pt x="1039" y="1104" on="0"/>
        <pt x="1069" y="1094" on="1"/>
        <pt x="1069" y="963" on="1"/>
        <pt x="1032" y="971" on="0"/>
        <pt x="1001" y="971" on="1"/>
        <pt x="958" y="971" on="0"/>
        <pt x="893" y="906" on="0"/>
        <pt x="854" y="819" on="1"/>
        <pt x="463" y="0" on="1"/>
        <pt x="225" y="0" on="1"/>
        <pt x="96" y="1098" on="1"/>
        <pt x="279" y="1098" on="1"/>
        <pt x="340" y="492" on="1"/>
        <pt x="348" y="401" on="0"/>
        <pt x="356" y="298" on="0"/>
        <pt x="362" y="137" on="1"/>
      </contour>
    </TTGlyph>
    <TTGlyph name="afii10846" xMin="59" yMin="-20" xMax="909" yMax="1116">
      <contour>
        <pt x="516" y="1116" on="1"/>
        <pt x="702" y="1116" on="0"/>
        <pt x="909" y="895" on="0"/>
        <pt x="909" y="705" on="1"/>
        <pt x="909" y="515" on="0"/>
        <pt x="759" y="170" on="0"/>
        <pt x="514" y="-20" on="0"/>
        <pt x="367" y="-20" on="1"/>
        <pt x="214" y="-20" on="0"/>
        <pt x="59" y="113" on="0"/>
        <pt x="59" y="231" on="1"/>
        <pt x="59" y="412" on="0"/>
        <pt x="394" y="616" on="0"/>
        <pt x="700" y="616" on="1"/>
        <pt x="733" y="616" on="1"/>
        <pt x="737" y="696" on="1"/>
        <pt x="737" y="834" on="0"/>
        <pt x="607" y="975" on="0"/>
        <pt x="485" y="975" on="1"/>
        <pt x="410" y="975" on="0"/>
        <pt x="270" y="929" on="0"/>
        <pt x="190" y="891" on="1"/>
        <pt x="190" y="1036" on="1"/>
        <pt x="290" y="1082" on="0"/>
        <pt x="435" y="1116" on="0"/>
      </contour>
      <contour>
        <pt x="377" y="123" on="1"/>
        <pt x="481" y="123" on="0"/>
        <pt x="663" y="314" on="0"/>
        <pt x="709" y="477" on="1"/>
        <pt x="696" y="477" on="1"/>
        <pt x="467" y="477" on="0"/>
        <pt x="225" y="358" on="0"/>
        <pt x="225" y="246" on="1"/>
        <pt x="225" y="193" on="0"/>
        <pt x="298" y="123" on="0"/>
      </contour>
    </TTGlyph>
    <TTGlyph name="afii299" xMin="-41" yMin="-272" xMax="434" yMax="1413">
      <contour>
        <pt x="434" y="1194" on="1"/>
        <pt x="213" y="975" on="1"/>
        <pt x="158" y="1028" on="1"/>
        <pt x="289" y="1153" on="1"/>
        <pt x="41" y="1153" on="1"/>
        <pt x="41" y="-272" on="1"/>
        <pt x="-41" y="-272" on="1"/>
        <pt x="-41" y="1233" on="1"/>
        <pt x="289" y="1233" on="1"/>
        <pt x="158" y="1358" on="1"/>
        <pt x="213" y="1413" on="1"/>
      </contour>
    </TTGlyph>
    <TTGlyph name="afii300" xMin="-436" yMin="-272" xMax="41" yMax="1413">
      <contour>
        <pt x="41" y="-272" on="1"/>
        <pt x="-43" y="-272" on="1"/>
        <pt x="-43" y="1153" on="1"/>
        <pt x="-291" y="1153" on="1"/>
        <pt x="-158" y="1028" on="1"/>
        <pt x="-213" y="975" on="1"/>
        <pt x="-436" y="1194" on="1"/>
        <pt x="-213" y="1413" on="1"/>
        <pt x="-158" y="1358" on="1"/>
        <pt x="-291" y="1233" on="1"/>
        <pt x="41" y="1233" on="1"/>
      </contour>
    </TTGlyph>
    <TTGlyph name="afii301" xMin="-223" yMin="-272" xMax="223" yMax="1413">
      <contour>
        <pt x="43" y="-272" on="1"/>
        <pt x="-43" y="-272" on="1"/>
        <pt x="-43" y="1096" on="1"/>
        <pt x="-170" y="969" on="1"/>
        <pt x="-223" y="1024" on="1"/>
        <pt x="-55" y="1192" on="1"/>
        <pt x="-223" y="1358" on="1"/>
        <pt x="-170" y="1413" on="1"/>
        <pt x="0" y="1243" on="1"/>
        <pt x="170" y="1413" on="1"/>
        <pt x="223" y="1358" on="1"/>
        <pt x="55" y="1192" on="1"/>
        <pt x="223" y="1024" on="1"/>
        <pt x="170" y="969" on="1"/>
        <pt x="43" y="1096" on="1"/>
      </contour>
    </TTGlyph>
    <TTGlyph name="afii57929" xMin="123" yMin="961" xMax="530" yMax="1462">
      <component glyphName="quoteright" x="0" y="0" flags="0x204"/>
    </TTGlyph>
    <TTGlyph name="afii61248" xMin="195" yMin="-8" xMax="1450" yMax="1470">
      <contour>
        <pt x="508" y="788" on="1"/>
        <pt x="388" y="788" on="0"/>
        <pt x="252" y="926" on="0"/>
        <pt x="252" y="1055" on="1"/>
        <pt x="252" y="1172" on="0"/>
        <pt x="348" y="1362" on="0"/>
        <pt x="524" y="1470" on="0"/>
        <pt x="641" y="1470" on="1"/>
        <pt x="720" y="1470" on="0"/>
        <pt x="811" y="1436" on="1"/>
        <pt x="772" y="1331" on="1"/>
        <pt x="697" y="1364" on="0"/>
        <pt x="629" y="1364" on="1"/>
        <pt x="524" y="1364" on="0"/>
        <pt x="393" y="1189" on="0"/>
        <pt x="393" y="1061" on="1"/>
        <pt x="393" y="899" on="0"/>
        <pt x="526" y="899" on="1"/>
        <pt x="574" y="899" on="0"/>
        <pt x="647" y="921" on="0"/>
        <pt x="678" y="932" on="1"/>
        <pt x="678" y="825" on="1"/>
        <pt x="647" y="810" on="0"/>
        <pt x="554" y="788" on="0"/>
      </contour>
      <contour>
        <pt x="1450" y="1462" on="1"/>
        <pt x="358" y="0" on="1"/>
        <pt x="195" y="0" on="1"/>
        <pt x="1290" y="1462" on="1"/>
      </contour>
      <contour>
        <pt x="1432" y="406" on="1"/>
        <pt x="1432" y="217" on="0"/>
        <pt x="1244" y="-8" on="0"/>
        <pt x="1083" y="-8" on="1"/>
        <pt x="966" y="-8" on="0"/>
        <pt x="834" y="126" on="0"/>
        <pt x="834" y="248" on="1"/>
        <pt x="834" y="369" on="0"/>
        <pt x="918" y="566" on="0"/>
        <pt x="1074" y="676" on="0"/>
        <pt x="1178" y="676" on="1"/>
        <pt x="1296" y="676" on="0"/>
        <pt x="1432" y="531" on="0"/>
      </contour>
      <contour>
        <pt x="1167" y="565" on="1"/>
        <pt x="1080" y="565" on="0"/>
        <pt x="973" y="391" on="0"/>
        <pt x="973" y="258" on="1"/>
        <pt x="973" y="98" on="0"/>
        <pt x="1098" y="98" on="1"/>
        <pt x="1157" y="98" on="0"/>
        <pt x="1243" y="182" on="0"/>
        <pt x="1290" y="324" on="0"/>
        <pt x="1290" y="401" on="1"/>
        <pt x="1290" y="565" on="0"/>
      </contour>
    </TTGlyph>
    <TTGlyph name="afii61289" xMin="111" yMin="-20" xMax="930" yMax="1483">
      <contour>
        <pt x="637" y="119" on="1"/>
        <pt x="807" y="119" on="0"/>
        <pt x="825" y="330" on="1"/>
        <pt x="930" y="330" on="1"/>
        <pt x="922" y="161" on="0"/>
        <pt x="768" y="-20" on="0"/>
        <pt x="618" y="-20" on="1"/>
        <pt x="465" y="-20" on="0"/>
        <pt x="303" y="163" on="0"/>
        <pt x="303" y="336" on="1"/>
        <pt x="303" y="567" on="1"/>
        <pt x="223" y="537" on="0"/>
        <pt x="111" y="510" on="1"/>
        <pt x="111" y="631" on="1"/>
        <pt x="189" y="652" on="0"/>
        <pt x="303" y="690" on="1"/>
        <pt x="303" y="1180" on="1"/>
        <pt x="303" y="1324" on="0"/>
        <pt x="456" y="1483" on="0"/>
        <pt x="598" y="1483" on="1"/>
        <pt x="718" y="1483" on="0"/>
        <pt x="858" y="1321" on="0"/>
        <pt x="858" y="1182" on="1"/>
        <pt x="858" y="996" on="0"/>
        <pt x="652" y="696" on="0"/>
        <pt x="471" y="618" on="1"/>
        <pt x="471" y="342" on="1"/>
        <pt x="471" y="239" on="0"/>
        <pt x="551" y="119" on="0"/>
      </contour>
      <contour>
        <pt x="721" y="1176" on="1"/>
        <pt x="721" y="1364" on="0"/>
        <pt x="598" y="1364" on="1"/>
        <pt x="533" y="1364" on="0"/>
        <pt x="471" y="1279" on="0"/>
        <pt x="471" y="1176" on="1"/>
        <pt x="471" y="750" on="1"/>
        <pt x="721" y="881" on="0"/>
      </contour>
    </TTGlyph>
    <TTGlyph name="afii61352" xMin="55" yMin="0" xMax="1882" yMax="1462">
      <contour>
        <pt x="1018" y="0" on="1"/>
        <pt x="819" y="0" on="1"/>
        <pt x="467" y="1223" on="1"/>
        <pt x="443" y="1043" on="0"/>
        <pt x="391" y="797" on="1"/>
        <pt x="221" y="0" on="1"/>
        <pt x="55" y="0" on="1"/>
        <pt x="365" y="1462" on="1"/>
        <pt x="569" y="1462" on="1"/>
        <pt x="915" y="260" on="1"/>
        <pt x="932" y="352" on="1"/>
        <pt x="991" y="657" on="1"/>
        <pt x="1163" y="1462" on="1"/>
        <pt x="1327" y="1462" on="1"/>
      </contour>
      <contour>
        <pt x="1223" y="0" on="1"/>
        <pt x="1253" y="145" on="1"/>
        <pt x="1735" y="145" on="1"/>
        <pt x="1702" y="0" on="1"/>
      </contour>
      <contour>
        <pt x="1882" y="694" on="1"/>
        <pt x="1882" y="580" on="0"/>
        <pt x="1792" y="376" on="0"/>
        <pt x="1637" y="274" on="0"/>
        <pt x="1536" y="274" on="1"/>
        <pt x="1415" y="274" on="0"/>
        <pt x="1284" y="417" on="0"/>
        <pt x="1284" y="545" on="1"/>
        <pt x="1284" y="663" on="0"/>
        <pt x="1371" y="859" on="0"/>
        <pt x="1527" y="969" on="0"/>
        <pt x="1628" y="969" on="1"/>
        <pt x="1744" y="969" on="0"/>
        <pt x="1882" y="819" on="0"/>
      </contour>
      <contour>
        <pt x="1743" y="688" on="1"/>
        <pt x="1743" y="846" on="0"/>
        <pt x="1618" y="846" on="1"/>
        <pt x="1533" y="846" on="0"/>
        <pt x="1423" y="675" on="0"/>
        <pt x="1423" y="551" on="1"/>
        <pt x="1423" y="476" on="0"/>
        <pt x="1484" y="393" on="0"/>
        <pt x="1546" y="393" on="1"/>
        <pt x="1634" y="393" on="0"/>
        <pt x="1743" y="562" on="0"/>
      </contour>
    </TTGlyph>
    <TTGlyph name="afii61573" xMin="-238" yMin="-272" xMax="238" yMax="1411">
      <contour>
        <pt x="238" y="977" on="1"/>
        <pt x="43" y="977" on="1"/>
        <pt x="43" y="-272" on="1"/>
        <pt x="-43" y="-272" on="1"/>
        <pt x="-43" y="977" on="1"/>
        <pt x="-238" y="977" on="1"/>
        <pt x="-238" y="1411" on="1"/>
        <pt x="238" y="1411" on="1"/>
      </contour>
    </TTGlyph>
    <TTGlyph name="afii61574" xMin="-238" yMin="-272" xMax="238" yMax="1411">
      <contour>
        <pt x="238" y="977" on="1"/>
        <pt x="43" y="977" on="1"/>
        <pt x="43" y="-272" on="1"/>
        <pt x="-43" y="-272" on="1"/>
        <pt x="-43" y="977" on="1"/>
        <pt x="-238" y="977" on="1"/>
        <pt x="-238" y="1411" on="1"/>
        <pt x="238" y="1411" on="1"/>
        <pt x="238" y="1331" on="1"/>
        <pt x="-158" y="1331" on="1"/>
        <pt x="-158" y="1055" on="1"/>
        <pt x="238" y="1055" on="1"/>
      </contour>
    </TTGlyph>
    <TTGlyph name="afii61575" xMin="-238" yMin="-272" xMax="238" yMax="1411">
      <contour>
        <pt x="-238" y="1055" on="1"/>
        <pt x="158" y="1055" on="1"/>
        <pt x="158" y="1331" on="1"/>
        <pt x="-238" y="1331" on="1"/>
        <pt x="-238" y="1411" on="1"/>
        <pt x="238" y="1411" on="1"/>
        <pt x="238" y="977" on="1"/>
        <pt x="43" y="977" on="1"/>
        <pt x="43" y="-272" on="1"/>
        <pt x="-43" y="-272" on="1"/>
        <pt x="-43" y="977" on="1"/>
        <pt x="-238" y="977" on="1"/>
      </contour>
    </TTGlyph>
    <TTGlyph name="afii61664" xMin="-43" yMin="-272" xMax="43" yMax="1286">
      <contour>
        <pt x="43" y="1286" on="1"/>
        <pt x="43" y="-272" on="1"/>
        <pt x="-43" y="-272" on="1"/>
        <pt x="-43" y="1286" on="1"/>
      </contour>
    </TTGlyph>
    <TTGlyph name="afii64937" xMin="229" yMin="961" xMax="436" yMax="1462">
      <component glyphName="quotereversed" x="0" y="0" flags="0x204"/>
    </TTGlyph>
    <TTGlyph name="agrave" xMin="98" yMin="-20" xMax="1126" yMax="1569">
      <component glyphName="a" x="0" y="0" flags="0x204"/>
      <component glyphName="grave" x="-77" y="0" flags="0x4"/>
    </TTGlyph>
    <TTGlyph name="alpha" xMin="98" yMin="-20" xMax="1169" yMax="1118">
      <contour>
        <pt x="922" y="930" on="1"/>
        <pt x="974" y="1047" on="0"/>
        <pt x="1022" y="1098" on="1"/>
        <pt x="1169" y="1098" on="1"/>
        <pt x="1139" y="1039" on="0"/>
        <pt x="1048" y="770" on="0"/>
        <pt x="1016" y="627" on="1"/>
        <pt x="944" y="305" on="1"/>
        <pt x="930" y="249" on="0"/>
        <pt x="930" y="199" on="1"/>
        <pt x="930" y="164" on="0"/>
        <pt x="964" y="125" on="0"/>
        <pt x="993" y="125" on="1"/>
        <pt x="1024" y="125" on="0"/>
        <pt x="1059" y="137" on="1"/>
        <pt x="1059" y="6" on="1"/>
        <pt x="1040" y="-5" on="0"/>
        <pt x="963" y="-20" on="0"/>
        <pt x="934" y="-20" on="1"/>
        <pt x="750" y="-20" on="0"/>
        <pt x="750" y="182" on="1"/>
        <pt x="743" y="182" on="1"/>
        <pt x="650" y="70" on="0"/>
        <pt x="482" y="-20" on="0"/>
        <pt x="395" y="-20" on="1"/>
        <pt x="256" y="-20" on="0"/>
        <pt x="98" y="179" on="0"/>
        <pt x="98" y="354" on="1"/>
        <pt x="98" y="564" on="0"/>
        <pt x="237" y="918" on="0"/>
        <pt x="480" y="1118" on="0"/>
        <pt x="629" y="1118" on="1"/>
        <pt x="827" y="1118" on="0"/>
        <pt x="911" y="930" on="1"/>
      </contour>
      <contour>
        <pt x="457" y="129" on="1"/>
        <pt x="551" y="129" on="0"/>
        <pt x="732" y="308" on="0"/>
        <pt x="844" y="594" on="0"/>
        <pt x="844" y="748" on="1"/>
        <pt x="844" y="846" on="0"/>
        <pt x="739" y="967" on="0"/>
        <pt x="649" y="967" on="1"/>
        <pt x="548" y="967" on="0"/>
        <pt x="379" y="800" on="0"/>
        <pt x="283" y="514" on="0"/>
        <pt x="283" y="352" on="1"/>
        <pt x="283" y="240" on="0"/>
        <pt x="373" y="129" on="0"/>
      </contour>
    </TTGlyph>
    <TTGlyph name="alphatonos" xMin="98" yMin="-20" xMax="1169" yMax="1651">
      <component glyphName="alpha" x="0" y="0" flags="0x204"/>
      <component glyphName="tonos" x="16" y="0" flags="0x4"/>
    </TTGlyph>
    <TTGlyph name="amacron" xMin="98" yMin="-20" xMax="1126" yMax="1386">
      <component glyphName="a" x="0" y="0" flags="0x204"/>
      <component glyphName="uni02C9" x="35" y="0" flags="0x4"/>
    </TTGlyph>
    <TTGlyph name="ampersand" xMin="66" yMin="-20" xMax="1321" yMax="1485">
      <contour>
        <pt x="1239" y="0" on="1"/>
        <pt x="1026" y="0" on="1"/>
        <pt x="913" y="160" on="1"/>
        <pt x="792" y="62" on="0"/>
        <pt x="572" y="-20" on="0"/>
        <pt x="442" y="-20" on="1"/>
        <pt x="269" y="-20" on="0"/>
        <pt x="66" y="173" on="0"/>
        <pt x="66" y="344" on="1"/>
        <pt x="66" y="491" on="0"/>
        <pt x="244" y="709" on="0"/>
        <pt x="455" y="811" on="1"/>
        <pt x="354" y="971" on="0"/>
        <pt x="354" y="1116" on="1"/>
        <pt x="354" y="1281" on="0"/>
        <pt x="569" y="1485" on="0"/>
        <pt x="748" y="1485" on="1"/>
        <pt x="897" y="1485" on="0"/>
        <pt x="1073" y="1326" on="0"/>
        <pt x="1073" y="1192" on="1"/>
        <pt x="1073" y="1109" on="0"/>
        <pt x="996" y="977" on="0"/>
        <pt x="854" y="864" on="0"/>
        <pt x="676" y="774" on="1"/>
        <pt x="946" y="397" on="1"/>
        <pt x="1065" y="501" on="0"/>
        <pt x="1141" y="692" on="1"/>
        <pt x="1321" y="692" on="1"/>
        <pt x="1220" y="450" on="0"/>
        <pt x="1036" y="272" on="1"/>
      </contour>
      <contour>
        <pt x="530" y="700" on="1"/>
        <pt x="414" y="640" on="0"/>
        <pt x="302" y="544" on="0"/>
        <pt x="244" y="430" on="0"/>
        <pt x="244" y="356" on="1"/>
        <pt x="244" y="252" on="0"/>
        <pt x="374" y="129" on="0"/>
        <pt x="477" y="129" on="1"/>
        <pt x="563" y="129" on="0"/>
        <pt x="725" y="196" on="0"/>
        <pt x="827" y="279" on="1"/>
      </contour>
      <contour>
        <pt x="604" y="887" on="1"/>
        <pt x="738" y="954" on="0"/>
        <pt x="838" y="1031" on="0"/>
        <pt x="899" y="1122" on="0"/>
        <pt x="899" y="1178" on="1"/>
        <pt x="899" y="1250" on="0"/>
        <pt x="818" y="1339" on="0"/>
        <pt x="739" y="1339" on="1"/>
        <pt x="637" y="1339" on="0"/>
        <pt x="526" y="1221" on="0"/>
        <pt x="526" y="1116" on="1"/>
        <pt x="526" y="996" on="0"/>
      </contour>
    </TTGlyph>
    <TTGlyph name="anoteleia" xMin="166" yMin="583" xMax="424" yMax="860">
      <component glyphName="period" x="125" y="612" flags="0x4"/>
    </TTGlyph>
    <TTGlyph name="aogonek" xMin="98" yMin="-444" xMax="1126" yMax="1118">
      <component glyphName="a" x="0" y="0" flags="0x204"/>
      <component glyphName="ogonek" x="680" y="0" flags="0x4"/>
    </TTGlyph>
    <TTGlyph name="approxequal" xMin="115" yMin="379" xMax="1073" yMax="1059">
      <contour>
        <pt x="348" y="500" on="1"/>
        <pt x="294" y="500" on="0"/>
        <pt x="165" y="431" on="0"/>
        <pt x="115" y="379" on="1"/>
        <pt x="115" y="537" on="1"/>
        <pt x="214" y="645" on="0"/>
        <pt x="358" y="645" on="1"/>
        <pt x="428" y="645" on="0"/>
        <pt x="548" y="614" on="0"/>
        <pt x="629" y="580" on="1"/>
        <pt x="706" y="547" on="0"/>
        <pt x="792" y="524" on="0"/>
        <pt x="838" y="524" on="1"/>
        <pt x="894" y="524" on="0"/>
        <pt x="1020" y="590" on="0"/>
        <pt x="1073" y="645" on="1"/>
        <pt x="1073" y="489" on="1"/>
        <pt x="973" y="379" on="0"/>
        <pt x="829" y="379" on="1"/>
        <pt x="759" y="379" on="0"/>
        <pt x="636" y="411" on="0"/>
        <pt x="559" y="444" on="1"/>
        <pt x="482" y="477" on="0"/>
        <pt x="397" y="500" on="0"/>
      </contour>
      <contour>
        <pt x="348" y="911" on="1"/>
        <pt x="296" y="911" on="0"/>
        <pt x="169" y="846" on="0"/>
        <pt x="115" y="791" on="1"/>
        <pt x="115" y="948" on="1"/>
        <pt x="213" y="1057" on="0"/>
        <pt x="358" y="1057" on="1"/>
        <pt x="428" y="1057" on="0"/>
        <pt x="548" y="1027" on="0"/>
        <pt x="629" y="993" on="1"/>
        <pt x="697" y="964" on="0"/>
        <pt x="792" y="938" on="0"/>
        <pt x="838" y="938" on="1"/>
        <pt x="893" y="938" on="0"/>
        <pt x="1022" y="1004" on="0"/>
        <pt x="1073" y="1059" on="1"/>
        <pt x="1073" y="901" on="1"/>
        <pt x="973" y="791" on="0"/>
        <pt x="829" y="791" on="1"/>
        <pt x="759" y="791" on="0"/>
        <pt x="636" y="823" on="0"/>
        <pt x="559" y="856" on="1"/>
        <pt x="491" y="885" on="0"/>
        <pt x="398" y="911" on="0"/>
      </contour>
    </TTGlyph>
    <TTGlyph name="aring" xMin="98" yMin="-20" xMax="1126" yMax="1669">
      <component glyphName="a" x="0" y="0" flags="0x204"/>
      <component glyphName="ring" x="-36" y="0" flags="0x4"/>
    </TTGlyph>
    <TTGlyph name="aringacute" xMin="98" yMin="-20" xMax="1126" yMax="1962">
      <contour>
        <pt x="662" y="1718" on="1"/>
        <pt x="765" y="1813" on="0"/>
        <pt x="887" y="1962" on="1"/>
        <pt x="1112" y="1962" on="1"/>
        <pt x="1112" y="1944" on="1"/>
        <pt x="1060" y="1892" on="0"/>
        <pt x="855" y="1740" on="0"/>
        <pt x="786" y="1700" on="1"/>
        <pt x="662" y="1700" on="1"/>
      </contour>
      <contour>
        <pt x="946" y="1413" on="1"/>
        <pt x="946" y="1314" on="0"/>
        <pt x="824" y="1198" on="0"/>
        <pt x="725" y="1198" on="1"/>
        <pt x="623" y="1198" on="0"/>
        <pt x="502" y="1313" on="0"/>
        <pt x="502" y="1411" on="1"/>
        <pt x="502" y="1508" on="0"/>
        <pt x="628" y="1626" on="0"/>
        <pt x="725" y="1626" on="1"/>
        <pt x="823" y="1626" on="0"/>
        <pt x="946" y="1512" on="0"/>
      </contour>
      <contour>
        <pt x="838" y="1411" on="1"/>
        <pt x="838" y="1465" on="0"/>
        <pt x="773" y="1524" on="0"/>
        <pt x="725" y="1524" on="1"/>
        <pt x="674" y="1524" on="0"/>
        <pt x="612" y="1465" on="0"/>
        <pt x="612" y="1411" on="1"/>
        <pt x="612" y="1360" on="0"/>
        <pt x="668" y="1298" on="0"/>
        <pt x="725" y="1298" on="1"/>
        <pt x="775" y="1298" on="0"/>
        <pt x="838" y="1363" on="0"/>
      </contour>
      <contour>
        <pt x="395" y="-20" on="1"/>
        <pt x="258" y="-20" on="0"/>
        <pt x="98" y="176" on="0"/>
        <pt x="98" y="354" on="1"/>
        <pt x="98" y="559" on="0"/>
        <pt x="239" y="914" on="0"/>
        <pt x="487" y="1118" on="0"/>
        <pt x="637" y="1118" on="1"/>
        <pt x="730" y="1118" on="0"/>
        <pt x="871" y="1020" on="0"/>
        <pt x="913" y="928" on="1"/>
        <pt x="924" y="928" on="1"/>
        <pt x="989" y="1098" on="1"/>
        <pt x="1126" y="1098" on="1"/>
        <pt x="893" y="0" on="1"/>
        <pt x="750" y="0" on="1"/>
        <pt x="776" y="203" on="1"/>
        <pt x="768" y="203" on="1"/>
        <pt x="595" y="-20" on="0"/>
      </contour>
      <contour>
        <pt x="455" y="129" on="1"/>
        <pt x="549" y="129" on="0"/>
        <pt x="738" y="309" on="0"/>
        <pt x="852" y="598" on="0"/>
        <pt x="852" y="748" on="1"/>
        <pt x="852" y="846" on="0"/>
        <pt x="744" y="967" on="0"/>
        <pt x="655" y="967" on="1"/>
        <pt x="554" y="967" on="0"/>
        <pt x="381" y="798" on="0"/>
        <pt x="283" y="512" on="0"/>
        <pt x="283" y="350" on="1"/>
        <pt x="283" y="239" on="0"/>
        <pt x="373" y="129" on="0"/>
      </contour>
    </TTGlyph>
</ttFont>
